<?xml version="1.0" standalone="no"?>
<!DOCTYPE svg PUBLIC "-//W3C//DTD SVG 20010904//EN"
 "http://www.w3.org/TR/2001/REC-SVG-20010904/DTD/svg10.dtd">
<svg version="1.0" xmlns="http://www.w3.org/2000/svg"
 width="422.000000pt" height="422.000000pt" viewBox="0 0 422.000000 422.000000"
 preserveAspectRatio="xMidYMid meet">
<metadata>
Created by potrace 1.11, written by Peter Selinger 2001-2013
</metadata>
<g transform="translate(0.000000,422.000000) scale(0.100000,-0.100000)"
fill="#000000" stroke="none">
<path d="M1435 4211 c-16 -4 -49 -18 -73 -30 -216 -111 -261 -393 -91 -563 74
-74 144 -103 249 -102 72 0 94 4 147 28 134 61 217 200 206 344 -8 110 -73
220 -165 278 -71 45 -191 65 -273 45z"/>
<path d="M852 3624 c-29 -8 -67 -21 -84 -30 -58 -30 -124 -102 -154 -167 -24
-53 -28 -75 -28 -147 0 -75 4 -93 32 -152 36 -74 90 -128 168 -168 43 -22 62
-25 149 -25 118 1 162 17 240 88 148 133 153 366 11 508 -89 89 -214 123 -334
93z"/>
<path d="M2020 3623 c-108 -28 -189 -97 -238 -202 -39 -83 -37 -213 3 -292
103 -201 356 -262 531 -130 60 45 118 128 132 190 6 25 9 78 7 117 -10 215
-225 372 -435 317z"/>
<path d="M1397 3028 c-172 -60 -271 -267 -212 -443 61 -178 238 -273 429 -231
76 17 167 87 210 161 75 128 62 303 -32 411 -94 109 -255 151 -395 102z"/>
<path d="M2587 3035 c-229 -74 -323 -344 -187 -540 72 -104 181 -156 314 -149
191 9 341 177 330 370 -7 121 -93 249 -201 300 -69 33 -185 41 -256 19z"/>
<path d="M2040 2460 c-94 -17 -197 -92 -245 -177 -76 -137 -47 -318 69 -426
176 -166 452 -116 558 101 30 61 33 75 33 157 -1 77 -5 98 -28 145 -70 146
-229 228 -387 200z"/>
<path d="M3195 2455 c-106 -25 -195 -98 -241 -198 -24 -53 -28 -74 -28 -147 1
-94 25 -164 80 -229 102 -120 283 -157 423 -88 152 76 231 247 188 411 -48
182 -237 295 -422 251z"/>
<path d="M1403 1861 c-100 -37 -177 -114 -212 -212 -70 -190 32 -397 223 -458
214 -67 439 81 459 303 14 146 -70 292 -203 354 -75 35 -193 41 -267 13z"/>
<path d="M2600 1871 c-96 -32 -184 -102 -223 -177 -61 -118 -49 -269 30 -377
141 -193 438 -188 574 9 124 181 60 423 -138 520 -41 20 -72 27 -135 30 -46 2
-94 0 -108 -5z"/>
<path d="M848 1285 c-96 -26 -183 -96 -228 -186 -28 -53 -31 -70 -34 -149 -6
-141 72 -266 204 -329 44 -20 72 -26 140 -28 74 -1 93 2 145 26 147 68 223
191 213 347 -14 221 -227 375 -440 319z"/>
<path d="M2018 1285 c-196 -52 -309 -257 -247 -450 65 -204 287 -300 487 -210
74 33 133 93 170 173 23 49 27 70 27 147 0 76 -4 98 -27 145 -72 153 -249 236
-410 195z"/>
<path d="M1435 703 c-91 -23 -199 -113 -235 -196 -62 -139 -32 -295 75 -400
141 -140 359 -136 500 7 134 138 134 350 0 489 -66 69 -139 100 -240 103 -44
2 -89 0 -100 -3z"/>
</g>
</svg>
