<?xml version="1.0" encoding="utf-8"?>
<!-- Generated by IcoMoon.io -->
<!DOCTYPE svg PUBLIC "-//W3C//DTD SVG 1.1//EN" "http://www.w3.org/Graphics/SVG/1.1/DTD/svg11.dtd">
<svg version="1.1" xmlns="http://www.w3.org/2000/svg" xmlns:xlink="http://www.w3.org/1999/xlink" width="25" height="25" viewBox="0 0 25 25">
<path d="M22.929 6.429c0.214 0.143 0.286 0.429 0.286 0.643v5.143c0 0.643-0.214 1.214-0.643 1.714l-0.786 0.929-0.714 9.571c0 0.357-0.286 0.571-0.643 0.571h-2.143c-0.357 0-0.643-0.214-0.643-0.571l-0.714-9.571-0.429-0.5c0.5-0.643 0.786-1.357 0.786-2.143v-5.143c0-0.5-0.214-0.929-0.571-1.214v0c0.429-0.286 0.929-0.571 1.357-0.786 0.071 0 0.071-0.071 0.071-0.071v-0.643c-0.143-0.214-0.214-0.5-0.286-0.786-0.286-0.071-0.357-0.286-0.357-0.571-0.143-0.571 0-0.643 0.143-0.643h0.071c-0.143-0.286-0.214-0.571-0.071-0.929 0.071-0.286 0.214-0.571 0.429-0.786 0.143-0.143 0.286-0.286 0.429-0.357s0.286-0.143 0.429-0.214v0c0.143-0.071 0.286-0.071 0.357-0.071h0.143c0.286 0 0.571 0.071 0.786 0.214 0.214 0.071 0.357 0.214 0.429 0.429 0 0 0.857 0.071 0.429 1.857 0.143 0.071 0.214 0.214 0.071 0.643 0 0.214-0.143 0.429-0.357 0.571 0 0-0.071 0-0.071-0.071 0 0.214-0.071 0.429-0.214 0.643v0.643c0 0 0 0.071 0.071 0.071 0.929 0.429 1.643 0.857 2.357 1.429zM7.357 24.429l0.714-9.571 0.429-0.5c-0.5-0.643-0.714-1.357-0.714-2.143v-5.143c0-0.5 0.214-0.929 0.571-1.214v0c-0.429-0.286-0.929-0.571-1.429-0.786 0 0 0-0.071 0-0.143v-0.643c0.071-0.214 0.143-0.429 0.214-0.643 0 0 0.071 0.071 0.071 0.071 0.214-0.143 0.286-0.357 0.357-0.571 0.143-0.429 0.071-0.643-0.071-0.643 0.357-1.786-0.5-1.857-0.5-1.857-0.143-0.143-0.286-0.286-0.429-0.429-0.286-0.143-0.571-0.143-0.786-0.143h-0.143c-0.143 0-0.286 0-0.357 0.071v0c-0.214 0-0.357 0.071-0.5 0.214-0.143 0.071-0.286 0.214-0.429 0.357-0.214 0.214-0.357 0.5-0.429 0.786s-0.071 0.643 0 0.929v0c-0.143 0-0.286 0.143-0.143 0.643 0 0.214 0.143 0.429 0.286 0.571 0.071 0.286 0.143 0.5 0.286 0.786v0.571c0 0 0 0.071-0.071 0.071-0.786 0.429-1.571 0.929-2.286 1.429-0.143 0.214-0.214 0.429-0.214 0.643v5.143c0 0.571 0.214 1.214 0.643 1.643l0.857 1 0.643 9.5c0 0.357 0.286 0.571 0.643 0.571h2.143c0.286 0 0.571-0.214 0.643-0.571 0 0 0 0 0 0zM11.143 4.929v-0.571c-0.143-0.214-0.214-0.5-0.286-0.786-0.214-0.143-0.286-0.357-0.286-0.571-0.143-0.571 0-0.643 0.143-0.643h0.071c-0.143-0.286-0.143-0.643-0.071-0.929s0.214-0.571 0.429-0.786c0.143-0.143 0.286-0.286 0.429-0.357s0.286-0.143 0.429-0.214v0c0.143-0.071 0.286-0.071 0.429-0.071h0.143c0.286 0 0.571 0.071 0.786 0.214 0.214 0.071 0.357 0.214 0.429 0.429 0 0 0.857 0.071 0.429 1.857 0.143 0.071 0.214 0.214 0.071 0.643-0.071 0.429-0.214 0.571-0.286 0.571 0 0-0.071 0-0.071-0.071 0 0.214-0.071 0.429-0.214 0.643v0.643c0 0 0 0.071 0.071 0.071 0.786 0.429 1.571 0.857 2.286 1.429 0.214 0.143 0.286 0.357 0.286 0.643v5.143c0 0.643-0.214 1.214-0.643 1.714l-0.786 0.929-0.714 9.571c0 0.357-0.286 0.571-0.643 0.571h-2.143c-0.357 0-0.643-0.214-0.643-0.571l-0.714-9.571-0.857-0.929c-0.429-0.429-0.643-1.071-0.643-1.643v-5.214c0-0.214 0.071-0.429 0.286-0.643 0.714-0.571 1.5-1.071 2.286-1.429 0 0 0-0.071 0-0.071v0zM12.286 6.786l-0.357 3.357 0.643 0.714 0.643-0.714-0.357-3.357c0.786-1.143-0.071-1.143-0.214-1.143v0c-0.286-0.071-1.143 0-0.357 1.143v0z"></path>
</svg>
