<?xml version="1.0" encoding="utf-8"?>
<!-- Generated by IcoMoon.io -->
<!DOCTYPE svg PUBLIC "-//W3C//DTD SVG 1.1//EN" "http://www.w3.org/Graphics/SVG/1.1/DTD/svg11.dtd">
<svg version="1.1" xmlns="http://www.w3.org/2000/svg" xmlns:xlink="http://www.w3.org/1999/xlink" width="25" height="25" viewBox="0 0 25 25">
<path d="M12.5 24.885h0.459c6.88-0.23 12.27-5.963 12.041-12.844-0.23-6.537-5.505-11.812-12.041-12.041v0h-0.459c-6.88 0-12.5 5.505-12.615 12.385 0 6.88 5.505 12.5 12.385 12.5 0.115 0 0.115 0 0.23 0zM12.959 9.863c0.23 0 0.459-0.23 0.459-0.459s-0.23-0.459-0.459-0.459v0-2.523c0.23 0 0.459-0.23 0.459-0.459s-0.23-0.459-0.459-0.459v0-2.523c0.23 0 0.459-0.23 0.459-0.459s-0.23-0.459-0.459-0.459v0-1.147c0.459 0 0.917 0.115 1.262 0.115 0 0.23 0.23 0.344 0.459 0.344 0.115-0.115 0.23-0.115 0.23-0.23 5.275 1.147 9.174 5.848 9.174 11.353h-11.238v-2.637h0.115zM0.917 11.697c0-0.115 0-0.23 0-0.459 0-0.115 0-0.115 0-0.23s0-0.23 0-0.344c0-0.115 0-0.115 0-0.23s0-0.23 0.115-0.344c0-0.115 0-0.115 0-0.23s0-0.23 0.115-0.344c0-0.115 0-0.115 0.115-0.23 0-0.115 0-0.23 0.115-0.344s0-0.115 0.115-0.23 0.115-0.23 0.115-0.344c0-0.115 0.115-0.115 0.115-0.23s0.115-0.23 0.115-0.344c0-0.115 0.115-0.115 0.115-0.23s0.115-0.23 0.115-0.344c0-0.115 0.115-0.115 0.115-0.23h0.115c0-0.115 0-0.115 0.115-0.23 0-0.115 0.115-0.23 0.115-0.23s0.115-0.115 0.115-0.23 0.115-0.115 0.115-0.23l0.115-0.23c0.115-0.115 0.23-0.23 0.23-0.23 0-0.115 0.115-0.115 0.115-0.23 0.115-0.115 0.23-0.23 0.23-0.23s0.115-0.115 0.115-0.23 0.115-0.115 0.23-0.23c0 0 0.115-0.115 0.115-0.23s0.115-0.115 0.23-0.23c0 0 0.115-0.115 0.23-0.115l0.23-0.23c0.115 0 0.115-0.115 0.23-0.115s0.115-0.115 0.23-0.23 0.115-0.115 0.115-0.115 0.115-0.115 0.23-0.23 0.115-0.115 0.23-0.115 0.115-0.115 0.23-0.115 0.115-0.115 0.23-0.115 0.115-0.115 0.23-0.115c0.115 0 0.115-0.115 0.23-0.115 0.115-0.23 0.23-0.23 0.344-0.344 0 0 0.115-0.115 0.23-0.115s0.115-0.115 0.23-0.115c0.115 0 0.115-0.115 0.23-0.115s0.23-0.115 0.23-0.115l0.23-0.115c0.115 0 0.23-0.115 0.23-0.115 0.115 0 0.115 0 0.23-0.115 0.115 0 0.23-0.115 0.23-0.115 0.115 0 0.115 0 0.23-0.115 0.23 0 0.344-0.115 0.573-0.115h0.459c0.115 0 0.23 0 0.23 0s0.23 0 0.344 0c0.115 0 0.23 0 0.23 0 0.115 0 0.23 0 0.344 0s0.23 0 0.344 0c0.115 0 0.23 0 0.344 0s0.23 0 0.344 0h0.115v12.5h11.812c-0.115 0.917-0.23 1.835-0.573 2.638v0c-0.115 0.23-0.115 0.459-0.23 0.688 0 0 0 0 0 0 0 0.115-0.115 0.115-0.115 0.23 0 0 0 0 0 0-1.262 2.867-3.555 5.046-6.422 6.193 0 0 0 0 0 0-0.23 0.115-0.459 0.23-0.688 0.23v0c-0.803 0.23-1.72 0.459-2.638 0.573v0c-0.115 0-0.344 0-0.459 0v0 0h-0.344c-0.115 0-0.344 0-0.459 0h-0.115c-0.115 0-0.23 0-0.344 0s-0.23 0-0.344 0h-0.688c-0.115 0-0.23 0-0.23 0-0.115 0-0.23 0-0.344 0s-0.23 0-0.23 0l-0.459-0.23c-0.115 0-0.23 0-0.23-0.115-0.115 0-0.115 0-0.23-0.115s-0.23 0-0.23-0.115l-0.23-0.115-0.459-0.344-0.23-0.115c-0.115 0-0.23-0.115-0.23-0.115-0.115 0-0.115-0.115-0.23-0.115s-0.23-0.115-0.23-0.115c-0.115 0-0.115-0.115-0.23-0.115s-0.115-0.115-0.23-0.115c-0.115 0-0.115-0.115-0.23-0.115s-0.115-0.115-0.23-0.115-0.115-0.115-0.23-0.115l-0.23-0.115c-0.115 0-0.115-0.115-0.23-0.115-0.115-0.115-0.115-0.115-0.23-0.23s-0.115-0.115-0.23-0.115-0.115-0.115-0.23-0.23c-0.115 0-0.115-0.115-0.23-0.115l-0.23-0.23c0 0-0.115-0.115-0.23-0.23s-0.115-0.115-0.23-0.23c0 0-0.115-0.115-0.115-0.23-0.115-0.115-0.115-0.115-0.23-0.23 0 0-0.115-0.115-0.115-0.23-0.115-0.115-0.115-0.115-0.23-0.23l-0.115-0.23c-0.115-0.115-0.115-0.115-0.23-0.23l-0.115-0.23c0-0.115-0.115-0.115-0.115-0.23s-0.115-0.115-0.115-0.23c0-0.115-0.115-0.115-0.115-0.23s-0.115-0.23-0.115-0.23c0-0.115-0.115-0.23-0.115-0.23 0-0.115-0.115-0.115-0.115-0.23s-0.115-0.344-0.23-0.344-0.115-0.115-0.115-0.23-0.115-0.23-0.115-0.344l-0.115-0.23c0-0.115-0.115-0.23-0.115-0.344s0-0.115-0.115-0.23c0-0.115 0-0.23-0.115-0.344 0-0.115 0-0.115-0.115-0.23 0-0.115 0-0.23-0.115-0.344 0-0.115 0-0.115 0-0.23s0-0.23-0.115-0.344c0-0.115 0-0.115 0-0.23s0-0.23 0-0.344c0-0.115 0-0.115 0-0.23s0-0.23 0-0.344c0-0.115 0-0.115 0-0.23 0-0.23 0-0.344 0-0.573s0-0.459 0-0.573c0.115 0 0.115 0 0.115-0.115v0zM14.679 11.583c0.23 0 0.459-0.23 0.459-0.459s-0.23-0.344-0.573-0.344c-0.23 0-0.459 0.23-0.459 0.459 0.115 0.115 0.23 0.344 0.573 0.344zM14.679 8.142c0.23 0 0.459-0.23 0.459-0.459s-0.23-0.344-0.573-0.344c-0.23 0-0.459 0.23-0.459 0.459 0.115 0.115 0.23 0.344 0.573 0.344zM14.679 4.702c0.23 0 0.459-0.23 0.459-0.459s-0.23-0.344-0.573-0.344c-0.23 0-0.459 0.23-0.459 0.459 0.115 0.115 0.23 0.344 0.573 0.344zM16.399 9.863c0.23 0 0.459-0.23 0.459-0.459s-0.23-0.459-0.459-0.459c-0.23 0-0.459 0.23-0.459 0.459s0.115 0.459 0.459 0.459zM16.399 6.422c0.23 0 0.459-0.23 0.459-0.459s-0.23-0.459-0.459-0.459c-0.23 0-0.459 0.23-0.459 0.459s0.115 0.459 0.459 0.459zM16.399 2.982c0.23 0 0.459-0.23 0.459-0.459s-0.23-0.459-0.459-0.459c-0.23 0-0.459 0.23-0.459 0.459s0.115 0.459 0.459 0.459zM18.12 11.583c0.23 0 0.459-0.23 0.459-0.459s-0.23-0.344-0.573-0.344c-0.23 0-0.459 0.23-0.459 0.459 0.115 0.115 0.23 0.344 0.573 0.344zM18.12 8.142c0.23 0 0.459-0.23 0.459-0.459s-0.23-0.344-0.573-0.344c-0.23 0-0.459 0.23-0.459 0.459 0.115 0.115 0.23 0.344 0.573 0.344zM18.12 4.702c0.23 0 0.459-0.23 0.459-0.459s-0.23-0.344-0.573-0.344c-0.23 0-0.459 0.23-0.459 0.459 0.115 0.115 0.23 0.344 0.573 0.344zM19.84 9.863c0.23 0 0.459-0.23 0.459-0.459s-0.23-0.459-0.459-0.459c-0.23 0-0.459 0.23-0.459 0.459s0.115 0.459 0.459 0.459zM19.84 6.422c0.23 0 0.459-0.23 0.459-0.459s-0.23-0.459-0.459-0.459c-0.23 0-0.459 0.23-0.459 0.459s0.115 0.459 0.459 0.459zM21.559 11.583c0.23 0 0.459-0.23 0.459-0.459s-0.23-0.344-0.573-0.344c-0.23 0-0.459 0.23-0.459 0.459 0.115 0.115 0.23 0.344 0.573 0.344zM21.559 8.142c0.23 0 0.459-0.23 0.459-0.459s-0.23-0.344-0.573-0.344c-0.23 0-0.459 0.23-0.459 0.459 0.115 0.115 0.23 0.344 0.573 0.344zM23.28 9.863c0.23 0 0.459-0.23 0.459-0.459s-0.23-0.459-0.459-0.459c-0.23 0-0.459 0.23-0.459 0.459s0.115 0.459 0.459 0.459z"></path>
</svg>
