<?xml version="1.0" encoding="utf-8"?>
<!-- Generated by IcoMoon.io -->
<!DOCTYPE svg PUBLIC "-//W3C//DTD SVG 1.1//EN" "http://www.w3.org/Graphics/SVG/1.1/DTD/svg11.dtd">
<svg version="1.1" xmlns="http://www.w3.org/2000/svg" xmlns:xlink="http://www.w3.org/1999/xlink" width="25" height="25" viewBox="0 0 25 25">
<path d="M21.234 15.933v5.711h-17.469v-5.711h-3.357v7.39c0 0.927 0.751 1.678 1.681 1.678h20.821c0.93 0 1.681-0.751 1.681-1.678v-7.39h-3.357z"></path>
<path d="M12.192 15.366l-4.807-5.808c0 0-0.731-0.691 0.062-0.691s2.709 0 2.709 0 0-0.465 0-1.181c0-2.042 0-5.759 0-7.275 0 0-0.108-0.412 0.513-0.412 0.625 0 3.365 0 3.813 0s0.437 0.347 0.437 0.347c0 1.469 0 5.315 0 7.29 0 0.64 0 1.056 0 1.056s1.536 0 2.5 0c0.962 0 0.238 0.723 0.238 0.723s-4.090 5.429-4.66 5.999c-0.41 0.413-0.804-0.048-0.804-0.048z"></path>
</svg>
