<?xml version="1.0" encoding="utf-8"?>
<!-- Generated by IcoMoon.io -->
<!DOCTYPE svg PUBLIC "-//W3C//DTD SVG 1.1//EN" "http://www.w3.org/Graphics/SVG/1.1/DTD/svg11.dtd">
<svg version="1.1" xmlns="http://www.w3.org/2000/svg" xmlns:xlink="http://www.w3.org/1999/xlink" width="25" height="25" viewBox="0 0 25 25">
<path d="M12.5 0c-6.892 0-12.5 5.608-12.5 12.5s5.608 12.5 12.5 12.5c6.892 0 12.5-5.608 12.5-12.5s-5.607-12.5-12.5-12.5zM15.609 12.94h-2.034c0 3.249 0 7.248 0 7.248h-3.013c0 0 0-3.961 0-7.248h-1.432v-2.562h1.432v-1.657c0-1.187 0.564-3.041 3.041-3.041l2.233 0.009v2.487c0 0-1.357 0-1.621 0s-0.639 0.132-0.639 0.698v1.505h2.296l-0.263 2.561z"></path>
</svg>
