<?xml version="1.0" encoding="utf-8"?>
<!-- Generated by IcoMoon.io -->
<!DOCTYPE svg PUBLIC "-//W3C//DTD SVG 1.1//EN" "http://www.w3.org/Graphics/SVG/1.1/DTD/svg11.dtd">
<svg version="1.1" xmlns="http://www.w3.org/2000/svg" xmlns:xlink="http://www.w3.org/1999/xlink" width="25" height="25" viewBox="0 0 25 25">
<path d="M20.312 0h-15.625c-2.589 0-4.687 2.098-4.687 4.687v15.625c0 2.589 2.098 4.687 4.687 4.687h15.625c2.589 0 4.687-2.098 4.687-4.687v-15.625c0-2.589-2.098-4.687-4.687-4.687zM9.012 20.911c-2.767 0-5.102-1.127-5.102-2.927 0-1.827 2.13-3.591 4.897-3.589l0.864-0.008c-0.378-0.367-0.678-0.819-0.678-1.377 0-0.331 0.106-0.648 0.253-0.931l-0.461 0.016c-2.273 0-3.795-1.617-3.795-3.622 0-1.961 2.102-3.653 4.336-3.653h4.984l-1.119 0.806h-1.58c1.048 0.403 1.606 1.625 1.606 2.878 0 1.052-0.583 1.958-1.406 2.602-0.805 0.63-0.956 0.892-0.956 1.427 0 0.456 0.863 1.231 1.313 1.552 1.317 0.931 1.741 1.795 1.741 3.237-0 1.8-1.742 3.589-4.897 3.589zM21.875 10.967h-3.125v3.12h-1.561v-3.12h-3.127v-1.592h3.127v-3.125h1.561v3.125h3.125v1.592z"></path>
<path d="M11.428 8.602c-0.222-1.684-1.442-3.038-2.725-3.077-1.283-0.038-2.144 1.252-1.922 2.939 0.222 1.686 1.442 3.084 2.727 3.122 1.281 0.039 2.144-1.297 1.92-2.984z"></path>
<path d="M10.577 15.061c-0.378-0.122-0.795-0.195-1.241-0.2-1.913-0.020-3.625 1.166-3.625 2.592 0 1.456 1.381 2.666 3.294 2.666 2.689 0 3.625-1.137 3.625-2.591 0-0.175-0.023-0.347-0.061-0.514-0.209-0.825-0.955-1.233-1.992-1.953z"></path>
</svg>
