<?xml version="1.0" encoding="utf-8"?>
<!-- Generated by IcoMoon.io -->
<!DOCTYPE svg PUBLIC "-//W3C//DTD SVG 1.1//EN" "http://www.w3.org/Graphics/SVG/1.1/DTD/svg11.dtd">
<svg version="1.1" xmlns="http://www.w3.org/2000/svg" xmlns:xlink="http://www.w3.org/1999/xlink" width="25" height="25" viewBox="0 0 25 25">
<path d="M12.499 15.002c1.379 0 2.503-1.122 2.503-2.502 0-0.545-0.178-1.048-0.473-1.459-0.455-0.63-1.194-1.044-2.029-1.044s-1.574 0.413-2.030 1.043c-0.296 0.411-0.473 0.914-0.473 1.459-0.002 1.38 1.122 2.503 2.501 2.503z"></path>
<path d="M17.964 9.439v-2.41l-2.41 0.008 0.008 2.41z"></path>
<path d="M12.5 0c-6.892 0-12.5 5.608-12.5 12.5s5.608 12.5 12.5 12.5c6.892 0 12.5-5.608 12.5-12.5s-5.607-12.5-12.5-12.5zM19.609 11.041v5.821c0 1.516-1.233 2.748-2.748 2.748h-8.723c-1.516 0-2.748-1.232-2.748-2.748v-8.723c0-1.516 1.232-2.748 2.748-2.748h8.722c1.516 0 2.748 1.232 2.748 2.748v2.902z"></path>
<path d="M16.389 12.5c0 2.143-1.744 3.889-3.889 3.889s-3.888-1.745-3.888-3.889c0-0.516 0.103-1.009 0.286-1.459h-2.122v5.821c0 0.752 0.611 1.361 1.362 1.361h8.722c0.751 0 1.362-0.609 1.362-1.361v-5.821h-2.123c0.185 0.45 0.289 0.943 0.289 1.459z"></path>
</svg>
