<?xml version="1.0" encoding="utf-8"?>
<!-- Generated by IcoMoon.io -->
<!DOCTYPE svg PUBLIC "-//W3C//DTD SVG 1.1//EN" "http://www.w3.org/Graphics/SVG/1.1/DTD/svg11.dtd">
<svg version="1.1" xmlns="http://www.w3.org/2000/svg" xmlns:xlink="http://www.w3.org/1999/xlink" width="25" height="25" viewBox="0 0 25 25">
<path fill="#f6f7f8" d="M12.5 0c-6.904 0-12.5 5.596-12.5 12.5s5.596 12.5 12.5 12.5c6.904 0 12.5-5.596 12.5-12.5-0.011-6.899-5.601-12.489-12.499-12.5zM12.5 15.959c-1.918 0-3.472-1.555-3.472-3.472s1.555-3.472 3.472-3.472c1.918 0 3.472 1.555 3.472 3.472 0 0.005 0 0.009 0 0.015 0-0.001 0-0.001 0-0.001 0 1.91-1.548 3.459-3.459 3.459-0.005 0-0.009 0-0.015 0zM1.791 12.5c0.006-5.657 4.395-10.287 9.952-10.679l0.034 5.665c-2.473 0.368-4.347 2.477-4.347 5.023 0 0.677 0.133 1.323 0.373 1.914l-4.915 2.799c-0.69-1.378-1.095-3.002-1.097-4.721zM12.5 23.209c-3.69-0.001-6.943-1.87-8.865-4.713l4.879-2.871c0.934 1.188 2.372 1.945 3.986 1.945s3.052-0.756 3.978-1.934l4.911 2.823c-1.946 2.88-5.199 4.749-8.889 4.75zM17.209 14.389c0.228-0.557 0.361-1.203 0.361-1.88 0-2.546-1.875-4.654-4.32-5.020l-0.028-5.67c5.595 0.388 9.986 5.022 9.986 10.681 0 1.72-0.405 3.344-1.126 4.784z"></path>
</svg>
