<?xml version="1.0" encoding="utf-8"?>
<!-- Generated by IcoMoon.io -->
<!DOCTYPE svg PUBLIC "-//W3C//DTD SVG 1.1//EN" "http://www.w3.org/Graphics/SVG/1.1/DTD/svg11.dtd">
<svg version="1.1" xmlns="http://www.w3.org/2000/svg" xmlns:xlink="http://www.w3.org/1999/xlink" width="25" height="25" viewBox="0 0 25 25">
<path d="M14.778 10.724c-1.070 0-1.548 0.588-1.815 1.001v-0.858h-2.015c0.026 0.568 0 6.063 0 6.063h2.015v-3.387c0-0.181 0.012-0.363 0.066-0.492 0.146-0.363 0.477-0.738 1.034-0.738 0.729 0 1.021 0.556 1.021 1.372v3.244h2.016v-3.477c-0.001-1.861-0.995-2.727-2.321-2.727zM12.961 11.746h-0.013c0.004-0.007 0.010-0.014 0.013-0.021v0.021z"></path>
<path d="M7.816 10.867h2.015v6.063h-2.015v-6.063z"></path>
<path d="M12.5 0c-6.892 0-12.5 5.608-12.5 12.5s5.608 12.5 12.5 12.5c6.892 0 12.5-5.608 12.5-12.5s-5.607-12.5-12.5-12.5zM19.129 18.154c0 0.532-0.441 0.962-0.986 0.962h-11.37c-0.544 0-0.985-0.43-0.985-0.962v-11.502c0-0.531 0.442-0.962 0.985-0.962h11.37c0.545 0 0.986 0.431 0.986 0.962v11.502z"></path>
<path d="M8.837 7.944c-0.689 0-1.14 0.452-1.14 1.047 0 0.582 0.438 1.047 1.113 1.047h0.013c0.703 0 1.14-0.466 1.14-1.047-0.014-0.595-0.437-1.047-1.127-1.047z"></path>
</svg>
