<?xml version="1.0" encoding="utf-8"?>
<!-- Generated by IcoMoon.io -->
<!DOCTYPE svg PUBLIC "-//W3C//DTD SVG 1.1//EN" "http://www.w3.org/Graphics/SVG/1.1/DTD/svg11.dtd">
<svg version="1.1" xmlns="http://www.w3.org/2000/svg" xmlns:xlink="http://www.w3.org/1999/xlink" width="20" height="25" viewBox="0 0 20 25">
<path d="M18.645 16.001l0.014 0.084v-0.028l0.014 0.028 0.014-0.084h-0.042zM17.323 12.022c0.214-0.481 0.687-0.812 1.237-0.816 0.001 0 0.001 0 0.001 0 0.734 0 1.329 0.595 1.329 1.329s-0.595 1.329-1.329 1.329c0 0 0 0 0 0-0.002 0-0.005 0-0.008 0-0.107 0-0.211-0.016-0.309-0.045l0.008 0.002c-0.037-0.003-0.070-0.013-0.1-0.029-0.528-0.208-0.897-0.714-0.898-1.307-0.001-0.015-0.001-0.032-0.001-0.049 0-0.088 0.011-0.173 0.030-0.254 0.007-0.055 0.021-0.113 0.042-0.166zM18.687 16.001l-0.014 0.084-0.014 0.014v-0.014l-0.014-0.084h0.042zM13.456 17.323c-0.29-0.006-0.552-0.123-0.745-0.309-1.163-1.159-1.884-2.763-1.884-4.534s0.72-3.376 1.884-4.534c0.191-0.189 0.455-0.306 0.745-0.306s0.554 0.117 0.745 0.306c0.195 0.188 0.316 0.452 0.316 0.745s-0.121 0.556-0.316 0.745c-0.773 0.78-1.25 1.853-1.252 3.037 0 0.005 0 0.010 0 0.016 0 1.18 0.478 2.248 1.252 3.022 0.195 0.191 0.316 0.458 0.316 0.752s-0.121 0.561-0.316 0.752c-0.192 0.189-0.455 0.306-0.745 0.309zM9.336 20.726c-0.001 0-0.002 0-0.004 0-0.29 0-0.552-0.118-0.741-0.309-2.033-2.030-3.291-4.837-3.291-7.937s1.258-5.906 3.29-7.938c0.193-0.207 0.467-0.336 0.772-0.336 0.582 0 1.055 0.472 1.055 1.055 0 0.304-0.129 0.578-0.335 0.771-1.649 1.651-2.669 3.93-2.669 6.448s1.020 4.796 2.668 6.447c0.195 0.188 0.316 0.452 0.316 0.745s-0.121 0.556-0.316 0.745c-0.186 0.191-0.445 0.309-0.732 0.309-0.005 0-0.009 0-0.014 0zM5.765 24.986c-0.001 0-0.002 0-0.004 0-0.29 0-0.552-0.118-0.741-0.309-3.121-3.122-5.052-7.434-5.052-12.198s1.93-9.076 5.052-12.198c0.192-0.194 0.458-0.313 0.752-0.313 0.585 0 1.059 0.474 1.059 1.059 0 0.291-0.117 0.554-0.307 0.745-2.743 2.739-4.44 6.525-4.44 10.707s1.697 7.968 4.44 10.707c0.191 0.191 0.309 0.455 0.309 0.745 0 0.582-0.472 1.055-1.055 1.055-0.005 0-0.009 0-0.014 0z"></path>
</svg>
