<?xml version="1.0" encoding="utf-8"?>
<!-- Generated by IcoMoon.io -->
<!DOCTYPE svg PUBLIC "-//W3C//DTD SVG 1.1//EN" "http://www.w3.org/Graphics/SVG/1.1/DTD/svg11.dtd">
<svg version="1.1" xmlns="http://www.w3.org/2000/svg" xmlns:xlink="http://www.w3.org/1999/xlink" width="25" height="25" viewBox="0 0 25 25">
<path d="M12.5 0c-6.9 0-12.5 5.6-12.5 12.5s5.6 12.5 12.5 12.5 12.5-5.6 12.5-12.5-5.6-12.5-12.5-12.5zM12.5 23.75c-6.225 0-11.25-5.050-11.25-11.25 0-6.225 5.025-11.25 11.25-11.25s11.25 5.025 11.25 11.25c0 6.2-5.050 11.25-11.25 11.25z"></path>
<path d="M15.050 1.55v0 0z"></path>
<path d="M20.25 20.65v0 0z"></path>
<path d="M4.475 20.375v0 0z"></path>
<path d="M23.35 15.45v0 0z"></path>
<path d="M23.525 10.325v0 0z"></path>
<path d="M23.4 9.75v0 0z"></path>
<path d="M23.5 14.9v0c0 0 0 0 0 0s0 0 0 0z"></path>
<path d="M4.35 4.75v0 0z"></path>
<path d="M14.675 23.525v0 0z"></path>
<path d="M10.1 1.5c0 0 0 0 0 0s0 0 0 0v0z"></path>
<path d="M8.050 12.325c-0.55 0-0.975 0.45-0.975 0.975l0.975 1.5 0.975-1.5c0-0.55-0.45-0.975-0.975-0.975zM8.050 13.675c-0.25 0-0.45-0.2-0.45-0.45s0.2-0.45 0.45-0.45c0.25 0 0.45 0.2 0.45 0.45s-0.2 0.45-0.45 0.45z"></path>
<path d="M13.525 1.3c0.15 0.025 0.275 0.025 0.425 0.050-0.15-0.025-0.275-0.050-0.425-0.050z"></path>
<path d="M13.025 1.275c0.1 0 0.225 0.025 0.325 0.025-0.1-0.025-0.225-0.025-0.325-0.025z"></path>
<path d="M11.3 1.325c0.175-0.025 0.35-0.025 0.525-0.050-0.175 0-0.35 0.025-0.525 0.050z"></path>
<path d="M10.1 1.5c0.375-0.075 0.75-0.15 1.15-0.175-0.375 0.050-0.775 0.1-1.15 0.175z"></path>
<path d="M11.9 1.275c0.2-0.025 0.4-0.025 0.6-0.025-0.2 0-0.4 0-0.6 0.025z"></path>
<path d="M23.35 15.45c0.050-0.175 0.1-0.375 0.125-0.55-0.025 0.175-0.075 0.375-0.125 0.55z"></path>
<path d="M15.050 1.55c-0.35-0.075-0.7-0.15-1.050-0.2 0.15 0.025 0.3 0.050 0.475 0.075 0.2 0.025 0.4 0.075 0.575 0.125z"></path>
<path d="M23.4 9.75c0.050 0.2 0.1 0.375 0.125 0.575-0.025-0.2-0.075-0.4-0.125-0.575z"></path>
<path d="M8.4 17.725l4.75 4.75c0.525-0.025 1.050-0.1 1.55-0.225l-5.4-5.425-0.9 0.9z"></path>
<path d="M8.125 7.225l-2.225-2.225c-0.325 0.275-0.6 0.575-0.875 0.875l2.225 2.225 0.875-0.875z"></path>
<path d="M17.125 17.25l-0.875-0.9 0.5-0.5-7.75-7.75-0.875 0.9 3.625 3.625 0.45-0.45 0.875 0.875-0.45 0.45 6.5 6.5c0.325-0.275 0.6-0.575 0.875-0.875l-2.375-2.375-0.5 0.5z"></path>
<path d="M12.275 3.075l-0.55-0.55c-0.525 0.050-1.025 0.125-1.525 0.225l1.2 1.2 0.875-0.875z"></path>
<path d="M12.262 4.855l0.884-0.884 7.744 7.743-0.884 0.884-7.744-7.743z"></path>
<path d="M21.775 12.6l-0.875 0.875 1.325 1.325c0.125-0.5 0.2-1 0.225-1.525l-0.675-0.675z"></path>
<path d="M8 17.3l0.875-0.875 0.4 0.4 3.35-3.325-0.875-0.875-6.625 6.625c0.275 0.3 0.575 0.6 0.9 0.875l2.4-2.4-0.425-0.425z"></path>
<path d="M7.998 17.302l0.884-0.884 0.406 0.406-0.884 0.884-0.406-0.406z"></path>
<path d="M11.755 12.62l0.442-0.442 0.884 0.884-0.442 0.442-0.884-0.884z"></path>
<path d="M16.76 15.858l3.271-3.27 0.884 0.884-3.271 3.27-0.884-0.884z"></path>
<path d="M21.775 12.6l0.7-0.7c-0.025-0.525-0.1-1.050-0.225-1.55l-1.375 1.375 0.9 0.875z"></path>
<path d="M17.125 17.25l-0.875-0.9 0.525-0.525 0.85 0.925z"></path>
<path d="M20.021 12.599l0.884-0.884 0.884 0.884-0.884 0.884-0.884-0.884z"></path>
<path d="M3.175 12.175c0.25-0.25 0.65-0.25 0.875 0s0.25 0.65 0 0.875c-0.025 0.025-0.075 0.050-0.1 0.075v0l4.175-4.125-0.875-0.875-4.075 4.050z"></path>
<path d="M3.1 12.275v0c0.025-0.025 0.050-0.050 0.1-0.1l-0.1 0.1z"></path>
<path d="M8.136 7.233l3.27-3.27 0.884 0.884-3.27 3.27-0.884-0.884z"></path>
<path d="M13.15 3.975l1.275-1.275c-0.525-0.1-1.050-0.15-1.575-0.175l-0.575 0.575 0.875 0.875z"></path>
<path d="M7.244 8.123l0.884-0.884 0.884 0.884-0.884 0.884-0.884-0.884z"></path>
<path d="M11.396 3.974l0.884-0.884 0.884 0.884-0.884 0.884-0.884-0.884z"></path>
<path d="M3.175 13.050c0.225 0.225 0.55 0.25 0.775 0.075l-0.875-0.875c-0.125 0.275-0.1 0.6 0.1 0.8z"></path>
<path d="M4.075 12.175c-0.25-0.25-0.65-0.25-0.875 0-0.025 0.025-0.050 0.075-0.075 0.1l0.875 0.875c0.025-0.025 0.075-0.050 0.1-0.075 0.2-0.25 0.2-0.65-0.025-0.9z"></path>
</svg>
