<?xml version="1.0" encoding="utf-8"?>
<!-- Generated by IcoMoon.io -->
<!DOCTYPE svg PUBLIC "-//W3C//DTD SVG 1.1//EN" "http://www.w3.org/Graphics/SVG/1.1/DTD/svg11.dtd">
<svg version="1.1" xmlns="http://www.w3.org/2000/svg" xmlns:xlink="http://www.w3.org/1999/xlink" width="25" height="25" viewBox="0 0 25 25">
<path d="M23.446 0h-21.875c-0.004 0-0.008 0-0.012 0-0.859 0-1.556 0.695-1.559 1.553v12.5c0 0.002 0 0.005 0 0.009 0 0.863 0.699 1.563 1.563 1.563 0.003 0 0.006 0 0.009 0h2.589v-5.214h16.679v5.214h2.607c0.859-0.003 1.554-0.7 1.554-1.559 0-0.005 0-0.009 0-0.013v-12.499c-0.001-0.858-0.696-1.552-1.553-1.554zM20.321 6.25c-0.002 0-0.005 0-0.009 0-0.863 0-1.563-0.699-1.563-1.563s0.699-1.563 1.563-1.563c0.86 0 1.557 0.695 1.563 1.553 0 0.003 0 0.006 0 0.009 0 0.86-0.695 1.558-1.553 1.563zM6.25 12.5h12.5v11.982c0 0.286-0.232 0.518-0.518 0.518h-11.464c-0.286 0-0.518-0.232-0.518-0.518v-11.982z"></path>
</svg>
