<?xml version="1.0" encoding="utf-8"?>
<!-- Generated by IcoMoon.io -->
<!DOCTYPE svg PUBLIC "-//W3C//DTD SVG 1.1//EN" "http://www.w3.org/Graphics/SVG/1.1/DTD/svg11.dtd">
<svg version="1.1" xmlns="http://www.w3.org/2000/svg" xmlns:xlink="http://www.w3.org/1999/xlink" width="25" height="25" viewBox="0 0 25 25">
<path d="M25 23.905c0-0.183-0.183-0.548-0.365-0.73l-5.474-5.474c1.095-1.277 1.825-2.92 2.19-4.562v0c0.183-0.73 0.183-1.642 0.183-2.373 0-6.022-4.927-10.766-10.949-10.766-2.738 0-5.474 1.095-7.482 3.102s-3.102 4.927-3.102 7.664c0 6.022 4.927 10.766 10.766 10.766 0 0 0 0 0 0 2.555 0 4.927-0.912 6.934-2.555l5.474 5.474c0.183 0.183 0.365 0.365 0.73 0.365 0.183 0 0.548-0.183 0.73-0.365 0.183 0 0.365-0.183 0.365-0.548zM17.153 4.562c1.642 1.642 2.555 4.015 2.555 6.205 0 0.73 0 1.277-0.183 2.007-0.365 1.642-1.277 3.102-2.373 4.38v0c-1.642 1.642-3.832 2.555-6.205 2.555s-4.562-0.913-6.205-2.555c-1.825-1.642-2.737-4.015-2.737-6.387 0-4.927 3.832-8.759 8.759-8.941 0 0 0.183 0 0.183 0 2.19 0.183 4.562 1.095 6.205 2.737v0z"></path>
</svg>
