<?xml version="1.0" encoding="utf-8"?>
<!-- Generated by IcoMoon.io -->
<!DOCTYPE svg PUBLIC "-//W3C//DTD SVG 1.1//EN" "http://www.w3.org/Graphics/SVG/1.1/DTD/svg11.dtd">
<svg version="1.1" xmlns="http://www.w3.org/2000/svg" xmlns:xlink="http://www.w3.org/1999/xlink" width="25" height="25" viewBox="0 0 25 25">
<path d="M0.070 0v6.945h18.889v-6.945h-18.889zM6.666 3.959h-3.334v-1.041h3.264l0.070 1.041zM14.791 4.236c-0.416 0-0.764-0.347-0.764-0.764s0.347-0.764 0.764-0.764c0.416 0 0.764 0.347 0.764 0.764 0 0 0 0 0 0 0.070 0.416-0.347 0.764-0.764 0.764v0zM18.75 14.653h-0.209c-0.625 0-1.111 0.416-1.111 1.041 0 0 0 0 0 0v1.389h2.361v-1.389c0-0.555-0.416-1.041-1.041-1.041 0 0 0 0 0 0v0zM18.611 12.014c-3.403 0.139-6.041 2.986-5.972 6.389 0.139 3.403 2.986 6.041 6.389 5.972 3.334-0.139 5.972-2.847 5.972-6.18-0.070-3.472-2.916-6.18-6.389-6.18v0zM22.014 21.875h-6.805v-4.791h1.111v-1.389c0-1.18 0.972-2.153 2.153-2.153h0.278c1.18 0 2.153 0.903 2.153 2.084 0 0 0 0 0 0v1.389h1.111v4.861zM11.111 18.264v-0.209h-11.111v6.945h15.764c-2.778-1.111-4.584-3.75-4.653-6.736v0zM6.597 22.014h-3.264v-1.041h3.264v1.041zM18.611 10.972h0.347v-2.014h-18.889v6.945h11.528c1.041-2.986 3.889-4.93 7.014-4.93v0zM3.334 12.986v-1.041h3.264v1.041h-3.264z"></path>
</svg>
