<?xml version="1.0" encoding="utf-8"?>
<!-- Generated by IcoMoon.io -->
<!DOCTYPE svg PUBLIC "-//W3C//DTD SVG 1.1//EN" "http://www.w3.org/Graphics/SVG/1.1/DTD/svg11.dtd">
<svg version="1.1" xmlns="http://www.w3.org/2000/svg" xmlns:xlink="http://www.w3.org/1999/xlink" width="19" height="25" viewBox="0 0 19 25">
<path d="M14.866 17.188c-0.827 0.001-1.593 0.258-2.224 0.695l-5.070-4.009c0.16-0.408 0.254-0.88 0.254-1.373-0.002-0.513-0.1-1.003-0.277-1.452l5.015-3.991c0.637 0.469 1.437 0.749 2.302 0.749 2.16 0 3.912-1.752 3.912-3.912s-1.752-3.912-3.912-3.912c-2.16 0-3.912 1.752-3.912 3.912 0 0.001 0 0.002 0 0.002 0 0.003 0 0.006 0 0.009 0 0.452 0.077 0.885 0.22 1.287l-5.091 4.042c-0.611-0.413-1.364-0.659-2.175-0.659-2.164 0-3.918 1.754-3.918 3.918s1.754 3.918 3.918 3.918c0.828 0 1.596-0.257 2.229-0.695l5.068 4.009c-0.156 0.406-0.248 0.877-0.248 1.369 0 2.159 1.751 3.909 3.909 3.909s3.909-1.751 3.909-3.909c0-2.159-1.751-3.909-3.909-3.909-0.001 0-0.001 0-0.002 0z"></path>
</svg>
