<?xml version="1.0" encoding="utf-8"?>
<!-- Generated by IcoMoon.io -->
<!DOCTYPE svg PUBLIC "-//W3C//DTD SVG 1.1//EN" "http://www.w3.org/Graphics/SVG/1.1/DTD/svg11.dtd">
<svg version="1.1" xmlns="http://www.w3.org/2000/svg" xmlns:xlink="http://www.w3.org/1999/xlink" width="25" height="25" viewBox="0 0 25 25">
<path d="M10.477 16.041v0.506c-0.148 0.744-0.834 1.28-1.607 1.309-0.179 0-0.327-0.030-0.506-0.089-0.148 0.059-0.327 0.089-0.506 0.089-0.268 0-0.536-0.059-0.773-0.209-0.238 0.148-0.506 0.209-0.773 0.209-0.179 0-0.327-0.030-0.506-0.089-0.119 0.059-0.268 0.089-0.446 0.089-0.298 0-0.566-0.089-0.804-0.238-0.387 0.238-0.863 0.298-1.28 0.148-0.179 0.059-0.357 0.089-0.506 0.089-0.923 0-1.637-0.744-1.637-1.666h-0.179c-0.209 0-0.952-0.119-0.952-0.863v-8.184h23.304l1.696 1.666v7.262h-14.523zM3.72 15.357c-0.446 0-0.834 0.357-0.834 0.804s0.357 0.834 0.804 0.834 0.834-0.357 0.834-0.804c0 0 0 0 0 0 0.030-0.446-0.357-0.834-0.804-0.834 0 0 0 0 0 0zM6.339 15.357c-0.446 0-0.834 0.357-0.834 0.804s0.357 0.834 0.804 0.834 0.834-0.327 0.834-0.773c0 0 0 0 0 0 0.030-0.477-0.357-0.863-0.804-0.863 0 0 0 0 0 0v0zM8.898 15.357c-0.446 0-0.834 0.357-0.834 0.804s0.357 0.834 0.804 0.834 0.834-0.357 0.834-0.804c0 0 0 0 0 0 0-0.446-0.357-0.834-0.804-0.834 0 0 0 0 0 0v0z"></path>
</svg>
