<?xml version="1.0" encoding="utf-8"?>
<!-- Generated by IcoMoon.io -->
<!DOCTYPE svg PUBLIC "-//W3C//DTD SVG 1.1//EN" "http://www.w3.org/Graphics/SVG/1.1/DTD/svg11.dtd">
<svg version="1.1" xmlns="http://www.w3.org/2000/svg" xmlns:xlink="http://www.w3.org/1999/xlink" width="25" height="25" viewBox="0 0 25 25">
<path d="M12.5 0c-6.892 0-12.5 5.608-12.5 12.5s5.608 12.5 12.5 12.5c6.892 0 12.5-5.608 12.5-12.5s-5.607-12.5-12.5-12.5zM18.076 9.639c0.006 0.124 0.009 0.249 0.009 0.374 0 3.802-2.893 8.184-8.186 8.184-1.625 0-3.137-0.475-4.41-1.291 0.225 0.027 0.454 0.040 0.686 0.040 1.348 0 2.589-0.46 3.573-1.232-1.259-0.023-2.322-0.855-2.688-1.998 0.175 0.033 0.356 0.052 0.541 0.052 0.262 0 0.517-0.034 0.758-0.1-1.316-0.264-2.308-1.426-2.308-2.821 0-0.012 0-0.025 0.001-0.036 0.388 0.215 0.831 0.345 1.303 0.359-0.771-0.515-1.279-1.396-1.279-2.394 0-0.528 0.141-1.022 0.389-1.447 1.418 1.741 3.539 2.886 5.93 3.007-0.049-0.211-0.074-0.43-0.074-0.656 0-1.589 1.288-2.877 2.877-2.877 0.828 0 1.574 0.349 2.1 0.908 0.656-0.129 1.27-0.368 1.828-0.698-0.217 0.672-0.671 1.236-1.267 1.592 0.583-0.069 1.138-0.224 1.652-0.453-0.384 0.576-0.872 1.083-1.434 1.487z"></path>
</svg>
