<?xml version="1.0" encoding="utf-8"?>
<!-- Generated by IcoMoon.io -->
<!DOCTYPE svg PUBLIC "-//W3C//DTD SVG 1.1//EN" "http://www.w3.org/Graphics/SVG/1.1/DTD/svg11.dtd">
<svg version="1.1" xmlns="http://www.w3.org/2000/svg" xmlns:xlink="http://www.w3.org/1999/xlink" width="25" height="25" viewBox="0 0 25 25">
<path d="M10.222 15.24c1.876-0.973 3.735-1.936 5.611-2.909-1.882-0.982-3.741-1.951-5.611-2.928 0 1.952 0 3.885 0 5.837z"></path>
<path d="M12.5 0c-6.903 0-12.5 5.596-12.5 12.5s5.597 12.5 12.5 12.5 12.5-5.596 12.5-12.5-5.597-12.5-12.5-12.5zM21.017 16.672c-0.216 0.939-0.984 1.631-1.908 1.734-2.189 0.245-4.403 0.246-6.609 0.245-2.206 0.001-4.421 0-6.61-0.245-0.924-0.103-1.691-0.795-1.907-1.734-0.308-1.337-0.308-2.796-0.308-4.172s0.004-2.836 0.311-4.172c0.216-0.939 0.983-1.631 1.907-1.735 2.189-0.245 4.404-0.246 6.61-0.245 2.205-0.001 4.421 0 6.609 0.245 0.925 0.103 1.692 0.796 1.908 1.735 0.308 1.337 0.305 2.796 0.305 4.172s-0.001 2.836-0.308 4.172z"></path>
</svg>
