<?xml version="1.0" encoding="utf-8"?>
<!-- Generator: Adobe Illustrator 22.0.1, SVG Export Plug-In . SVG Version: 6.00 Build 0)  -->
<svg version="1.1" id="Layer_1" xmlns="http://www.w3.org/2000/svg" xmlns:xlink="http://www.w3.org/1999/xlink" x="0px" y="0px"
	 viewBox="0 0 223 108.7" style="enable-background:new 0 0 223 108.7;" xml:space="preserve">
<style type="text/css">
	.st0{fill:#3DAE2B;}
	.st1{fill:#00ABC8;}
</style>
<g>
	<path class="st0" d="M176.6,85.2l13.5,6.4c-4,7.9-11.9,16.4-26.6,16.4c-17.9,0-31.7-11.6-33-29l-8,28.3h-16.7l-9.3-38.7l-9.2,38.7
		H70.7L57.5,60.6l-11.3,5.8c-2.3-4-6.9-7.8-12.9-7.8c-10,0-17.1,7.7-17.1,17.7S23.3,94,33.3,94c4.5,0,9.1-1.8,11.3-3.6v-4.7H30.8
		V71.8h29.5v24.3c-6.6,7.3-15.5,11.9-27,11.9C15.1,108,0.2,95.8,0.2,76.4s14.9-31.6,33.1-31.6c10.3,0,17.6,4.1,22.3,9.5l-2.4-8.8
		h17.7l9.3,41.1l10.5-41.1h12.1l10.5,41.1l9.1-41.1H140l-3.2,11.4c5.9-7.6,15.5-12,26.6-12c14.7,0,22.6,8.4,26.6,16.4l-13.5,6.4
		c-2-4.8-7.3-8.9-13.1-8.9c-10,0-17.1,7.7-17.1,17.7s7,17.7,17.1,17.7C169.3,94,174.6,90,176.6,85.2"/>
</g>
<circle class="st1" cx="200.1" cy="4" r="3.7"/>
<circle class="st1" cx="206.2" cy="10.1" r="3.7"/>
<circle class="st1" cx="200.1" cy="16.3" r="3.7"/>
<circle class="st1" cx="193.9" cy="10.1" r="3.7"/>
<circle class="st0" cx="212.4" cy="16.3" r="3.7"/>
<circle class="st0" cx="218.6" cy="22.5" r="3.7"/>
<circle class="st0" cx="212.4" cy="28.6" r="3.7"/>
<circle class="st0" cx="206.2" cy="22.5" r="3.7"/>
<circle class="st1" cx="200.1" cy="28.6" r="3.7"/>
<circle class="st1" cx="206.2" cy="34.8" r="3.7"/>
<circle class="st1" cx="200.1" cy="41" r="3.7"/>
<circle class="st1" cx="193.9" cy="34.8" r="3.7"/>
</svg>
