<?xml version="1.0" encoding="utf-8"?>
<!-- Generator: Adobe Illustrator 24.0.1, SVG Export Plug-In . SVG Version: 6.00 Build 0)  -->
<svg version="1.1" id="Layer_1" xmlns="http://www.w3.org/2000/svg" xmlns:xlink="http://www.w3.org/1999/xlink" x="0px" y="0px"
	 viewBox="0 0 310.15 40.57" style="enable-background:new 0 0 310.15 40.57;" xml:space="preserve">
<style type="text/css">
	.st0{fill:#387B2C;}
	.st1{clip-path:url(#SVGID_2_);}
	.st2{fill:#0069AA;}
	.st3{fill:#035F9D;}
</style>
<g>
	<g>
		<polygon class="st0" points="46.64,30.51 52.3,30.51 55.2,14.52 55.74,14.52 58.05,30.51 67.43,30.51 71.82,9.77 66.3,9.77 
			63.4,25.76 63.04,25.76 60.45,9.72 51.08,9.72 		"/>
		<path class="st0" d="M100,9.76l-1.74,8.51l-0.3-0.17c-0.46-2.61-4.39-2.03-4.39-2.03c-2.92,0.21-4.45,2.3-4.89,3.02
			c-0.09,0.15-0.15,0.3-0.19,0.47l-1.53,6.37c-0.99,3.75,2.62,4.54,2.62,4.54c4.97,0.88,6.12-2.2,6.12-2.2l0.41-0.23l-0.45,2.44
			h4.62l4.39-20.64L100,9.76z M96.59,25.27c-0.36,1.86-1.74,1.81-1.74,1.81h-2.36c-1.15-0.14-0.78-1.81-0.78-1.81l0.72-3.37
			c0.18-0.86,0.71-1.63,1.5-2.01c1.16-0.56,2.03-0.3,2.66-0.16c0.86,0.17,0.86,1.03,0.86,1.03S96.97,23.43,96.59,25.27z"/>
		<path class="st0" d="M122.55,30.52l-1.86-20.7h-8.38l-10.55,20.6l5.8,0.06l1.41-3.9h7.87v3.94H122.55z M111.15,22.95l4.78-9.62
			l0.55,9.62H111.15z"/>
		<polygon class="st0" points="126.5,15.97 131.34,15.97 128.31,30.42 123.42,30.42 		"/>
		<polygon class="st0" points="127.22,13.3 131.89,13.21 132.79,9.72 127.95,9.72 		"/>
		<path class="st0" d="M133.93,16.06c0,0,4.53-0.18,4.53,0s-0.32,1.81-0.32,1.81s3.68-3.16,5.99-1.52c0.63,0.44,0.95,1.2,0.98,1.97
			c0.04,0.96-0.02,2.52-0.58,4.12h-4.21c0,0,1.31-3.03-0.5-3.13c0,0-1.95-0.77-2.49,2.72l-1.72,8.52h-4.85L133.93,16.06z"/>
		<polygon class="st0" points="154.17,30.47 158.75,9.63 173.47,9.63 172.47,14.25 163.14,14.25 162.42,18.42 170.84,18.42 
			169.89,22.86 161.06,22.86 159.88,30.47 		"/>
		<polygon class="st0" points="204.39,16.09 209.24,16.09 206.2,30.54 201.31,30.54 		"/>
		<polygon class="st0" points="205.12,13.42 209.78,13.32 210.69,9.84 205.84,9.84 		"/>
		<path class="st0" d="M221.1,16.03l-0.01,3.1l-0.15-0.34c-1.52-5.07-7.31-1.99-7.31-1.99c-3.03,1.35-3.94,8.74-3.94,8.74
			c-0.81,4.16,2.13,4.75,2.13,4.75c4.86,1.32,6.57-1.89,6.57-1.89l0.14-0.21l0.22,0.38c-0.73,4.92-1.99,4.8-1.99,4.8h-2.61
			c-1.2-0.14-0.88-1.52-0.88-1.52h-4.61c-1.19,5.07,2.9,5.02,2.9,5.02h4.25c5.62,0.04,6.84-4.8,6.84-4.8l3.35-16.03H221.1z
			 M219.06,25.71c-0.46,1.45-2.08,1.61-2.33,1.54c-0.44-0.06-0.17-0.03-1.2-0.17c-1.36-0.19-0.99-1.72-0.99-1.72l0.67-3.52
			c0.25-1.31,1.41-2.3,2.75-2.23c0.36,0.02,0.6,0.08,0.6,0.08c1.18,0.06,1.42,0.83,1.42,0.83C220.33,22.5,219.06,25.71,219.06,25.71
			z"/>
		<path class="st0" d="M230.05,9.77l4.71,0.05l-1.86,8.97l0.27,0.14c0,0,1.09-3.13,4.39-2.94c0,0,5.12-0.59,4.21,4.35l-2.04,10.24
			h-4.85l1.9-8.61c0,0,0.63-2.4-0.91-2.36c0,0-2.36-0.72-3.44,1.68l-1.99,9.2h-4.8L230.05,9.77z"/>
		<path class="st0" d="M247.26,12.94h4.94l-0.72,2.94l5.53,0.23l-0.82,3.35h-5.57l-1.4,6.66c0,0,0.32,1.86,2.08,0.54
			c0,0,0.54-0.09,0.86-2.31h3.62c0,0-0.72,5.53-3.76,5.84c0,0-2.72,0.72-5.57,0c0,0-2.04-0.32-2.13-2.36l1.77-8.33h-1.86l0.72-3.44
			h1.81L247.26,12.94z"/>
		<path class="st0" d="M287.03,15.75c0,0,0.68-2.54,0-3.94c0,0-0.36-1.94-3.94-1.86l-12.23-0.19l-4.29,21.02l13.35-0.26
			c0,0,4.81-0.55,5.71-6.48c0,0,0.81-3.86-2.71-3.9v-0.28C282.91,19.86,286.31,18.78,287.03,15.75z M280.46,24.08
			c-0.29,2.13-1.94,2.03-1.94,2.03h-5.45l0.81-4.1c0,0,4.84-0.1,5.74-0.03c0.78,0.04,0.84,0.38,0.84,0.46
			C280.51,22.4,280.73,22.13,280.46,24.08z M281.55,16.15c-0.28,1.99-1.81,1.9-1.81,1.9h-5.12l0.77-3.84c0,0,4.52-0.1,5.38-0.03
			c0.86,0.06,0.78,0.45,0.78,0.45S281.83,14.17,281.55,16.15z"/>
		<polygon class="st0" points="288.93,9.77 294.46,9.77 295.59,25.8 303.79,9.68 309.36,9.68 299.03,30.56 290.29,30.56 		"/>
		<path class="st0" d="M174.72,15.97c0,0,4.53-0.18,4.53,0s-0.32,1.81-0.32,1.81s3.68-3.16,5.99-1.52c0.63,0.44,0.95,1.2,0.98,1.97
			c0.04,0.96-0.02,2.52-0.58,4.12h-4.21c0,0,1.31-3.03-0.5-3.13c0,0-1.95-0.77-2.49,2.72l-1.72,8.52h-4.85L174.72,15.97z"/>
		<g>
			<path class="st0" d="M200.95,24.11c0,0,1.17-4.26,0.26-5.84c0,0-0.51-1.68-3.82-1.95l-4.87,0.03c-0.8,0.04-1.61,0.34-2.29,0.76
				c-0.87,0.54-1.91,1.49-2.43,3.06c0,0-1.71,4.22-1.22,7.93c0,0,0.28,2.39,4.75,2.54c0,0,3.99,0.13,5.48-0.45
				c0,0,2.9-0.99,3.62-4.26h-4.67c0,0,0.19,1.09-0.83,1.45c0,0-2.18,0.75-3.33-0.19c0,0-0.98-0.34-0.46-2.82
				c0.03-0.14,0.16-0.25,0.31-0.25H200.95z M191.74,21.53c0.02-1.28,1.16-2.23,2.43-2.34c1.31-0.11,2.36,0.42,2.36,0.42
				c0.96,0.63,0.51,2.04,0.51,2.04l-5.31-0.09C191.74,21.56,191.74,21.54,191.74,21.53z"/>
			<path class="st0" d="M190.64,16.88c0,0,3.89-2.04,8.94-0.06l-1.79,0.8l-6.76,0.18L190.64,16.88z"/>
		</g>
		<g>
			<path class="st0" d="M85.83,24.17c0,0,1.17-4.26,0.26-5.84c0,0-0.51-1.68-3.82-1.95l-4.87,0.03c-0.8,0.04-1.61,0.34-2.29,0.76
				c-0.87,0.54-1.91,1.49-2.43,3.06c0,0-1.71,4.22-1.22,7.93c0,0,0.28,2.39,4.75,2.54c0,0,3.99,0.13,5.48-0.45
				c0,0,2.9-0.99,3.62-4.26h-4.67c0,0,0.19,1.09-0.83,1.45c0,0-2.18,0.75-3.33-0.19c0,0-0.98-0.34-0.46-2.82
				c0.03-0.14,0.16-0.25,0.31-0.25H85.83z M76.63,21.59c0.02-1.28,1.16-2.23,2.43-2.34c1.31-0.11,2.36,0.42,2.36,0.42
				c0.96,0.63,0.51,2.04,0.51,2.04l-5.31-0.09C76.63,21.62,76.63,21.6,76.63,21.59z"/>
			<path class="st0" d="M75.53,16.94c0,0,3.89-2.04,8.94-0.06l-1.79,0.8l-6.76,0.18L75.53,16.94z"/>
		</g>
	</g>
	<g>
		<g>
			<defs>
				<circle id="SVGID_1_" cx="22.92" cy="20.32" r="17.47"/>
			</defs>
			<clipPath id="SVGID_2_">
				<use xlink:href="#SVGID_1_"  style="overflow:visible;"/>
			</clipPath>
			<g class="st1">
				<g>
					<path class="st2" d="M30.56,6.7c0,0.08-0.14,0.11-0.14,0.19c-0.12,0.01-0.24-0.02-0.33-0.08c-0.07-0.04-0.12-0.1-0.2-0.13
						c-0.1-0.03-0.22,0-0.33,0.01c-0.09,0.01-0.19,0-0.27-0.03c-0.02-0.01-0.03-0.01-0.04-0.02c-0.04-0.03,0-0.09,0.04-0.12
						c0.06-0.05,0.14-0.08,0.21-0.13c0.1-0.08,0.16-0.18,0.22-0.28c0.05-0.08,0.1-0.15,0.16-0.22c0.03-0.03,0.06-0.06,0.1-0.09
						c0.05-0.03,0.11-0.04,0.15-0.06c0.02-0.01,0.03-0.02,0.05-0.04l0.21,0c0,0.01-0.01,0.02-0.01,0.03
						c-0.04,0.08-0.12,0.14-0.19,0.2c-0.04,0.03-0.08,0.06-0.09,0.11c-0.02,0.05,0.01,0.1,0.06,0.13c0.06,0.01,0.12,0,0.17-0.02
						c0.02-0.01,0.04-0.02,0.06-0.02c0.05-0.01,0.11,0.02,0.13,0.06c0.06,0.09,0.03,0.2-0.03,0.28c-0.01,0.02-0.03,0.04-0.03,0.06
						C30.45,6.59,30.56,6.63,30.56,6.7z"/>
					<g>
						<path class="st2" d="M30.36,5.5c0.06,0.06,0.07,0.14,0.04,0.21l-0.22,0c-0.01-0.02-0.02-0.03-0.04-0.04
							c-0.13,0.09-0.28,0.14-0.46,0.18C29.35,5.91,29.03,6,28.71,6.11c-0.29,0.1-0.57,0.21-0.8,0.38c0.21,0.29,0.43,0.57,0.63,0.87
							c-0.25-0.03-0.49,0-0.74,0.07c-0.07,0.02-0.66,0.32-0.68,0.31c-0.17-0.09-0.38-0.14-0.59-0.12c-0.07,0.84-1.59,1.13-2.03,1.91
							c0.09,0.01,0.15,0.13,0.12,0.2c-0.02,0.07-0.1,0.12-0.17,0.17c-0.18,0.13-0.36,0.25-0.55,0.37c-0.21,0.12-0.44,0.23-0.59,0.4
							c-0.28,0.31-0.22,0.72-0.2,1.1c0.01,0.21-0.01,0.44-0.21,0.57c-0.09,0.06-0.21,0.09-0.32,0.09c-0.03-0.32-0.19-0.64-0.45-0.89
							c-0.17-0.16-0.41-0.39-0.67-0.34c-0.03,0-0.06,0.01-0.07,0.03c-0.02,0.02-0.03,0.04-0.04,0.06c-0.06,0.09-0.22,0.13-0.35,0.11
							c-0.13-0.02-0.25-0.08-0.37-0.12c-0.23-0.08-0.5-0.1-0.74-0.06c-0.04,0.05-0.1,0.1-0.16,0.14c-0.62,0.39-0.74,1.17-0.8,1.78
							c-0.02,0.22-0.03,0.45,0.06,0.67c0.09,0.21,0.29,0.41,0.57,0.47c0.14,0.03,0.29,0.03,0.43-0.01c0.39-0.11,0.59-0.48,0.52-0.79
							c0.26,0.01,0.52,0.02,0.78,0.03c-0.26,0.55-0.55,1.09-0.88,1.62c-0.03,0.05-0.07,0.1-0.11,0.14c0,0-0.01,0-0.01,0.01
							c0,0,0,0,0,0c-0.03,0.03-0.08,0.06-0.13,0.08c-0.24,0.07-0.45-0.13-0.64-0.27c-0.3-0.23-0.72-0.32-1.13-0.4
							c-0.41-0.07-0.84-0.13-1.19-0.31c-0.36-0.17-0.63-0.49-0.55-0.81c0.02-0.08,0.06-0.15,0.07-0.23
							c0.01-0.09-0.02-0.18-0.05-0.27c-0.11-0.34-0.23-0.68-0.34-1.03c-0.02-0.07-0.05-0.15-0.1-0.21
							c-0.06-0.08-0.16-0.14-0.23-0.22c-0.18-0.19-0.18-0.45-0.17-0.69c-0.09-0.01-0.19-0.02-0.28-0.04
							c-0.07,0.19,0.13,0.38,0.21,0.57c0.12,0.27,0.02,0.56,0.04,0.85c0.02,0.27,0.15,0.54,0.38,0.75
							c-0.51-0.27-0.91-0.65-1.16-1.08c-0.04-0.07-0.08-0.15-0.04-0.23c0.04-0.08,0.15-0.12,0.18-0.2c0.04-0.1-0.07-0.2-0.14-0.29
							c-0.26-0.31-0.15-0.72-0.02-1.08c-0.2-0.07-0.41-0.14-0.55-0.27c-0.14-0.13-0.19-0.34-0.05-0.47c0.03-0.03,0.08-0.06,0.1-0.1
							c0.03-0.05,0.01-0.12-0.01-0.18C14.47,9.09,14.46,9,14.46,8.91c0.02-0.32,0.22-0.63,0.41-0.92c0.01-0.01,0.02-0.03,0.03-0.04
							c0.22-0.33,0.45-0.67,0.67-1c0.12-0.18,0.24-0.38,0.18-0.57c0.38-0.65,0.81-1.28,1.26-1.9c0.69-0.93,1.47-1.83,2.32-2.68
							c0.23-0.23,0.46-0.45,0.7-0.68c0.07,0,0.14,0.01,0.22,0.01c0.4,0.41,1.14,0.2,1.76,0.36c0.01,0.17,0.02,0.33,0.04,0.49
							c0.49-0.25,1.09-0.36,1.68-0.32C24.31,1.72,25,1.9,25.44,1.59c0.3-0.22,0.54-0.68,0.92-0.54c0.1,0.23,0.2,0.47,0.31,0.7
							c0.11,0.06,0.26,0.08,0.39,0.05c0.12-0.24,0.46-0.4,0.78-0.38c-0.01,0.1-0.02,0.19-0.02,0.29C27,2.04,26.2,2.48,25.37,2.8
							c-0.44,0.17-0.91,0.24-1.21,0.54c-0.3,0.3-0.39,0.76-0.08,1.05c0.05-0.15,1.13,0.21,1.31,0.29c0.4,0.18,0.2,0.37,0.23,0.74
							c-0.05,0.05-0.05,0.1,0.03,0.16c-0.01-0.06-0.02-0.11-0.03-0.16c0.1-0.11,0.4-0.23,0.43-0.41c0.04-0.26,0.53-0.22,0.6-0.48
							c0.05-0.18,0.22-0.29,0.23-0.52c0.01-0.27,0.5-1.25,1.08-0.93c0.14,0.08,0.38,0.06,0.49,0.16c0.27,0.24,0.43,0.56,0.76,0.47
							c0.62-0.17,0.43,0.36,0.59,0.52c0.19,0.19,0.36,0.4,0.48,0.62c0.06,0.11,0.12,0.22,0.13,0.34c0.02,0.12-0.04,0.22-0.11,0.32
							c0,0,0.01,0,0.01,0.01c0.01,0.01,0.01,0.01,0.01,0.02C30.34,5.52,30.35,5.51,30.36,5.5z"/>
					</g>
					<g>
						<path class="st2" d="M25.65,5.58c-0.08-0.06-0.08-0.11-0.03-0.16C25.63,5.47,25.64,5.53,25.65,5.58z"/>
					</g>
					<g>
						<path class="st2" d="M23.5,7.15c-0.1-0.04-0.22-0.02-0.31,0.03c-0.09,0.05-0.15,0.13-0.21,0.2c-0.09,0.11-0.18,0.22-0.27,0.33
							c-0.07,0.09-0.15,0.19-0.12,0.29c0.02,0.1,0.21,0.18,0.3,0.11c0.07-0.04,0.12-0.1,0.17-0.16c0.03-0.04,0.06-0.09,0.08-0.14
							C23.26,7.6,23.38,7.37,23.5,7.15z"/>
					</g>
					<g>
						<path class="st2" d="M22.24,0.86c-0.2-0.07-0.41,0.09-0.62,0.14c-0.11,0.03-0.24,0.02-0.33-0.03
							c-0.09-0.06-0.11-0.17-0.03-0.24c0.09-0.07,0.25-0.05,0.37-0.07c0.16-0.03,0.26-0.15,0.39-0.22c0.28-0.15,0.66-0.08,0.98-0.01
							c0.13,0.03,0.25,0.06,0.38,0.08c0.01,0.05,0.02,0.1,0.03,0.15c0.19,0.09,0.43,0.18,0.61,0.08c0.03-0.02,0.06-0.04,0.1-0.05
							c0.07-0.02,0.15,0.05,0.13,0.1c-0.02-0.13,0.18-0.25,0.35-0.21c0.16,0.05,0.22,0.24,0.09,0.33c-0.03,0.03-0.08,0.04-0.1,0.08
							c-0.08,0.13,0.27,0.26,0.16,0.37c-0.11,0.03-0.22,0.07-0.28,0.14c-0.02,0.02-0.04,0.05-0.06,0.07
							c-0.07,0.06-0.19,0.05-0.28,0.03c-0.09-0.03-0.17-0.08-0.26-0.11C23.59,1.41,23.29,1.47,23,1.51
							c-0.28,0.04-0.63,0.03-0.79-0.15c-0.04-0.04-0.06-0.11-0.01-0.14c0.02-0.01,0.04-0.02,0.06-0.03
							C22.41,1.12,22.4,0.92,22.24,0.86z"/>
					</g>
					<g>
						<path class="st2" d="M25.58,0.28c0.04-0.07-0.06-0.13-0.15-0.15c-0.09-0.03-0.19-0.09-0.15-0.15
							c-0.12-0.01-0.24-0.02-0.36,0.01C24.86,0,24.8,0.04,24.76,0.09c-0.29-0.17-0.72-0.19-1.02-0.03
							c-0.03,0.02-0.07,0.05-0.04,0.08c0.24,0.09,0.5,0.15,0.76,0.21c0.08,0.02,0.16,0.04,0.25,0.05c0.07,0.01,0.14,0.01,0.22,0.01
							c0.19,0,0.37-0.03,0.55-0.08C25.52,0.32,25.56,0.31,25.58,0.28z"/>
					</g>
					<g>
						<path class="st2" d="M25.46,0.67c-0.02,0-0.05,0-0.07,0c-0.02,0.08-0.03,0.17,0.05,0.22c0.06,0.04,0.15,0.04,0.23,0.03
							c0.17-0.02,0.34-0.05,0.5-0.09c0.02-0.01,0.04-0.01,0.05-0.02c0.02-0.01,0.02-0.03,0.03-0.05c0.03-0.08,0.06-0.16,0.09-0.25
							c0.01-0.03,0.02-0.06,0-0.09c-0.03-0.04-0.09-0.04-0.14-0.04c-0.06,0-0.12,0-0.18-0.01c-0.16,0-0.33-0.01-0.45,0.07
							C25.49,0.5,25.44,0.59,25.46,0.67z"/>
					</g>
					<g>
						<path class="st2" d="M27.22,0.6c-0.01-0.05-0.01-0.1-0.02-0.15C27,0.49,26.79,0.36,26.59,0.4c-0.18,0.04-0.27,0.2-0.32,0.34
							c0.17,0.02,0.35-0.05,0.42-0.16c0.03-0.01,0.06,0,0.08,0C26.93,0.59,27.07,0.59,27.22,0.6z"/>
					</g>
					<g>
						<path class="st2" d="M28.01,0.49c-0.18-0.05-0.37,0.03-0.51,0.12c-0.18,0.12-0.32,0.35-0.16,0.49
							c0.06,0.06,0.16,0.09,0.26,0.11c0.27,0.06,0.56,0.05,0.83,0.1c0.27,0.05,0.55,0.17,0.65,0.37c0.02,0.05,0.04,0.1,0.02,0.15
							c-0.05,0.17-0.39,0.25-0.37,0.43c-0.23,0.04-0.47,0.04-0.71,0.03c-0.09,0.06-0.19,0.16-0.11,0.23
							c0.04,0.03,0.11,0.04,0.17,0.04c0.18,0,0.35,0.01,0.53,0.01c-0.06,0.09-0.01,0.2,0.08,0.27c0.09,0.07,0.21,0.12,0.32,0.16
							c0.14,0.05,0.27,0.1,0.41,0.14c0.02,0.01,0.04,0.02,0.07,0.01c0.08,0,0.1-0.1,0.06-0.15c-0.04-0.06-0.1-0.11-0.08-0.18
							c0.18,0.06,0.37,0.08,0.56,0.07c0.07-0.19,0.01-0.4-0.15-0.55c-0.03-0.02-0.05-0.05-0.07-0.08c-0.03-0.08,0.09-0.15,0.19-0.14
							c0.1,0.01,0.18,0.08,0.23,0.15c0.05,0.07,0.09,0.15,0.18,0.19c0.04,0.01,0.08,0.02,0.12,0.01c0.24-0.01,0.4-0.23,0.36-0.41
							c-0.04-0.18-0.23-0.33-0.45-0.41c-0.07-0.03-0.16-0.07-0.15-0.13c0.01-0.04,0.06-0.06,0.09-0.1c0.06-0.07,0.04-0.16-0.02-0.23
							c-0.06-0.07-0.16-0.11-0.25-0.15c-0.21-0.09-0.42-0.19-0.64-0.28c-0.06-0.03-0.12-0.05-0.18-0.05
							c-0.19-0.01-0.37,0.17-0.53,0.09c0.01-0.09,0.02-0.18,0.02-0.27c-0.17-0.1-0.41,0.06-0.61,0.02
							C28.12,0.53,28.06,0.51,28.01,0.49z"/>
					</g>
					<g>
						<path class="st2" d="M29.19,0.35c0.02,0,0.04-0.01,0.06-0.02c0.03-0.02,0.04-0.04,0.05-0.07c0.03-0.06,0.04-0.13,0.03-0.2
							c-0.38,0.02-0.77-0.01-1.15-0.07c-0.05-0.01-0.1-0.02-0.14-0.03C28-0.06,27.96-0.1,27.9-0.12c-0.05-0.02-0.12-0.03-0.17,0
							c0.01,0.1,0,0.22-0.11,0.29c-0.01,0.01-0.03,0.02-0.04,0.03c-0.03,0.03,0,0.08,0.04,0.11c0.14,0.08,0.33,0.04,0.5,0.02
							C28.49,0.3,28.85,0.43,29.19,0.35z"/>
					</g>
					<g>
						<path class="st2" d="M28.17-0.73c-0.06,0.04-0.11,0.09-0.09,0.14c0.01,0.02,0.03,0.04,0.05,0.05
							c0.16,0.12,0.41,0.16,0.61,0.09c0.04-0.01,0.09-0.04,0.07-0.08c0.18,0,0.36-0.02,0.54-0.04c0.04-0.06-0.04-0.11-0.12-0.14
							c-0.15-0.07-0.31-0.13-0.46-0.2c-0.02-0.01-0.04-0.02-0.07-0.02c-0.02,0-0.04,0-0.06,0.01C28.47-0.88,28.31-0.82,28.17-0.73z"
							/>
					</g>
					<g>
						<path class="st2" d="M31.04-1.16c-0.12,0.03-0.24,0.09-0.36,0.11c-0.38,0.07-0.76-0.21-1.15-0.14
							c-0.07,0.14-0.02,0.32,0.14,0.41c0.02,0.08,0.05,0.16,0.09,0.24c-0.33,0.09-0.66,0.19-0.98,0.28
							c-0.13,0.04-0.26,0.07-0.39,0.11c0.3,0.02,0.6,0.08,0.88,0.16c0.14,0.04,0.29,0.09,0.44,0.07c0.15-0.01,0.3-0.11,0.29-0.22
							c0.17,0.02,0.4,0.01,0.46-0.11c0.01-0.03,0.02-0.07,0.04-0.09c0.05-0.07,0.19-0.07,0.29-0.07c0.37,0.01,0.73-0.08,1.08-0.18
							c0.45-0.12,0.89-0.24,1.34-0.37c0-0.04,0.01-0.09,0.01-0.13c-0.23-0.06-0.48-0.07-0.72-0.07c-0.36-0.01-0.71-0.01-1.07-0.02
							C31.28-1.19,31.16-1.19,31.04-1.16z"/>
					</g>
					<g>
						<path class="st2" d="M39.3-0.97c0.36-0.02,0.72-0.04,1.08-0.04C40.34-0.86,40.1-0.83,39.9-0.8c-0.21,0.03-0.41,0.08-0.59,0.16
							c-0.11,0.05-0.22,0.12-0.27,0.21C39-0.33,39.01-0.21,39.11-0.15c-0.08,0.01-0.17,0.02-0.25,0.04
							c-0.06,0.11,0.07,0.23,0.06,0.35c-0.01,0.18-0.28,0.26-0.51,0.27c-0.23,0.01-0.49,0-0.64,0.13c0.18,0.14,0.34,0.3,0.49,0.46
							c-0.19,0.03-0.38,0.05-0.58,0.08c0.04-0.05,0.01-0.12-0.05-0.14c-0.06-0.02-0.12,0.04-0.1,0.09c0.02,0.05,0.08,0.08,0.12,0.12
							c0.04,0.04,0.07,0.1,0.03,0.14c-0.02,0.02-0.05,0.03-0.09,0.03c-0.31,0.07-0.62,0.13-0.92,0.2c-0.25,0.05-0.51,0.11-0.73,0.22
							c-0.18,0.1-0.33,0.23-0.54,0.29c-0.08,0.02-0.17,0.03-0.26,0.04c-0.25,0.04-0.49,0.12-0.67,0.27
							c-0.11,0.09-0.18,0.2-0.26,0.31c-0.17,0.24-0.37,0.47-0.59,0.69c-0.05,0.05-0.12,0.11-0.2,0.11c-0.09,0-0.15-0.07-0.22-0.11
							c-0.14-0.1-0.34-0.13-0.51-0.09c-0.12-0.44-0.19-0.89-0.2-1.34c0-0.06,0-0.12,0.04-0.17c0.07-0.09,0.21-0.11,0.33-0.14
							c0.12-0.03,0.26-0.1,0.24-0.2c-0.02-0.08-0.14-0.18-0.06-0.23c0.08,0.05,0.21-0.01,0.22-0.09c0.02-0.08-0.05-0.15-0.14-0.19
							c-0.09-0.04-0.19-0.04-0.29-0.05c-0.08-0.26,0.15-0.58-0.09-0.78c-0.09-0.07-0.24-0.1-0.37-0.12
							c-0.33-0.04-0.66-0.06-0.99-0.06c-0.04-0.09-0.08-0.17-0.12-0.26c0.15-0.16,0.46-0.14,0.72-0.17
							c0.25-0.03,0.49-0.13,0.72-0.21c0.91-0.31,1.91-0.42,2.9-0.51c0.76-0.07,1.53-0.13,2.29-0.03c0.39,0.05,0.81,0.14,1.15-0.01
							c0.03,0.04,0.06,0.09,0.09,0.13c0.36-0.02,0.73,0.02,1.07,0.13L39.3-0.97z"/>
					</g>
					<g>
						<path class="st2" d="M23.19,16.78c-0.06-0.1-0.17-0.21-0.31-0.19c-0.04,0-0.07,0.02-0.11,0.03c-0.19,0.06-0.41,0.02-0.61-0.02
							c-0.08-0.02-0.15-0.03-0.21-0.07c-0.08-0.05-0.11-0.13-0.13-0.21c-0.06-0.22-0.07-0.44-0.03-0.66
							c0.04-0.24,0.15-0.5,0.01-0.72c-0.03-0.04-0.06-0.08-0.12-0.1c-0.03-0.01-0.07-0.01-0.1,0c-0.27,0.03-0.53,0.18-0.79,0.14
							c-0.09,0.12-0.33,0.26-0.49,0.32c-0.06,0.09,0.01,0.2,0.12,0.25c0.11,0.05,0.25,0.05,0.37,0.04c0.05,0.11,0.09,0.22,0.18,0.32
							c0.09,0.09,0.23,0.16,0.38,0.15c0.04,0.01,0.02,0.06-0.02,0.07c-0.04,0.01-0.08,0.01-0.11,0.03c-0.08,0.04-0.04,0.14,0.01,0.2
							c0.27,0.33,0.63,0.62,1.05,0.85c0.03,0.02,0.07,0.04,0.11,0.04c0.09,0.01,0.16-0.06,0.18-0.13c0.03-0.07,0.03-0.14,0.08-0.2
							c0.05-0.06,0.18-0.08,0.22-0.02c0.22,0.39,0.24,0.85,0.07,1.25c-0.08,0.18-0.19,0.36-0.2,0.55c-0.12,0.03-0.24,0.06-0.36,0.09
							c-0.04,0.2-0.08,0.41-0.12,0.61c-0.01,0.08-0.03,0.15-0.01,0.23c0.03,0.1,0.11,0.19,0.09,0.29c-0.02,0.09-0.11,0.15-0.17,0.22
							c-0.17,0.27,0.21,0.55,0.23,0.85c0,0.08-0.02,0.16-0.01,0.24c0.04,0.2,0.3,0.32,0.48,0.46c0.47,0.39,0.4,1.07,0.94,1.41
							c0.37,0.23,0.9,0.35,1.1,0.69c0.05,0.08,0.06,0.17,0.08,0.26c0.07,0.47,0.13,0.93,0.15,1.4c0.03,0.55,0.02,1.1,0.16,1.64
							c0.09,0.32,0.23,0.64,0.21,0.97c-0.01,0.1-0.03,0.19-0.1,0.27c-0.08,0.08-0.22,0.12-0.33,0.08c-0.08,0.3,0.06,0.62,0.25,0.89
							c0.19,0.28,0.42,0.54,0.54,0.83c0.08,0.21,0.1,0.43,0.06,0.64c-0.03,0.13,0.04,0.27,0.08,0.39c0.15,0.51,0.41,1.01,0.76,1.46
							c0.07,0.09,0.15,0.19,0.27,0.25c0.12,0.06,0.28,0.09,0.4,0.03c0.01-0.04,0.01-0.08,0.02-0.13c0.14,0.13,0.27,0.25,0.41,0.38
							c0.06,0.05,0.12,0.11,0.19,0.14c0.07,0.03,0.15,0.04,0.22,0.04c0.19,0.02,0.37,0.04,0.56,0.05c0.04-0.02,0.05-0.07,0.02-0.1
							c-0.24-0.16-0.47-0.32-0.71-0.48c-0.28-0.19-0.57-0.4-0.61-0.69c0-0.03,0-0.06,0.01-0.08c0.02-0.06,0.1-0.09,0.15-0.13
							c0.07-0.06,0.11-0.14,0.12-0.23c0.05-0.25-0.13-0.56-0.45-0.57c0-0.08,0-0.17,0-0.25c0.18-0.01,0.33-0.13,0.36-0.27
							c0.03-0.14-0.02-0.28-0.1-0.41c0.12,0,0.23,0,0.35,0c0.04-0.1-0.13-0.18-0.26-0.21c-0.14-0.03-0.31-0.07-0.31-0.18
							c0.17,0.05,0.38-0.01,0.47-0.13c0.09-0.12,0.05-0.29-0.08-0.38c0.27-0.07,0.53-0.15,0.8-0.22c0.07-0.02,0.15-0.04,0.21-0.08
							c0.05-0.03,0.09-0.08,0.11-0.13c0.15-0.3-0.14-0.64-0.5-0.79c0.19,0.07,0.39,0.13,0.6,0.13c0.21,0,0.43-0.09,0.49-0.25
							c0.02-0.06,0.02-0.12,0.03-0.18c0.03-0.12,0.15-0.22,0.22-0.34c0.06-0.11,0.07-0.24,0.15-0.35c0.07-0.1,0.21-0.18,0.28-0.29
							c0.1-0.16,0.04-0.35,0-0.53c-0.04-0.18-0.06-0.38,0.11-0.51c-0.05-0.23,0.27-0.41,0.54-0.52c0.18-0.07,0.36-0.15,0.56-0.19
							c0.19-0.04,0.41-0.05,0.54-0.16c0.13-0.1,0.13-0.26,0.14-0.41c0-0.42,0.01-0.83,0.01-1.25c0-0.05,0-0.1-0.01-0.15
							c-0.02-0.07-0.05-0.13-0.07-0.19c-0.05-0.21,0.11-0.4,0.3-0.56c0.18-0.15,0.4-0.3,0.49-0.49c0.06-0.12,0.06-0.26,0.07-0.39
							c0.01-0.34,0.03-0.68,0.04-1.03c-0.23,0.06-0.46-0.08-0.6-0.23c-0.14-0.15-0.27-0.33-0.49-0.39
							c-0.18-0.05-0.39-0.01-0.57-0.05c-0.11-0.03-0.21-0.08-0.32-0.11c-0.11-0.03-0.25-0.02-0.32,0.05
							c-0.05-0.09-0.07-0.19-0.05-0.28c-0.21-0.06-0.41-0.12-0.62-0.18c0.02-0.08-0.15-0.24-0.24-0.28
							c-0.07-0.03-0.16-0.06-0.21-0.02c-0.04-0.06,0.01-0.11,0-0.18c-0.02-0.13-0.12-0.25-0.19-0.38c-0.07-0.12-0.12-0.27-0.03-0.39
							c-0.13-0.11-0.27-0.23-0.4-0.34c-0.05-0.05-0.11-0.09-0.18-0.12c-0.06-0.03-0.14-0.04-0.21-0.05
							c-0.22-0.03-0.44-0.07-0.67-0.1c-0.06-0.01-0.12-0.02-0.18-0.04c-0.15-0.07-0.18-0.23-0.25-0.35
							c-0.07-0.13-0.28-0.24-0.41-0.15c-0.06-0.16-0.08-0.33-0.05-0.49c-0.08,0.02-0.16,0.04-0.24,0.06
							c-0.01-0.06-0.02-0.12-0.04-0.18c-0.12-0.08-0.3-0.02-0.42,0.06c-0.12,0.08-0.26,0.17-0.41,0.14c0-0.1-0.15-0.16-0.28-0.19
							c-0.13-0.02-0.29-0.05-0.34-0.15c-0.01-0.03-0.01-0.07-0.04-0.1c-0.08-0.09-0.29,0.01-0.41-0.06
							c-0.03,0.17-0.07,0.34-0.1,0.51c-0.02,0.09-0.09,0.2-0.2,0.18c-0.11-0.18-0.02-0.42,0.2-0.53c-0.07-0.01-0.11-0.08-0.09-0.14
							c0.02-0.06,0.07-0.1,0.12-0.15c-0.06-0.06-0.19-0.03-0.25,0.03c-0.06,0.06-0.1,0.13-0.17,0.18c-0.1,0.08-0.25,0.09-0.38,0.12
							c-0.13,0.03-0.28,0.09-0.3,0.2c-0.01,0.05,0.01,0.1,0,0.14C23.56,16.6,23.23,16.65,23.19,16.78z"/>
					</g>
					<g>
						<path class="st2" d="M24.19,13.87c0.03,0,0.08-0.01,0.08-0.04c0-0.01,0-0.02,0-0.02c-0.07-0.16-0.42-0.12-0.52-0.27
							c-0.02-0.03-0.03-0.07-0.06-0.1c-0.03-0.02-0.07-0.03-0.1-0.05c-0.12-0.05-0.19-0.15-0.28-0.23
							c-0.18-0.15-0.46-0.24-0.73-0.24c-0.27,0-0.54,0.07-0.76,0.2c-0.05,0.09-0.1,0.2-0.03,0.28c0.21,0.01,0.38-0.17,0.6-0.17
							c0.09,0,0.17,0.03,0.25,0.07c0.19,0.08,0.39,0.16,0.58,0.24c0.05,0.02,0.1,0.04,0.11,0.08c0.01,0.03,0,0.05,0.01,0.08
							c0.01,0.05,0.05,0.08,0.07,0.12c0.03,0.04,0.03,0.1-0.01,0.13c0.1,0.04,0.21-0.03,0.31-0.06
							C23.85,13.84,24.02,13.87,24.19,13.87z"/>
					</g>
					<g>
						<path class="st2" d="M25.15,14.08c0.07,0.03,0.17,0.02,0.22,0.06c0.06,0.05,0.01,0.15-0.07,0.18
							c-0.08,0.03-0.18,0.02-0.27,0.01c-0.28-0.02-0.57,0.02-0.85,0.05c-0.01-0.09-0.01-0.18-0.02-0.26
							c0.09,0.01,0.19-0.04,0.23-0.1c0.04-0.07,0.05-0.14,0.05-0.22c0.12,0,0.25,0.01,0.37,0.01c-0.03,0.03,0,0.08,0.04,0.1
							c0.04,0.02,0.1,0.03,0.14,0.05C25.04,13.99,25.08,14.06,25.15,14.08z"/>
					</g>
					<g>
						<path class="st2" d="M25.69,14.36c0.03,0.06,0.13,0.07,0.21,0.06c0.02,0,0.04-0.01,0.06-0.02c0.08-0.04,0.07-0.12,0.05-0.19
							c-0.09-0.01-0.17-0.01-0.26-0.02C25.71,14.24,25.66,14.3,25.69,14.36z"/>
					</g>
				</g>
			</g>
		</g>
		<path class="st2" d="M21.34,38.32c0.52,0.05,1.05,0.07,1.58,0.07c0.54,0,1.07-0.02,1.59-0.07H21.34z"/>
		<path class="st3" d="M44.99,2.96l-3.34-1.93v1.32H24.92c-0.66-0.07-1.32-0.11-2-0.11c-0.67,0-1.34,0.04-1.99,0.11
			c-0.16,0.02-0.32,0.04-0.47,0.06c-8.8,1.2-15.61,8.78-15.61,17.91c0,7.61,4.73,14.13,11.4,16.79H3.79v-1.33l-3.34,1.93l3.34,1.93
			v-1.32h20.72c0.16-0.01,0.31-0.03,0.47-0.05c9-1.02,16.01-8.69,16.01-17.95c0-7.58-4.68-14.08-11.3-16.76h11.96v1.33L44.99,2.96z
			 M39.79,20.32c0,8.79-6.78,16.04-15.39,16.79c-0.49,0.05-0.98,0.07-1.48,0.07s-0.99-0.02-1.48-0.07
			c-8.61-0.75-15.38-8-15.38-16.79c0-8.66,6.56-15.82,14.97-16.76c0.62-0.07,1.25-0.11,1.89-0.11c0.64,0,1.27,0.04,1.89,0.11
			C33.23,4.5,39.79,11.66,39.79,20.32z"/>
		<g>
			<path class="st3" d="M20.93,2.35c-0.16,0.02-0.32,0.04-0.47,0.06V2.35H20.93z"/>
			<path class="st3" d="M24.81,3.56h-3.78c0.62-0.07,1.25-0.11,1.89-0.11C23.56,3.45,24.19,3.49,24.81,3.56z"/>
		</g>
		<g>
			<path class="st3" d="M24.4,37.11c-0.49,0.05-0.98,0.07-1.48,0.07s-0.99-0.02-1.48-0.07H24.4z"/>
			<path class="st3" d="M24.98,38.27v0.05h-0.47C24.67,38.31,24.82,38.29,24.98,38.27z"/>
		</g>
	</g>
</g>
</svg>
