<?xml version="1.0" encoding="utf-8"?>
<!-- Generator: Adobe Illustrator 21.0.0, SVG Export Plug-In . SVG Version: 6.00 Build 0)  -->
<svg version="1.1" id="Layer_1" xmlns="http://www.w3.org/2000/svg" xmlns:xlink="http://www.w3.org/1999/xlink" x="0px" y="0px"
	 viewBox="0 0 225 184" style="enable-background:new 0 0 225 184;" xml:space="preserve">
<style type="text/css">
	.st0{fill:none;stroke:#3FAE2A;stroke-width:2;stroke-miterlimit:10;}
	.st1{fill:#808080;}
	.st2{fill:#3FAE2A;}
</style>
<title>Icon_Shipment</title>
<path class="st0" d="M190,104.4c-14.9,0-27,12.1-27,27.1c0,11.4,7.4,24.2,13.6,33c3.8,5.3,7.9,10.3,12.3,15c0.6,0.6,1.6,0.7,2.2,0.1
	c0,0,0,0,0.1-0.1c4.4-4.7,8.6-9.8,12.3-15.1c6.2-8.7,13.6-21.5,13.6-32.9C217.1,116.6,204.9,104.4,190,104.4z M190,147.7
	c-9.1,0-16.5-7.4-16.5-16.5c0-9.1,7.4-16.5,16.5-16.5c9.1,0,16.5,7.4,16.5,16.5C206.5,140.3,199.1,147.7,190,147.7z"/>
<path class="st0" d="M165.9,145.5c-29.5,38.6-84.8,45.9-123.4,16.4S-3.4,77.1,26.1,38.5s84.8-45.9,123.4-16.4
	C171.2,38.8,184,64.6,184,92c0,4.5-0.3,8.9-1,13.4"/>
<g>
	<path class="st1" d="M104.6,127.2H67.8V53.8h11.1v1.8h29.7v-1.8h11.1v39.8c0.3,0,0.6,0,0.9,0c0.5,0,1,0,1.5,0.1V54.5
		c0-2.1-1.7-3.7-3.7-3.7h-9.8v-1h-5v-0.1c0-4.4-3.6-7.9-7.9-7.9h-3.8c-4.4,0-7.9,3.6-7.9,7.9v0.1h-5v1h-9.8c-2.1,0-3.7,1.7-3.7,3.7
		v74.5c0,2.1,1.7,3.7,3.7,3.7h42.5C108.9,131.5,106.5,129.6,104.6,127.2z M86,49.7c0-3.2,2.6-5.8,5.8-5.8h3.8c3.2,0,5.8,2.6,5.8,5.8
		v0.1H86V49.7z"/>
	<path class="st1" d="M83.1,63.6H71v12.1h12.1V63.6z M81.6,74.2h-9.1v-9.1h9.1V74.2z"/>
	<path class="st1" d="M83.1,79.3H71v12.1h12.1V79.3z M81.6,89.9h-9.1v-9.1h9.1V89.9z"/>
	<path class="st1" d="M83.1,95.1H71v12.1h12.1V95.1z M81.6,105.7h-9.1v-9.1h9.1V105.7z"/>
	<path class="st1" d="M71,122.9h12.1v-12.1H71V122.9z M72.5,112.3h9.1v9.1h-9.1V112.3z"/>
	<rect x="85.7" y="66.7" class="st1" width="31.3" height="2"/>
	<rect x="85.7" y="70.7" class="st1" width="31.3" height="2"/>
	<path class="st1" d="M85.7,111.9v2H100c0-0.7,0.1-1.4,0.1-2H85.7z"/>
	<path class="st1" d="M85.7,117.8h14.5c-0.1-0.7-0.2-1.3-0.3-2H85.7V117.8z"/>
	<path class="st1" d="M85.7,121.8h15.6c-0.3-0.7-0.5-1.3-0.7-2h-15V121.8z"/>
	<path class="st1" d="M107.6,98.1H85.7v2h19.7C106.2,99.4,106.9,98.8,107.6,98.1z"/>
	<path class="st1" d="M103.9,102.1H85.7v2h16.8C103,103.4,103.4,102.7,103.9,102.1z"/>
	<rect x="85.7" y="82.4" class="st1" width="31.3" height="2"/>
	<rect x="85.7" y="86.3" class="st1" width="22.8" height="2"/>
	<path class="st1" d="M120.6,94.8c-10.7,0-19.4,8.7-19.4,19.4s8.7,19.4,19.4,19.4c10.7,0,19.4-8.7,19.4-19.4S131.3,94.8,120.6,94.8z
		 M120.6,129.8c-8.6,0-15.6-7-15.6-15.6c0-8.6,7-15.6,15.6-15.6c8.6,0,15.6,7,15.6,15.6C136.2,122.8,129.2,129.8,120.6,129.8z"/>
	<path class="st1" d="M131.5,108.9c-0.4-0.8-1.4-1.2-2.2-0.8l-7.4,3.6c-0.4-0.2-0.8-0.3-1.2-0.3c-0.1,0-0.2,0-0.2,0l-7-7.6
		c-0.6-0.7-1.7-0.7-2.3-0.1c-0.7,0.6-0.7,1.7-0.1,2.3l6.8,7.4c-0.1,0.3-0.2,0.7-0.2,1c0,1.7,1.4,3.1,3.1,3.1s3.1-1.4,3.1-3.1
		c0,0,0,0,0,0l7.1-3.5C131.5,110.7,131.9,109.7,131.5,108.9z"/>
</g>
<rect x="73.4" y="66" class="st2" width="7.2" height="7.2"/>
<rect x="73.4" y="81.8" class="st2" width="7.2" height="7.2"/>
</svg>
