<svg id="Layer_1" data-name="Layer 1" xmlns="http://www.w3.org/2000/svg" viewBox="0 0 225 184"><defs><style>.cls-parcel-1{fill:none;stroke:#3fae2a;stroke-miterlimit:10;stroke-width:2px;}.cls-parcel-2{fill:gray;fill-rule:evenodd;}</style></defs><title>Icon_Parcel</title><path class="cls-parcel-1" d="M190,104.45a27.08,27.08,0,0,0-27,27.06c0,11.42,7.4,24.24,13.61,33a146.11,146.11,0,0,0,12.31,15,1.54,1.54,0,0,0,2.25,0,146.18,146.18,0,0,0,12.33-15.06c6.2-8.73,13.59-21.54,13.59-32.95A27.08,27.08,0,0,0,190,104.45Zm0,43.22a16.52,16.52,0,1,1,16.52-16.52A16.54,16.54,0,0,1,190,147.67Z"/><path class="cls-parcel-1" d="M165.88,145.47A88,88,0,1,1,184,92a89.21,89.21,0,0,1-1,13.36"/><path class="cls-parcel-2" d="M137.79,63.23c-2.16-3.14-8.55-3.65-16.61,2.18L101,79.86,67.15,66.64,62.05,69,86.74,91.82,68.48,107,55,105.65l-3.25,2.24L62,115.42l3.39,12.21,3.25-2.24,3.52-13,20.7-11.63,12.46,31.19,4.07-3.9-.26-36.38L129.83,78c3.83-2.53,11.47-9.54,8-14.74ZM119.62,116l-7.18,4.94.06,8.42-8.34,8L91.3,105.14l-16.49,9.26-3.49,12.9-7.76,5.35-4.27-15.38L46.45,107.8l7.76-5.35,13.3,1.35L82,91.7,56.58,68.21,67,63.28l7.85,3.06,7.18-4.94,1.76,2.56L78.37,67.7l7.8,3L93.09,66l1.76,2.56L89.66,72.1l10.94,4.27L119.37,62.9c9.78-7.06,18-5.8,21-1.42,4.79,7-3.3,15.47-8.81,19.08L112.24,93.28l.08,11.74,5.19-3.57,1.76,2.56-6.93,4.77.06,8.37,5.45-3.75Z"/></svg>