<svg id="Layer_1" data-name="Layer 1" xmlns="http://www.w3.org/2000/svg" viewBox="0 0 225 184"><defs><style>.cls-fleet-1,.cls-fleet-2,.cls-fleet-3,.cls-fleet-4{fill:none;}.cls-fleet-1{stroke:#3fae2a;stroke-width:2px;}.cls-fleet-1,.cls-fleet-2,.cls-fleet-4{stroke-miterlimit:10;}.cls-fleet-2,.cls-fleet-3,.cls-fleet-4{stroke:gray;stroke-width:2.4px;}.cls-fleet-3,.cls-fleet-4{stroke-linecap:round;}.cls-fleet-3{stroke-linejoin:round;}.cls-5{fill:gray;}</style></defs><title>Icon_Fleet</title><path class="cls-fleet-1" d="M190,104.45a27.08,27.08,0,0,0-27,27.06c0,11.42,7.4,24.24,13.61,33a146.11,146.11,0,0,0,12.31,15,1.54,1.54,0,0,0,2.25,0,146.18,146.18,0,0,0,12.33-15.06c6.2-8.73,13.59-21.54,13.59-32.95A27.08,27.08,0,0,0,190,104.45Zm0,43.22a16.52,16.52,0,1,1,16.52-16.52A16.54,16.54,0,0,1,190,147.67Z"/><rect id="_Rectangle_" data-name="&lt;Rectangle&gt;" class="cls-fleet-2" x="55.36" y="60.07" width="79.29" height="26.61"/><polyline id="_Path_" data-name="&lt;Path&gt;" class="cls-fleet-2" points="55.36 95.13 55.36 86.68 134.64 86.68 134.64 95.13"/><path id="_Path_2" data-name="&lt;Path&gt;" class="cls-fleet-3" d="M55.36,104.91v4.47a3.9,3.9,0,0,0,3.9,3.9h4.42"/><path id="_Path_3" data-name="&lt;Path&gt;" class="cls-fleet-3" d="M134.73,104.91v4.47a3.9,3.9,0,0,1-3.9,3.9H126.4"/><path id="_Rectangle_2" data-name="&lt;Rectangle&gt;" class="cls-fleet-2" d="M63,48.18H127a7.61,7.61,0,0,1,7.61,7.61v4.28a0,0,0,0,1,0,0H55.36a0,0,0,0,1,0,0V55.79A7.61,7.61,0,0,1,63,48.18Z"/><path id="_Rectangle_3" data-name="&lt;Rectangle&gt;" class="cls-fleet-2" d="M134.64,65.94h5.48A2.88,2.88,0,0,1,143,68.82v9.11a2.88,2.88,0,0,1-2.88,2.88h-5.48a0,0,0,0,1,0,0V65.94A0,0,0,0,1,134.64,65.94Z"/><path id="_Rectangle_4" data-name="&lt;Rectangle&gt;" class="cls-fleet-2" d="M47,65.94h5.48a2.88,2.88,0,0,1,2.88,2.88v9.11a2.88,2.88,0,0,1-2.88,2.88H47a0,0,0,0,1,0,0V65.94A0,0,0,0,1,47,65.94Z" transform="translate(102.36 146.75) rotate(180)"/><circle id="_Path_4" data-name="&lt;Path&gt;" class="cls-fleet-4" cx="134.64" cy="99.98" r="4.85"/><circle id="_Path_5" data-name="&lt;Path&gt;" class="cls-fleet-4" cx="55.36" cy="99.98" r="4.85"/><path id="_Path_6" data-name="&lt;Path&gt;" class="cls-fleet-4" d="M130.57,133.24v9.22a3.75,3.75,0,0,1-3.75,3.75h-6.07a3.75,3.75,0,0,1-3.75-3.75v-3.26"/><path id="_Rectangle_5" data-name="&lt;Rectangle&gt;" class="cls-5" d="M55.36,123.54h6.29a2,2,0,0,1,2,2v1a2,2,0,0,1-2,2H55.36a0,0,0,0,1,0,0v-5.09A0,0,0,0,1,55.36,123.54Z"/><path id="_Rectangle_6" data-name="&lt;Rectangle&gt;" class="cls-5" d="M126.32,123.54h6.29a2,2,0,0,1,2,2v1a2,2,0,0,1-2,2h-6.29a0,0,0,0,1,0,0v-5.09A0,0,0,0,1,126.32,123.54Z" transform="translate(260.96 252.17) rotate(180)"/><g id="_Group_" data-name="&lt;Group&gt;"><line id="_Path_7" data-name="&lt;Path&gt;" class="cls-fleet-2" x1="62.35" y1="54.13" x2="64.9" y2="54.13"/><line id="_Path_8" data-name="&lt;Path&gt;" class="cls-fleet-2" x1="69.22" y1="54.13" x2="71.77" y2="54.13"/></g><g id="_Group_2" data-name="&lt;Group&gt;"><line id="_Path_9" data-name="&lt;Path&gt;" class="cls-fleet-2" x1="127.65" y1="54.13" x2="125.1" y2="54.13"/><line id="_Path_10" data-name="&lt;Path&gt;" class="cls-fleet-2" x1="120.78" y1="54.13" x2="118.23" y2="54.13"/></g><path id="_Path_11" data-name="&lt;Path&gt;" class="cls-fleet-4" d="M59.44,133.24v9.22a3.75,3.75,0,0,0,3.75,3.75h6.07A3.75,3.75,0,0,0,73,142.45v-3.26"/><path id="_Path_12" data-name="&lt;Path&gt;" class="cls-fleet-4" d="M85.12,133.24H60.43a5.07,5.07,0,0,1-5.07-5.07V124a5.07,5.07,0,0,1,5.07-5.07h69.14a5.07,5.07,0,0,1,5.07,5.07v4.16a5.07,5.07,0,0,1-5.07,5.07H104.88"/><line class="cls-fleet-4" x1="84.54" y1="107.65" x2="84.54" y2="95.13"/><line class="cls-fleet-4" x1="91.51" y1="107.65" x2="91.51" y2="95.13"/><line class="cls-fleet-4" x1="98.49" y1="107.65" x2="98.49" y2="95.13"/><line class="cls-fleet-4" x1="105.46" y1="107.65" x2="105.46" y2="95.13"/><line class="cls-fleet-4" x1="80.98" y1="65.94" x2="109.02" y2="65.94"/><line class="cls-fleet-4" x1="105.46" y1="113.28" x2="84.62" y2="113.28"/><path class="cls-fleet-1" d="M165.88,145.47A88,88,0,1,1,184,92a89.21,89.21,0,0,1-1,13.36"/></svg>