<svg id="Layer_1" data-name="Layer 1" xmlns="http://www.w3.org/2000/svg" viewBox="0 0 225 184"><defs><style>.cls-warehouse-1{fill:none;stroke:#3fae2a;stroke-miterlimit:10;stroke-width:2px;}.cls-warehouse-2{fill:gray;}</style></defs><title>Icon_Warehouse-01</title><path class="cls-warehouse-1" d="M190,104.45a27.08,27.08,0,0,0-27,27.06c0,11.42,7.4,24.24,13.61,33a146.11,146.11,0,0,0,12.31,15,1.54,1.54,0,0,0,2.25,0,146.18,146.18,0,0,0,12.33-15.06c6.2-8.73,13.59-21.54,13.59-32.95A27.08,27.08,0,0,0,190,104.45Zm0,43.22a16.52,16.52,0,1,1,16.52-16.52A16.54,16.54,0,0,1,190,147.67Z"/><path class="cls-warehouse-1" d="M165.88,145.47A88,88,0,1,1,184,92a89.21,89.21,0,0,1-1,13.36"/><path class="cls-warehouse-2" d="M140.44,74A1.55,1.55,0,0,0,142,72.4V63.58a1.55,1.55,0,0,0-1.15-1.5l-48.2-13a1.52,1.52,0,0,0-.81,0l-48.2,13a1.55,1.55,0,0,0-1.15,1.5V72.4A1.55,1.55,0,0,0,44,74h4.66v52.86H44a1.55,1.55,0,1,0,0,3.11h96.4a1.55,1.55,0,1,0,0-3.11h-4.66V74ZM45.6,70.84V64.78L92.25,52.24l46.64,12.54v6.06h-3.11V67.73a1.56,1.56,0,0,0-1.17-1.51l-42-10.88a1.5,1.5,0,0,0-.78,0l-42,10.88a1.56,1.56,0,0,0-1.17,1.51v3.11Zm24.88,6.22A1.55,1.55,0,0,0,72,75.51V74h7.77V89.5H61.15V74h7.77v1.56A1.55,1.55,0,0,0,70.48,77.06ZM92.25,95.72a1.55,1.55,0,0,0,1.55-1.55V92.61h7.77v15.55H82.92V92.61h7.77v1.56A1.55,1.55,0,0,0,92.25,95.72Zm12.44-3.11h7.77v1.56a1.55,1.55,0,0,0,3.11,0V92.61h7.77v15.55H104.68ZM61.15,108.16V92.61h7.77v1.56a1.55,1.55,0,0,0,3.11,0V92.61h7.77v15.55Zm0,3.11h7.77v1.55a1.55,1.55,0,0,0,3.11,0v-1.55h7.77v15.55H61.15Zm21.77,0h7.77v1.55a1.55,1.55,0,0,0,3.11,0v-1.55h7.77v15.55H82.92Zm21.77,15.55V111.27h7.77v1.55a1.55,1.55,0,0,0,3.11,0v-1.55h7.77v15.55Zm21.77,0V91.05a1.55,1.55,0,0,0-1.55-1.55h-42V72.4a1.55,1.55,0,0,0-1.55-1.56H59.59A1.55,1.55,0,0,0,58,72.4v54.42H51.82V68.94L92.25,58.46l40.43,10.48v57.88Z"/></svg>