<svg id="Layer_1" data-name="Layer 1" xmlns="http://www.w3.org/2000/svg" viewBox="0 0 225 184"><defs><style>.cls-shipment-1{fill:none;stroke:#3fae2a;stroke-miterlimit:10;stroke-width:2px;}.cls-shipment-2{fill:gray;}</style></defs><title>Icon_Shipment</title><path class="cls-shipment-1" d="M190,104.45a27.08,27.08,0,0,0-27,27.06c0,11.42,7.4,24.24,13.61,33a146.11,146.11,0,0,0,12.31,15,1.54,1.54,0,0,0,2.25,0,146.18,146.18,0,0,0,12.33-15.06c6.2-8.73,13.59-21.54,13.59-32.95A27.08,27.08,0,0,0,190,104.45Zm0,43.22a16.52,16.52,0,1,1,16.52-16.52A16.54,16.54,0,0,1,190,147.67Z"/><path class="cls-shipment-1" d="M165.88,145.47A88,88,0,1,1,184,92a89.21,89.21,0,0,1-1,13.36"/><path class="cls-shipment-2" d="M146,123.62h-3.86a1,1,0,0,1-.7-.28l-2.83-2.75H55.45l-2.58,2.72a1,1,0,0,1-.72.31H47.7a1,1,0,0,1-1-1V62.84a1,1,0,0,1,1-1H146a1,1,0,0,1,1,1v59.79A1,1,0,0,1,146,123.62Zm-3.46-2H145V63.83H48.7v57.79h3l2.58-2.72a1,1,0,0,1,.72-.31h84a1,1,0,0,1,.7.28Z"/><path class="cls-shipment-2" d="M60.62,116.83h-6.2a.5.5,0,0,1-.5-.5V66.25a.5.5,0,0,1,.5-.5h6.2a.5.5,0,0,1,0,1h-5.7v49.08h5.2V74.65a.5.5,0,0,1,1,0v41.68A.5.5,0,0,1,60.62,116.83Z"/><path class="cls-shipment-2" d="M71.86,116.83h-6.2a.5.5,0,0,1-.5-.5V66.25a.5.5,0,0,1,.5-.5h6.2a.5.5,0,0,1,.5.5v40a.5.5,0,0,1-1,0V66.75h-5.2v49.08h5.7a.5.5,0,0,1,0,1Z"/><path class="cls-shipment-2" d="M83.09,116.83h-6.2a.5.5,0,0,1-.5-.5V66.25a.5.5,0,0,1,.5-.5h6.2a.5.5,0,0,1,.5.5V89.63a.5.5,0,0,1-1,0V66.75h-5.2v49.08h5.2V100.95a.5.5,0,0,1,1,0v15.38A.5.5,0,0,1,83.09,116.83Z"/><path class="cls-shipment-2" d="M94.33,116.83h-6.2a.5.5,0,0,1-.5-.5v-30a.5.5,0,0,1,1,0v29.53h5.2V66.75h-5.2V77.48a.5.5,0,1,1-1,0V66.25a.5.5,0,0,1,.5-.5h6.2a.5.5,0,0,1,.5.5v50.08A.5.5,0,0,1,94.33,116.83Z"/><path class="cls-shipment-2" d="M105.57,116.83h-6.2a.5.5,0,0,1-.5-.5V106.1a.5.5,0,0,1,1,0v9.73h5.2V66.75h-5.2V96.45a.5.5,0,0,1-1,0V66.25a.5.5,0,0,1,.5-.5h6.2a.5.5,0,0,1,.5.5v50.08A.5.5,0,0,1,105.57,116.83Z"/><path class="cls-shipment-2" d="M116.81,116.83h-6.2a.5.5,0,0,1-.5-.5v-33a.5.5,0,1,1,1,0v32.53h5.2V66.75h-5.2v8.74a.5.5,0,1,1-1,0V66.25a.5.5,0,0,1,.5-.5h6.2a.5.5,0,0,1,.5.5v50.08A.5.5,0,0,1,116.81,116.83Z"/><path class="cls-shipment-2" d="M128,116.83h-6.2a.5.5,0,0,1-.5-.5V66.25a.5.5,0,0,1,.5-.5H128a.5.5,0,0,1,.5.5v7.07a.5.5,0,0,1-1,0V66.75h-5.2v49.08h5.2V77.31a.5.5,0,1,1,1,0v39A.5.5,0,0,1,128,116.83Z"/><path class="cls-shipment-2" d="M139.28,116.83h-6.2a.5.5,0,0,1-.5-.5V66.25a.5.5,0,0,1,.5-.5h6.2a.5.5,0,0,1,.5.5v45.64a.5.5,0,0,1-1,0V66.75h-5.2v49.08h5.7a.5.5,0,0,1,0,1Z"/></svg>