<svg style="position: absolute; width: 0; height: 0; overflow: hidden;" version="1.1" xmlns="http://www.w3.org/2000/svg" xmlns:xlink="http://www.w3.org/1999/xlink">
<defs>
<symbol id="icon-download" viewBox="0 0 32 32">
<title>download</title>
<path class="path1" d="M27.179 20.394v7.31h-22.36v-7.31h-4.298v9.459c0 1.186 0.961 2.148 2.152 2.148h26.651c1.19 0 2.152-0.961 2.152-2.148v-9.459h-4.298z"></path>
<path class="path2" d="M15.606 19.669l-6.153-7.435c0 0-0.936-0.884 0.079-0.884s3.467 0 3.467 0 0-0.595 0-1.511c0-2.614 0-7.372 0-9.311 0 0-0.138-0.527 0.656-0.527 0.801 0 4.307 0 4.88 0 0.572 0 0.559 0.444 0.559 0.444 0 1.881 0 6.803 0 9.332 0 0.82 0 1.351 0 1.351s1.966 0 3.2 0c1.232 0 0.304 0.925 0.304 0.925s-5.235 6.949-5.965 7.678c-0.525 0.528-1.029-0.062-1.029-0.062z"></path>
</symbol>
<symbol id="icon-arrow" viewBox="0 0 32 32">
<title>arrow</title>
<path class="path1" d="M32 16l-9.412-9.412v6.4h-22.588v5.647h22.588v6.776z"></path>
</symbol>
<symbol id="icon-arrow-up" viewBox="0 0 32 32">
<title>arrow-up</title>
<path class="path1" d="M0 24l16-16 16 16h-32zM10.773 24h9.6z"></path>
</symbol>
<symbol id="icon-calendar" viewBox="0 0 35 32">
<title>calendar</title>
<path class="path1" d="M26.182 2.182v-2.182h-1.455v2.182h-14.545v-2.182h-1.455v2.182h-8.727v29.818h34.909v-29.818h-8.727zM33.455 30.545h-32v-21.091h32v21.091zM33.455 8h-32v-4.364h7.273v2.182h1.455v-2.182h14.545v2.182h1.455v-2.182h7.273v4.364zM16.727 16.48l-2.909 0.975v-1.455l4.364-1.455v10.909h-1.455v-8.975z"></path>
</symbol>
<symbol id="icon-Capital" viewBox="0 0 32 32">
<title>Capital</title>
<path class="path1" d="M29.349 8.229c0.274 0.183 0.366 0.549 0.366 0.823v6.583c0 0.823-0.274 1.554-0.823 2.194l-1.006 1.189-0.914 12.251c0 0.457-0.366 0.731-0.823 0.731h-2.743c-0.457 0-0.823-0.274-0.823-0.731l-0.914-12.251-0.549-0.64c0.64-0.823 1.006-1.737 1.006-2.743v-6.583c0-0.64-0.274-1.189-0.731-1.554v0c0.549-0.366 1.189-0.731 1.737-1.006 0.091 0 0.091-0.091 0.091-0.091v-0.823c-0.183-0.274-0.274-0.64-0.366-1.006-0.366-0.091-0.457-0.366-0.457-0.731-0.183-0.731 0-0.823 0.183-0.823h0.091c-0.183-0.366-0.274-0.731-0.091-1.189 0.091-0.366 0.274-0.731 0.549-1.006 0.183-0.183 0.366-0.366 0.549-0.457s0.366-0.183 0.549-0.274v0c0.183-0.091 0.366-0.091 0.457-0.091h0.183c0.366 0 0.731 0.091 1.006 0.274 0.274 0.091 0.457 0.274 0.549 0.549 0 0 1.097 0.091 0.549 2.377 0.183 0.091 0.274 0.274 0.091 0.823 0 0.274-0.183 0.549-0.457 0.731 0 0-0.091 0-0.091-0.091 0 0.274-0.091 0.549-0.274 0.823v0.823c0 0 0 0.091 0.091 0.091 1.189 0.549 2.103 1.097 3.017 1.829zM9.417 31.269l0.914-12.251 0.549-0.64c-0.64-0.823-0.914-1.737-0.914-2.743v-6.583c0-0.64 0.274-1.189 0.731-1.554v0c-0.549-0.366-1.189-0.731-1.829-1.006 0 0 0-0.091 0-0.183v-0.823c0.091-0.274 0.183-0.549 0.274-0.823 0 0 0.091 0.091 0.091 0.091 0.274-0.183 0.366-0.457 0.457-0.731 0.183-0.549 0.091-0.823-0.091-0.823 0.457-2.286-0.64-2.377-0.64-2.377-0.183-0.183-0.366-0.366-0.549-0.549-0.366-0.183-0.731-0.183-1.006-0.183h-0.183c-0.183 0-0.366 0-0.457 0.091v0c-0.274 0-0.457 0.091-0.64 0.274-0.183 0.091-0.366 0.274-0.549 0.457-0.274 0.274-0.457 0.64-0.549 1.006s-0.091 0.823 0 1.189v0c-0.183 0-0.366 0.183-0.183 0.823 0 0.274 0.183 0.549 0.366 0.731 0.091 0.366 0.183 0.64 0.366 1.006v0.731c0 0 0 0.091-0.091 0.091-1.006 0.549-2.011 1.189-2.926 1.829-0.183 0.274-0.274 0.549-0.274 0.823v6.583c0 0.731 0.274 1.554 0.823 2.103l1.097 1.28 0.823 12.16c0 0.457 0.366 0.731 0.823 0.731h2.743c0.366 0 0.731-0.274 0.823-0.731 0 0 0 0 0 0zM14.263 6.309v-0.731c-0.183-0.274-0.274-0.64-0.366-1.006-0.274-0.183-0.366-0.457-0.366-0.731-0.183-0.731 0-0.823 0.183-0.823h0.091c-0.183-0.366-0.183-0.823-0.091-1.189s0.274-0.731 0.549-1.006c0.183-0.183 0.366-0.366 0.549-0.457s0.366-0.183 0.549-0.274v0c0.183-0.091 0.366-0.091 0.549-0.091h0.183c0.366 0 0.731 0.091 1.006 0.274 0.274 0.091 0.457 0.274 0.549 0.549 0 0 1.097 0.091 0.549 2.377 0.183 0.091 0.274 0.274 0.091 0.823-0.091 0.549-0.274 0.731-0.366 0.731 0 0-0.091 0-0.091-0.091 0 0.274-0.091 0.549-0.274 0.823v0.823c0 0 0 0.091 0.091 0.091 1.006 0.549 2.011 1.097 2.926 1.829 0.274 0.183 0.366 0.457 0.366 0.823v6.583c0 0.823-0.274 1.554-0.823 2.194l-1.006 1.189-0.914 12.251c0 0.457-0.366 0.731-0.823 0.731h-2.743c-0.457 0-0.823-0.274-0.823-0.731l-0.914-12.251-1.097-1.189c-0.549-0.549-0.823-1.371-0.823-2.103v-6.674c0-0.274 0.091-0.549 0.366-0.823 0.914-0.731 1.92-1.371 2.926-1.829 0 0 0-0.091 0-0.091v0zM15.726 8.686l-0.457 4.297 0.823 0.914 0.823-0.914-0.457-4.297c1.006-1.463-0.091-1.463-0.274-1.463v0c-0.366-0.091-1.463 0-0.457 1.463v0z"></path>
</symbol>
<symbol id="icon-chart" viewBox="0 0 32 32">
<title>chart</title>
<path class="path1" d="M16 31.853h0.587c8.807-0.294 15.706-7.633 15.413-16.44-0.294-8.367-7.046-15.119-15.413-15.413v0h-0.587c-8.807 0-16 7.046-16.147 15.853 0 8.807 7.046 16 15.853 16 0.147 0 0.147 0 0.294 0zM16.587 12.624c0.294 0 0.587-0.294 0.587-0.587s-0.294-0.587-0.587-0.587v0-3.229c0.294 0 0.587-0.294 0.587-0.587s-0.294-0.587-0.587-0.587v0-3.229c0.294 0 0.587-0.294 0.587-0.587s-0.294-0.587-0.587-0.587v0-1.468c0.587 0 1.174 0.147 1.615 0.147 0 0.294 0.294 0.44 0.587 0.44 0.147-0.147 0.294-0.147 0.294-0.294 6.752 1.468 11.743 7.486 11.743 14.532h-14.385v-3.376h0.147zM1.174 14.972c0-0.147 0-0.294 0-0.587 0-0.147 0-0.147 0-0.294s0-0.294 0-0.44c0-0.147 0-0.147 0-0.294s0-0.294 0.147-0.44c0-0.147 0-0.147 0-0.294s0-0.294 0.147-0.44c0-0.147 0-0.147 0.147-0.294 0-0.147 0-0.294 0.147-0.44s0-0.147 0.147-0.294 0.147-0.294 0.147-0.44c0-0.147 0.147-0.147 0.147-0.294s0.147-0.294 0.147-0.44c0-0.147 0.147-0.147 0.147-0.294s0.147-0.294 0.147-0.44c0-0.147 0.147-0.147 0.147-0.294h0.147c0-0.147 0-0.147 0.147-0.294 0-0.147 0.147-0.294 0.147-0.294s0.147-0.147 0.147-0.294 0.147-0.147 0.147-0.294l0.147-0.294c0.147-0.147 0.294-0.294 0.294-0.294 0-0.147 0.147-0.147 0.147-0.294 0.147-0.147 0.294-0.294 0.294-0.294s0.147-0.147 0.147-0.294 0.147-0.147 0.294-0.294c0 0 0.147-0.147 0.147-0.294s0.147-0.147 0.294-0.294c0 0 0.147-0.147 0.294-0.147l0.294-0.294c0.147 0 0.147-0.147 0.294-0.147s0.147-0.147 0.294-0.294 0.147-0.147 0.147-0.147 0.147-0.147 0.294-0.294 0.147-0.147 0.294-0.147 0.147-0.147 0.294-0.147 0.147-0.147 0.294-0.147 0.147-0.147 0.294-0.147c0.147 0 0.147-0.147 0.294-0.147 0.147-0.294 0.294-0.294 0.44-0.44 0 0 0.147-0.147 0.294-0.147s0.147-0.147 0.294-0.147c0.147 0 0.147-0.147 0.294-0.147s0.294-0.147 0.294-0.147l0.294-0.147c0.147 0 0.294-0.147 0.294-0.147 0.147 0 0.147 0 0.294-0.147 0.147 0 0.294-0.147 0.294-0.147 0.147 0 0.147 0 0.294-0.147 0.294 0 0.44-0.147 0.734-0.147h0.587c0.147 0 0.294 0 0.294 0s0.294 0 0.44 0c0.147 0 0.294 0 0.294 0 0.147 0 0.294 0 0.44 0s0.294 0 0.44 0c0.147 0 0.294 0 0.44 0s0.294 0 0.44 0h0.147v16h15.119c-0.147 1.174-0.294 2.349-0.734 3.376v0c-0.147 0.294-0.147 0.587-0.294 0.881 0 0 0 0 0 0 0 0.147-0.147 0.147-0.147 0.294 0 0 0 0 0 0-1.615 3.67-4.55 6.459-8.22 7.927 0 0 0 0 0 0-0.294 0.147-0.587 0.294-0.881 0.294v0c-1.028 0.294-2.202 0.587-3.376 0.734v0c-0.147 0-0.44 0-0.587 0v0 0h-0.44c-0.147 0-0.44 0-0.587 0h-0.147c-0.147 0-0.294 0-0.44 0s-0.294 0-0.44 0h-0.881c-0.147 0-0.294 0-0.294 0-0.147 0-0.294 0-0.44 0s-0.294 0-0.294 0l-0.587-0.294c-0.147 0-0.294 0-0.294-0.147-0.147 0-0.147 0-0.294-0.147s-0.294 0-0.294-0.147l-0.294-0.147-0.587-0.44-0.294-0.147c-0.147 0-0.294-0.147-0.294-0.147-0.147 0-0.147-0.147-0.294-0.147s-0.294-0.147-0.294-0.147c-0.147 0-0.147-0.147-0.294-0.147s-0.147-0.147-0.294-0.147c-0.147 0-0.147-0.147-0.294-0.147s-0.147-0.147-0.294-0.147-0.147-0.147-0.294-0.147l-0.294-0.147c-0.147 0-0.147-0.147-0.294-0.147-0.147-0.147-0.147-0.147-0.294-0.294s-0.147-0.147-0.294-0.147-0.147-0.147-0.294-0.294c-0.147 0-0.147-0.147-0.294-0.147l-0.294-0.294c0 0-0.147-0.147-0.294-0.294s-0.147-0.147-0.294-0.294c0 0-0.147-0.147-0.147-0.294-0.147-0.147-0.147-0.147-0.294-0.294 0 0-0.147-0.147-0.147-0.294-0.147-0.147-0.147-0.147-0.294-0.294l-0.147-0.294c-0.147-0.147-0.147-0.147-0.294-0.294l-0.147-0.294c0-0.147-0.147-0.147-0.147-0.294s-0.147-0.147-0.147-0.294c0-0.147-0.147-0.147-0.147-0.294s-0.147-0.294-0.147-0.294c0-0.147-0.147-0.294-0.147-0.294 0-0.147-0.147-0.147-0.147-0.294s-0.147-0.44-0.294-0.44-0.147-0.147-0.147-0.294-0.147-0.294-0.147-0.44l-0.147-0.294c0-0.147-0.147-0.294-0.147-0.44s0-0.147-0.147-0.294c0-0.147 0-0.294-0.147-0.44 0-0.147 0-0.147-0.147-0.294 0-0.147 0-0.294-0.147-0.44 0-0.147 0-0.147 0-0.294s0-0.294-0.147-0.44c0-0.147 0-0.147 0-0.294s0-0.294 0-0.44c0-0.147 0-0.147 0-0.294s0-0.294 0-0.44c0-0.147 0-0.147 0-0.294 0-0.294 0-0.44 0-0.734s0-0.587 0-0.734c0.147 0 0.147 0 0.147-0.147v0zM18.789 14.826c0.294 0 0.587-0.294 0.587-0.587s-0.294-0.44-0.734-0.44c-0.294 0-0.587 0.294-0.587 0.587 0.147 0.147 0.294 0.44 0.734 0.44zM18.789 10.422c0.294 0 0.587-0.294 0.587-0.587s-0.294-0.44-0.734-0.44c-0.294 0-0.587 0.294-0.587 0.587 0.147 0.147 0.294 0.44 0.734 0.44zM18.789 6.018c0.294 0 0.587-0.294 0.587-0.587s-0.294-0.44-0.734-0.44c-0.294 0-0.587 0.294-0.587 0.587 0.147 0.147 0.294 0.44 0.734 0.44zM20.991 12.624c0.294 0 0.587-0.294 0.587-0.587s-0.294-0.587-0.587-0.587c-0.294 0-0.587 0.294-0.587 0.587s0.147 0.587 0.587 0.587zM20.991 8.22c0.294 0 0.587-0.294 0.587-0.587s-0.294-0.587-0.587-0.587c-0.294 0-0.587 0.294-0.587 0.587s0.147 0.587 0.587 0.587zM20.991 3.817c0.294 0 0.587-0.294 0.587-0.587s-0.294-0.587-0.587-0.587c-0.294 0-0.587 0.294-0.587 0.587s0.147 0.587 0.587 0.587zM23.193 14.826c0.294 0 0.587-0.294 0.587-0.587s-0.294-0.44-0.734-0.44c-0.294 0-0.587 0.294-0.587 0.587 0.147 0.147 0.294 0.44 0.734 0.44zM23.193 10.422c0.294 0 0.587-0.294 0.587-0.587s-0.294-0.44-0.734-0.44c-0.294 0-0.587 0.294-0.587 0.587 0.147 0.147 0.294 0.44 0.734 0.44zM23.193 6.018c0.294 0 0.587-0.294 0.587-0.587s-0.294-0.44-0.734-0.44c-0.294 0-0.587 0.294-0.587 0.587 0.147 0.147 0.294 0.44 0.734 0.44zM25.395 12.624c0.294 0 0.587-0.294 0.587-0.587s-0.294-0.587-0.587-0.587c-0.294 0-0.587 0.294-0.587 0.587s0.147 0.587 0.587 0.587zM25.395 8.22c0.294 0 0.587-0.294 0.587-0.587s-0.294-0.587-0.587-0.587c-0.294 0-0.587 0.294-0.587 0.587s0.147 0.587 0.587 0.587zM27.596 14.826c0.294 0 0.587-0.294 0.587-0.587s-0.294-0.44-0.734-0.44c-0.294 0-0.587 0.294-0.587 0.587 0.147 0.147 0.294 0.44 0.734 0.44zM27.596 10.422c0.294 0 0.587-0.294 0.587-0.587s-0.294-0.44-0.734-0.44c-0.294 0-0.587 0.294-0.587 0.587 0.147 0.147 0.294 0.44 0.734 0.44zM29.798 12.624c0.294 0 0.587-0.294 0.587-0.587s-0.294-0.587-0.587-0.587c-0.294 0-0.587 0.294-0.587 0.587s0.147 0.587 0.587 0.587z"></path>
</symbol>
<symbol id="icon-facebook" viewBox="0 0 32 32">
<title>facebook</title>
<path class="path1" fill="#475993" d="M27.688 0h-23.376c-2.381 0-4.312 1.931-4.312 4.312v23.376c0 2.382 1.931 4.312 4.312 4.312h11.529l0.020-11.435h-2.971c-0.386 0-0.699-0.312-0.701-0.698l-0.014-3.686c-0.002-0.388 0.313-0.704 0.701-0.704h2.965v-3.562c0-4.133 2.524-6.384 6.211-6.384h3.026c0.387 0 0.701 0.314 0.701 0.701v3.108c0 0.387-0.314 0.701-0.701 0.701l-1.857 0.001c-2.005 0-2.393 0.953-2.393 2.351v3.083h4.406c0.42 0 0.746 0.367 0.696 0.784l-0.437 3.686c-0.042 0.353-0.341 0.619-0.696 0.619h-3.949l-0.020 11.435h6.86c2.381 0 4.312-1.931 4.312-4.312v-23.376c0-2.382-1.931-4.312-4.312-4.312z"></path>
</symbol>
<symbol id="icon-google-plus-symbol" viewBox="0 0 32 32">
<title>google-plus-symbol</title>
<path class="path1" d="M18.413 20.375c-0.34-0.455-0.715-0.879-1.125-1.269s-0.821-0.747-1.231-1.067c-0.41-0.32-0.785-0.628-1.125-0.923s-0.615-0.602-0.827-0.923-0.317-0.647-0.317-0.981c0-0.462 0.148-0.894 0.442-1.298s0.654-0.795 1.077-1.173c0.423-0.378 0.846-0.792 1.269-1.24s0.782-1.042 1.077-1.779c0.295-0.737 0.442-1.58 0.442-2.529 0-1.128-0.25-2.212-0.75-3.25s-1.205-1.846-2.115-2.423h2.596l2.596-1.519h-8.403c-1.192 0-2.391 0.128-3.596 0.385-1.782 0.397-3.282 1.305-4.5 2.721s-1.827 3.022-1.827 4.817c0 1.897 0.683 3.474 2.048 4.731s3.003 1.884 4.913 1.884c0.385 0 0.833-0.032 1.346-0.096-0.026 0.102-0.070 0.24-0.134 0.413s-0.116 0.311-0.154 0.414c-0.038 0.102-0.071 0.227-0.096 0.375s-0.038 0.298-0.038 0.452c0 0.846 0.41 1.801 1.231 2.865-0.974 0.026-1.936 0.112-2.884 0.26s-1.942 0.378-2.981 0.692c-1.038 0.314-1.968 0.769-2.788 1.365s-1.436 1.304-1.846 2.125c-0.474 0.949-0.712 1.814-0.712 2.596 0 0.859 0.192 1.638 0.577 2.337s0.878 1.269 1.481 1.711c0.603 0.443 1.298 0.814 2.087 1.116s1.57 0.516 2.346 0.644c0.776 0.128 1.542 0.192 2.298 0.192 3.436 0 6.128-0.84 8.077-2.519 1.795-1.564 2.692-3.372 2.692-5.423 0-0.731-0.106-1.413-0.317-2.048s-0.487-1.18-0.827-1.635zM11 13.385c-0.654 0-1.276-0.167-1.865-0.5s-1.090-0.766-1.5-1.298c-0.41-0.532-0.769-1.131-1.077-1.798s-0.535-1.333-0.683-2c-0.147-0.666-0.221-1.301-0.221-1.904 0-1.231 0.327-2.288 0.981-3.173s1.577-1.327 2.769-1.327c0.846 0 1.612 0.263 2.298 0.788s1.224 1.192 1.615 2c0.391 0.808 0.692 1.644 0.904 2.509s0.317 1.683 0.317 2.452c0 1.282-0.279 2.311-0.836 3.087s-1.458 1.163-2.702 1.163zM16.317 27.826c-0.352 0.603-0.83 1.074-1.432 1.413s-1.247 0.59-1.933 0.75c-0.686 0.161-1.407 0.241-2.163 0.241-0.821 0-1.635-0.096-2.442-0.289s-1.58-0.484-2.317-0.875c-0.737-0.391-1.333-0.929-1.788-1.615s-0.683-1.465-0.683-2.337c0-0.769 0.173-1.455 0.519-2.058s0.789-1.083 1.327-1.442c0.538-0.359 1.167-0.654 1.885-0.884s1.41-0.391 2.077-0.481c0.666-0.090 1.346-0.134 2.038-0.134 0.423 0 0.744 0.013 0.962 0.038 0.077 0.052 0.272 0.186 0.587 0.404s0.526 0.366 0.635 0.443c0.109 0.077 0.308 0.224 0.596 0.442s0.493 0.381 0.615 0.49c0.121 0.109 0.298 0.272 0.529 0.49s0.401 0.407 0.51 0.567c0.109 0.16 0.244 0.356 0.404 0.586s0.272 0.452 0.337 0.664c0.064 0.212 0.125 0.442 0.182 0.692s0.086 0.51 0.086 0.779c0 0.807-0.176 1.513-0.529 2.115z"></path>
<path class="path2" d="M27.077 4.923v-4.923h-2.462v4.923h-4.923v2.462h4.923v4.923h2.462v-4.923h4.923v-2.462z"></path>
</symbol>
<symbol id="icon-hub" viewBox="0 0 32 32">
<title>hub</title>
<path class="path1" d="M0 0v32h32v-32h-32zM22.298 28.766h-12.766v-1.532h12.766v1.532zM22.298 24h-12.766v-1.532h12.766v1.532zM22.298 19.064h-12.766v-1.532h12.766v1.532zM22.298 14.298h-12.766v-1.532h12.766v1.532zM28.766 28.766h-3.234v-19.234h-19.064v19.234h-3.234v-25.532h25.532v25.532z"></path>
</symbol>
<symbol id="icon-kfh-shape" viewBox="0 0 32 32">
<title>kfh-shape</title>
<path class="path1" fill="#f6f7f8" d="M16 0c-8.837 0-16 7.163-16 16s7.163 16 16 16c8.837 0 16-7.163 16-16-0.014-8.831-7.169-15.986-15.999-16zM16 20.427c-2.455 0-4.444-1.99-4.444-4.444s1.99-4.444 4.444-4.444c2.455 0 4.444 1.99 4.444 4.444 0 0.006 0 0.012 0 0.019 0-0.001 0-0.001 0-0.001 0 2.445-1.982 4.427-4.427 4.427-0.006 0-0.012 0-0.019 0zM2.293 16c0.008-7.241 5.625-13.167 12.739-13.669l0.043 7.251c-3.165 0.471-5.564 3.17-5.564 6.429 0 0.867 0.17 1.694 0.478 2.45l-6.291 3.583c-0.883-1.764-1.401-3.843-1.404-6.043zM16 29.707c-4.723-0.001-8.887-2.393-11.347-6.032l6.245-3.675c1.196 1.521 3.036 2.489 5.102 2.489s3.906-0.968 5.092-2.475l6.286 3.613c-2.491 3.687-6.655 6.079-11.378 6.080zM22.027 18.418c0.292-0.713 0.462-1.54 0.462-2.407 0-3.259-2.4-5.957-5.529-6.425l-0.036-7.258c7.161 0.497 12.782 6.428 12.782 13.672 0 2.201-0.519 4.28-1.441 6.123z"></path>
</symbol>
<symbol id="icon-live-stream" viewBox="0 0 26 32">
<title>live-stream</title>
<path class="path1" d="M23.865 20.481l0.018 0.108v-0.036l0.018 0.036 0.018-0.108h-0.054zM22.173 15.388c0.274-0.616 0.879-1.039 1.583-1.044 0.001 0 0.001 0 0.001 0 0.939 0 1.701 0.761 1.701 1.701s-0.761 1.701-1.701 1.701c0 0 0 0 0 0-0.003 0-0.007 0-0.010 0-0.137 0-0.27-0.020-0.396-0.057l0.010 0.003c-0.047-0.004-0.089-0.017-0.128-0.037-0.676-0.266-1.148-0.914-1.15-1.673-0.001-0.019-0.001-0.041-0.001-0.063 0-0.112 0.014-0.221 0.039-0.325 0.009-0.071 0.027-0.144 0.054-0.213zM23.919 20.481l-0.018 0.108-0.018 0.018v-0.018l-0.018-0.108h0.054zM17.224 22.173c-0.371-0.008-0.706-0.157-0.954-0.396-1.489-1.483-2.411-3.536-2.411-5.804s0.922-4.321 2.411-5.804c0.245-0.242 0.582-0.392 0.954-0.392s0.709 0.15 0.954 0.392c0.25 0.241 0.405 0.579 0.405 0.954s-0.155 0.712-0.404 0.954c-0.989 0.998-1.6 2.372-1.602 3.887 0 0.006 0 0.013 0 0.020 0 1.511 0.612 2.878 1.602 3.868 0.25 0.245 0.405 0.586 0.405 0.963s-0.155 0.718-0.404 0.963c-0.246 0.242-0.582 0.392-0.953 0.396zM11.95 26.529c-0.001 0-0.003 0-0.005 0-0.371 0-0.707-0.151-0.949-0.396-2.602-2.599-4.212-6.192-4.212-10.16s1.61-7.56 4.211-10.16c0.247-0.265 0.598-0.43 0.988-0.43 0.745 0 1.35 0.604 1.35 1.35 0 0.389-0.165 0.74-0.429 0.987-2.111 2.113-3.416 5.031-3.416 8.253s1.305 6.139 3.415 8.252c0.25 0.241 0.405 0.579 0.405 0.954s-0.155 0.712-0.404 0.954c-0.238 0.245-0.57 0.396-0.937 0.396-0.006 0-0.012 0-0.018 0zM7.379 31.982c-0.001 0-0.003 0-0.005 0-0.371 0-0.707-0.151-0.949-0.396-3.995-3.996-6.466-9.516-6.466-15.613s2.471-11.617 6.466-15.613c0.246-0.248 0.586-0.401 0.963-0.401 0.749 0 1.355 0.607 1.355 1.355 0 0.372-0.15 0.709-0.393 0.954-3.511 3.506-5.683 8.352-5.683 13.705s2.172 10.199 5.683 13.705c0.244 0.244 0.395 0.582 0.395 0.954 0 0.745-0.604 1.35-1.35 1.35-0.006 0-0.012 0-0.018 0z"></path>
</symbol>
<symbol id="icon-map" viewBox="0 0 32 32">
<title>map</title>
<path class="path1" d="M16 0c-8.832 0-16 7.168-16 16s7.168 16 16 16 16-7.168 16-16-7.168-16-16-16zM16 30.4c-7.968 0-14.4-6.464-14.4-14.4 0-7.968 6.432-14.4 14.4-14.4s14.4 6.432 14.4 14.4c0 7.936-6.464 14.4-14.4 14.4z"></path>
<path class="path2" d="M19.264 1.984v0 0z"></path>
<path class="path3" d="M25.92 26.432v0 0z"></path>
<path class="path4" d="M5.728 26.080v0 0z"></path>
<path class="path5" d="M29.888 19.776v0 0z"></path>
<path class="path6" d="M30.112 13.216v0 0z"></path>
<path class="path7" d="M29.952 12.48v0 0z"></path>
<path class="path8" d="M30.080 19.072v0c0 0 0 0 0 0s0 0 0 0z"></path>
<path class="path9" d="M5.568 6.080v0 0z"></path>
<path class="path10" d="M18.784 30.112v0 0z"></path>
<path class="path11" d="M12.928 1.92c0 0 0 0 0 0s0 0 0 0v0z"></path>
<path class="path12" d="M10.304 15.776c-0.704 0-1.248 0.576-1.248 1.248l1.248 1.92 1.248-1.92c0-0.704-0.576-1.248-1.248-1.248zM10.304 17.504c-0.32 0-0.576-0.256-0.576-0.576s0.256-0.576 0.576-0.576c0.32 0 0.576 0.256 0.576 0.576s-0.256 0.576-0.576 0.576z"></path>
<path class="path13" d="M17.312 1.664c0.192 0.032 0.352 0.032 0.544 0.064-0.192-0.032-0.352-0.064-0.544-0.064z"></path>
<path class="path14" d="M16.672 1.632c0.128 0 0.288 0.032 0.416 0.032-0.128-0.032-0.288-0.032-0.416-0.032z"></path>
<path class="path15" d="M14.464 1.696c0.224-0.032 0.448-0.032 0.672-0.064-0.224 0-0.448 0.032-0.672 0.064z"></path>
<path class="path16" d="M12.928 1.92c0.48-0.096 0.96-0.192 1.472-0.224-0.48 0.064-0.992 0.128-1.472 0.224z"></path>
<path class="path17" d="M15.232 1.632c0.256-0.032 0.512-0.032 0.768-0.032-0.256 0-0.512 0-0.768 0.032z"></path>
<path class="path18" d="M29.888 19.776c0.064-0.224 0.128-0.48 0.16-0.704-0.032 0.224-0.096 0.48-0.16 0.704z"></path>
<path class="path19" d="M19.264 1.984c-0.448-0.096-0.896-0.192-1.344-0.256 0.192 0.032 0.384 0.064 0.608 0.096 0.256 0.032 0.512 0.096 0.736 0.16z"></path>
<path class="path20" d="M29.952 12.48c0.064 0.256 0.128 0.48 0.16 0.736-0.032-0.256-0.096-0.512-0.16-0.736z"></path>
<path class="path21" d="M10.752 22.688l6.080 6.080c0.672-0.032 1.344-0.128 1.984-0.288l-6.912-6.944-1.152 1.152z"></path>
<path class="path22" d="M10.4 9.248l-2.848-2.848c-0.416 0.352-0.768 0.736-1.12 1.12l2.848 2.848 1.12-1.12z"></path>
<path class="path23" d="M21.92 22.080l-1.12-1.152 0.64-0.64-9.92-9.92-1.12 1.152 4.64 4.64 0.576-0.576 1.12 1.12-0.576 0.576 8.32 8.32c0.416-0.352 0.768-0.736 1.12-1.12l-3.040-3.040-0.64 0.64z"></path>
<path class="path24" d="M15.712 3.936l-0.704-0.704c-0.672 0.064-1.312 0.16-1.952 0.288l1.536 1.536 1.12-1.12z"></path>
<path class="path25" d="M15.695 6.215l1.131-1.132 9.912 9.911-1.131 1.132-9.912-9.911z"></path>
<path class="path26" d="M27.872 16.128l-1.12 1.12 1.696 1.696c0.16-0.64 0.256-1.28 0.288-1.952l-0.864-0.864z"></path>
<path class="path27" d="M10.24 22.144l1.12-1.12 0.512 0.512 4.288-4.256-1.12-1.12-8.48 8.48c0.352 0.384 0.736 0.768 1.152 1.12l3.072-3.072-0.544-0.544z"></path>
<path class="path28" d="M10.237 22.146l1.131-1.131 0.52 0.52-1.131 1.131-0.52-0.52z"></path>
<path class="path29" d="M15.047 16.154l0.566-0.566 1.131 1.132-0.566 0.566-1.131-1.132z"></path>
<path class="path30" d="M21.453 20.298l4.187-4.185 1.131 1.132-4.187 4.185-1.131-1.132z"></path>
<path class="path31" d="M27.872 16.128l0.896-0.896c-0.032-0.672-0.128-1.344-0.288-1.984l-1.76 1.76 1.152 1.12z"></path>
<path class="path32" d="M21.92 22.080l-1.12-1.152 0.672-0.672 1.088 1.184z"></path>
<path class="path33" d="M25.627 16.127l1.132-1.131 1.131 1.132-1.132 1.131-1.131-1.132z"></path>
<path class="path34" d="M4.064 15.584c0.32-0.32 0.832-0.32 1.12 0s0.32 0.832 0 1.12c-0.032 0.032-0.096 0.064-0.128 0.096v0l5.344-5.28-1.12-1.12-5.216 5.184z"></path>
<path class="path35" d="M3.968 15.712v0c0.032-0.032 0.064-0.064 0.128-0.128l-0.128 0.128z"></path>
<path class="path36" d="M10.414 9.258l4.186-4.186 1.131 1.131-4.186 4.186-1.131-1.131z"></path>
<path class="path37" d="M16.832 5.088l1.632-1.632c-0.672-0.128-1.344-0.192-2.016-0.224l-0.736 0.736 1.12 1.12z"></path>
<path class="path38" d="M9.272 10.398l1.131-1.131 1.131 1.131-1.131 1.131-1.131-1.131z"></path>
<path class="path39" d="M14.587 5.087l1.132-1.131 1.131 1.132-1.132 1.131-1.131-1.132z"></path>
<path class="path40" d="M4.064 16.704c0.288 0.288 0.704 0.32 0.992 0.096l-1.12-1.12c-0.16 0.352-0.128 0.768 0.128 1.024z"></path>
<path class="path41" d="M5.216 15.584c-0.32-0.32-0.832-0.32-1.12 0-0.032 0.032-0.064 0.096-0.096 0.128l1.12 1.12c0.032-0.032 0.096-0.064 0.128-0.096 0.256-0.32 0.256-0.832-0.032-1.152z"></path>
</symbol>
<symbol id="icon-menu" viewBox="0 0 32 32">
<title>menu</title>
<path class="path1" d="M2 6h28v6h-28zM2 14h28v6h-28zM2 22h28v6h-28z"></path>
</symbol>
<symbol id="icon-Office" viewBox="0 0 32 32">
<title>Office</title>
<path class="path1" d="M21.137 1.263l-3.621 4.379h-17.516v25.095h32v-29.474h-10.863z"></path>
</symbol>
<symbol id="icon-pinterest" viewBox="0 0 32 32">
<title>pinterest</title>
<path class="path1" fill="#c8232c" d="M16 0c8.837 0 16 7.164 16 16 0 8.837-7.163 16-16 16s-16-7.163-16-16c0-8.836 7.163-16 16-16z"></path>
<path class="path2" fill="#fff" d="M16.484 7.006c-5.638 0-8.479 3.914-8.479 7.177 0 1.976 0.772 3.734 2.43 4.389 0.271 0.107 0.516 0.004 0.594-0.287l0.242-0.923c0.080-0.287 0.049-0.389-0.17-0.64-0.479-0.545-0.783-1.252-0.783-2.253 0-2.903 2.243-5.502 5.841-5.502 3.187 0 4.937 1.885 4.937 4.402 0 3.312-1.514 6.108-3.762 6.108-1.24 0-2.17-0.993-1.872-2.214 0.356-1.454 1.048-3.025 1.048-4.076 0-0.939-0.521-1.725-1.601-1.725-1.269 0-2.288 1.271-2.288 2.974 0 1.085 0.379 1.818 0.379 1.818l-1.527 6.261c-0.453 1.857-0.067 4.135-0.035 4.365 0.020 0.136 0.2 0.168 0.282 0.066 0.117-0.148 1.628-1.955 2.142-3.761 0.146-0.511 0.835-3.158 0.835-3.158 0.412 0.763 1.617 1.433 2.898 1.433 3.813 0 6.401-3.367 6.401-7.873-0.001-3.407-2.981-6.581-7.512-6.581z"></path>
</symbol>
<symbol id="icon-print" viewBox="0 0 32 32">
<title>print</title>
<path class="path1" d="M30.011 0h-28c-0.005 0-0.010 0-0.016 0-1.1 0-1.992 0.89-1.995 1.988v16c0 0.003 0 0.007 0 0.011 0 1.105 0.895 2 2 2 0.004 0 0.008 0 0.012 0h3.314v-6.674h21.349v6.674h3.337c1.099-0.004 1.989-0.896 1.989-1.995 0-0.006 0-0.011 0-0.017v-15.999c-0.001-1.098-0.891-1.987-1.988-1.989zM26.011 8c-0.003 0-0.007 0-0.011 0-1.105 0-2-0.895-2-2s0.895-2 2-2c1.101 0 1.993 0.889 2 1.988 0 0.004 0 0.008 0 0.012 0 1.101-0.889 1.994-1.988 2zM8 16h16v15.337c0 0.366-0.297 0.663-0.663 0.663h-14.674c-0.366 0-0.663-0.297-0.663-0.663v-15.337z"></path>
</symbol>
<symbol id="icon-Search" viewBox="0 0 32 32">
<title>Search</title>
<path class="path1" d="M32 30.599c0-0.234-0.234-0.701-0.467-0.934l-7.007-7.007c1.401-1.635 2.336-3.737 2.803-5.839v0c0.234-0.934 0.234-2.102 0.234-3.037 0-7.708-6.307-13.781-14.015-13.781-3.504 0-7.007 1.401-9.577 3.971s-3.971 6.307-3.971 9.81c0 7.708 6.307 13.781 13.781 13.781 0 0 0 0 0 0 3.27 0 6.307-1.168 8.876-3.27l7.007 7.007c0.234 0.234 0.467 0.467 0.934 0.467 0.234 0 0.701-0.234 0.934-0.467 0.234 0 0.467-0.234 0.467-0.701zM21.956 5.839c2.102 2.102 3.27 5.139 3.27 7.942 0 0.934 0 1.635-0.234 2.569-0.467 2.102-1.635 3.971-3.037 5.606v0c-2.102 2.102-4.905 3.27-7.942 3.27s-5.839-1.168-7.942-3.27c-2.336-2.102-3.504-5.139-3.504-8.175 0-6.307 4.905-11.212 11.212-11.445 0 0 0.234 0 0.234 0 2.803 0.234 5.839 1.401 7.942 3.504v0z"></path>
</symbol>
<symbol id="icon-Servers" viewBox="0 0 32 32">
<title>Servers</title>
<path class="path1" d="M0.089 0v8.889h24.178v-8.889h-24.178zM8.533 5.067h-4.267v-1.333h4.178l0.089 1.333zM18.933 5.422c-0.533 0-0.978-0.444-0.978-0.978s0.444-0.978 0.978-0.978c0.533 0 0.978 0.444 0.978 0.978 0 0 0 0 0 0 0.089 0.533-0.444 0.978-0.978 0.978v0zM24 18.756h-0.267c-0.8 0-1.422 0.533-1.422 1.333 0 0 0 0 0 0v1.778h3.022v-1.778c0-0.711-0.533-1.333-1.333-1.333 0 0 0 0 0 0v0zM23.822 15.378c-4.356 0.178-7.733 3.822-7.644 8.178 0.178 4.356 3.822 7.733 8.178 7.644 4.267-0.178 7.644-3.644 7.644-7.911-0.089-4.444-3.733-7.911-8.178-7.911v0zM28.178 28h-8.711v-6.133h1.422v-1.778c0-1.511 1.244-2.756 2.756-2.756h0.356c1.511 0 2.756 1.156 2.756 2.667 0 0 0 0 0 0v1.778h1.422v6.222zM14.222 23.378v-0.267h-14.222v8.889h20.178c-3.556-1.422-5.867-4.8-5.956-8.622v0zM8.444 28.178h-4.178v-1.333h4.178v1.333zM23.822 14.044h0.444v-2.578h-24.178v8.889h14.756c1.333-3.822 4.978-6.311 8.978-6.311v0zM4.267 16.622v-1.333h4.178v1.333h-4.178z"></path>
</symbol>
<symbol id="icon-share" viewBox="0 0 24 32">
<title>share</title>
<path class="path1" d="M19.029 22c-1.058 0.001-2.039 0.33-2.847 0.89l-6.489-5.132c0.205-0.522 0.325-1.126 0.325-1.758-0.002-0.657-0.128-1.284-0.355-1.859l6.419-5.108c0.815 0.6 1.839 0.959 2.947 0.959 2.765 0 5.007-2.242 5.007-5.007s-2.242-5.007-5.007-5.007c-2.765 0-5.007 2.242-5.007 5.007 0 0.001 0 0.002 0 0.003 0 0.004 0 0.008 0 0.012 0 0.578 0.099 1.133 0.281 1.648l-6.516 5.174c-0.782-0.529-1.746-0.844-2.784-0.844-2.77 0-5.015 2.245-5.015 5.015s2.245 5.015 5.015 5.015c1.060 0 2.043-0.329 2.853-0.89l6.487 5.132c-0.2 0.52-0.317 1.122-0.317 1.752 0 2.764 2.241 5.004 5.004 5.004s5.004-2.241 5.004-5.004c0-2.764-2.241-5.004-5.004-5.004-0.001 0-0.001 0-0.002 0z"></path>
</symbol>
<symbol id="icon-Trucks" viewBox="0 0 32 32">
<title>Trucks</title>
<path class="path1" d="M13.41 20.533v0.648c-0.19 0.952-1.067 1.638-2.057 1.676-0.229 0-0.419-0.038-0.648-0.114-0.19 0.076-0.419 0.114-0.648 0.114-0.343 0-0.686-0.076-0.99-0.267-0.305 0.19-0.648 0.267-0.99 0.267-0.229 0-0.419-0.038-0.648-0.114-0.152 0.076-0.343 0.114-0.571 0.114-0.381 0-0.724-0.114-1.029-0.305-0.495 0.305-1.105 0.381-1.638 0.19-0.229 0.076-0.457 0.114-0.648 0.114-1.181 0-2.095-0.952-2.095-2.133h-0.229c-0.267 0-1.219-0.152-1.219-1.105v-10.476h29.829l2.171 2.133v9.295h-18.59zM4.762 19.657c-0.571 0-1.067 0.457-1.067 1.029s0.457 1.067 1.029 1.067 1.067-0.457 1.067-1.029c0 0 0 0 0 0 0.038-0.571-0.457-1.067-1.029-1.067 0 0 0 0 0 0zM8.114 19.657c-0.571 0-1.067 0.457-1.067 1.029s0.457 1.067 1.029 1.067 1.067-0.419 1.067-0.99c0 0 0 0 0 0 0.038-0.61-0.457-1.105-1.029-1.105 0 0 0 0 0 0v0zM11.39 19.657c-0.571 0-1.067 0.457-1.067 1.029s0.457 1.067 1.029 1.067 1.067-0.457 1.067-1.029c0 0 0 0 0 0 0-0.571-0.457-1.067-1.029-1.067 0 0 0 0 0 0v0z"></path>
</symbol>
<symbol id="icon-twitter" viewBox="0 0 32 32">
<title>twitter</title>
<path class="path1" fill="#3fa9f5" d="M0.617 24c1.352-0.165 2.723 0.013 4.074-0.209 0.679-0.108 1.301-0.336 1.917-0.578-1.523-0.977-2.894-2.094-4.17-3.433-0.457-0.476-0.127-1.276 0.539-1.295 0.546 0.025 1.079-0.019 1.599-0.127-1.327-1.682-2.355-3.491-3.154-5.521-0.216-0.546 0.419-1.098 0.933-0.933 0.298 0.121 0.603 0.203 0.914 0.267-0.946-2.272-1.142-4.563-0.616-7.076 0.121-0.578 0.882-0.717 1.269-0.336 3.034 2.983 6.867 4.417 10.967 5.102-0.362-2.805 1.631-5.788 4.246-6.765 2.171-0.806 5.084-0.254 6.543 1.574 0.977-0.616 2.329-0.819 3.414-1.009 0.571-0.095 1.123 0.463 0.787 1.028-0.394 0.66-0.768 1.364-1.18 2.037 0.838-0.248 1.701-0.4 2.564-0.508 0.622-0.083 0.996 0.876 0.52 1.257-1.009 0.806-2.012 1.726-3.084 2.462-0.032 7.127-2.113 13.106-8.479 17.161-5.306 3.389-15.168 2.818-19.782-1.796h-0.006c-0.203-0.051-0.311-0.203-0.349-0.368-0.178-0.267-0.051-0.596 0.184-0.723 0.089-0.108 0.203-0.191 0.349-0.209z"></path>
</symbol>
</defs>
</svg>
