<svg style="position: absolute; width: 0; height: 0; overflow: hidden;" version="1.1" xmlns="http://www.w3.org/2000/svg" xmlns:xlink="http://www.w3.org/1999/xlink">
<defs>
<symbol id="icon-facebook" viewBox="0 0 25 25">
<title>facebook</title>
<path class="path1" d="M12.5 0c-6.892 0-12.5 5.608-12.5 12.5s5.608 12.5 12.5 12.5c6.892 0 12.5-5.608 12.5-12.5s-5.607-12.5-12.5-12.5zM15.609 12.94h-2.034c0 3.249 0 7.248 0 7.248h-3.013c0 0 0-3.961 0-7.248h-1.432v-2.562h1.432v-1.657c0-1.187 0.564-3.041 3.041-3.041l2.233 0.009v2.487c0 0-1.357 0-1.621 0s-0.639 0.132-0.639 0.698v1.505h2.296l-0.263 2.561z"></path>
</symbol>
<symbol id="icon-google-plus" viewBox="0 0 25 25">
<title>google-plus</title>
<path class="path1" d="M20.312 0h-15.625c-2.589 0-4.687 2.098-4.687 4.687v15.625c0 2.589 2.098 4.687 4.687 4.687h15.625c2.589 0 4.687-2.098 4.687-4.687v-15.625c0-2.589-2.098-4.687-4.687-4.687zM9.012 20.911c-2.767 0-5.102-1.127-5.102-2.927 0-1.827 2.13-3.591 4.897-3.589l0.864-0.008c-0.378-0.367-0.678-0.819-0.678-1.377 0-0.331 0.106-0.648 0.253-0.931l-0.461 0.016c-2.273 0-3.795-1.617-3.795-3.622 0-1.961 2.102-3.653 4.336-3.653h4.984l-1.119 0.806h-1.58c1.048 0.403 1.606 1.625 1.606 2.878 0 1.052-0.583 1.958-1.406 2.602-0.805 0.63-0.956 0.892-0.956 1.427 0 0.456 0.863 1.231 1.313 1.552 1.317 0.931 1.741 1.795 1.741 3.237-0 1.8-1.742 3.589-4.897 3.589zM21.875 10.967h-3.125v3.12h-1.561v-3.12h-3.127v-1.592h3.127v-3.125h1.561v3.125h3.125v1.592z"></path>
<path class="path2" d="M11.428 8.602c-0.222-1.684-1.442-3.038-2.725-3.077-1.283-0.038-2.144 1.252-1.922 2.939 0.222 1.686 1.442 3.084 2.727 3.122 1.281 0.039 2.144-1.297 1.92-2.984z"></path>
<path class="path3" d="M10.577 15.061c-0.378-0.122-0.795-0.195-1.241-0.2-1.913-0.020-3.625 1.166-3.625 2.592 0 1.456 1.381 2.666 3.294 2.666 2.689 0 3.625-1.137 3.625-2.591 0-0.175-0.023-0.347-0.061-0.514-0.209-0.825-0.955-1.233-1.992-1.953z"></path>
</symbol>
<symbol id="icon-instagram" viewBox="0 0 25 25">
<title>instagram</title>
<path class="path1" d="M12.499 15.002c1.379 0 2.503-1.122 2.503-2.502 0-0.545-0.178-1.048-0.473-1.459-0.455-0.63-1.194-1.044-2.029-1.044s-1.574 0.413-2.030 1.043c-0.296 0.411-0.473 0.914-0.473 1.459-0.002 1.38 1.122 2.503 2.501 2.503z"></path>
<path class="path2" d="M17.964 9.439v-2.41l-2.41 0.008 0.008 2.41z"></path>
<path class="path3" d="M12.5 0c-6.892 0-12.5 5.608-12.5 12.5s5.608 12.5 12.5 12.5c6.892 0 12.5-5.608 12.5-12.5s-5.607-12.5-12.5-12.5zM19.609 11.041v5.821c0 1.516-1.233 2.748-2.748 2.748h-8.723c-1.516 0-2.748-1.232-2.748-2.748v-8.723c0-1.516 1.232-2.748 2.748-2.748h8.722c1.516 0 2.748 1.232 2.748 2.748v2.902z"></path>
<path class="path4" d="M16.389 12.5c0 2.143-1.744 3.889-3.889 3.889s-3.888-1.745-3.888-3.889c0-0.516 0.103-1.009 0.286-1.459h-2.122v5.821c0 0.752 0.611 1.361 1.362 1.361h8.722c0.751 0 1.362-0.609 1.362-1.361v-5.821h-2.123c0.185 0.45 0.289 0.943 0.289 1.459z"></path>
</symbol>
<symbol id="icon-linkedin" viewBox="0 0 25 25">
<title>linkedin</title>
<path class="path1" d="M14.778 10.724c-1.070 0-1.548 0.588-1.815 1.001v-0.858h-2.015c0.026 0.568 0 6.063 0 6.063h2.015v-3.387c0-0.181 0.012-0.363 0.066-0.492 0.146-0.363 0.477-0.738 1.034-0.738 0.729 0 1.021 0.556 1.021 1.372v3.244h2.016v-3.477c-0.001-1.861-0.995-2.727-2.321-2.727zM12.961 11.746h-0.013c0.004-0.007 0.010-0.014 0.013-0.021v0.021z"></path>
<path class="path2" d="M7.816 10.867h2.015v6.063h-2.015v-6.063z"></path>
<path class="path3" d="M12.5 0c-6.892 0-12.5 5.608-12.5 12.5s5.608 12.5 12.5 12.5c6.892 0 12.5-5.608 12.5-12.5s-5.607-12.5-12.5-12.5zM19.129 18.154c0 0.532-0.441 0.962-0.986 0.962h-11.37c-0.544 0-0.985-0.43-0.985-0.962v-11.502c0-0.531 0.442-0.962 0.985-0.962h11.37c0.545 0 0.986 0.431 0.986 0.962v11.502z"></path>
<path class="path4" d="M8.837 7.944c-0.689 0-1.14 0.452-1.14 1.047 0 0.582 0.438 1.047 1.113 1.047h0.013c0.703 0 1.14-0.466 1.14-1.047-0.014-0.595-0.437-1.047-1.127-1.047z"></path>
</symbol>
<symbol id="icon-twitter" viewBox="0 0 25 25">
<title>twitter</title>
<path class="path1" d="M12.5 0c-6.892 0-12.5 5.608-12.5 12.5s5.608 12.5 12.5 12.5c6.892 0 12.5-5.608 12.5-12.5s-5.607-12.5-12.5-12.5zM18.076 9.639c0.006 0.124 0.009 0.249 0.009 0.374 0 3.802-2.893 8.184-8.186 8.184-1.625 0-3.137-0.475-4.41-1.291 0.225 0.027 0.454 0.040 0.686 0.040 1.348 0 2.589-0.46 3.573-1.232-1.259-0.023-2.322-0.855-2.688-1.998 0.175 0.033 0.356 0.052 0.541 0.052 0.262 0 0.517-0.034 0.758-0.1-1.316-0.264-2.308-1.426-2.308-2.821 0-0.012 0-0.025 0.001-0.036 0.388 0.215 0.831 0.345 1.303 0.359-0.771-0.515-1.279-1.396-1.279-2.394 0-0.528 0.141-1.022 0.389-1.447 1.418 1.741 3.539 2.886 5.93 3.007-0.049-0.211-0.074-0.43-0.074-0.656 0-1.589 1.288-2.877 2.877-2.877 0.828 0 1.574 0.349 2.1 0.908 0.656-0.129 1.27-0.368 1.828-0.698-0.217 0.672-0.671 1.236-1.267 1.592 0.583-0.069 1.138-0.224 1.652-0.453-0.384 0.576-0.872 1.083-1.434 1.487z"></path>
</symbol>
<symbol id="icon-youtube" viewBox="0 0 25 25">
<title>youtube</title>
<path class="path1" d="M10.222 15.24c1.876-0.973 3.735-1.936 5.611-2.909-1.882-0.982-3.741-1.951-5.611-2.928 0 1.952 0 3.885 0 5.837z"></path>
<path class="path2" d="M12.5 0c-6.903 0-12.5 5.596-12.5 12.5s5.597 12.5 12.5 12.5 12.5-5.596 12.5-12.5-5.597-12.5-12.5-12.5zM21.017 16.672c-0.216 0.939-0.984 1.631-1.908 1.734-2.189 0.245-4.403 0.246-6.609 0.245-2.206 0.001-4.421 0-6.61-0.245-0.924-0.103-1.691-0.795-1.907-1.734-0.308-1.337-0.308-2.796-0.308-4.172s0.004-2.836 0.311-4.172c0.216-0.939 0.983-1.631 1.907-1.735 2.189-0.245 4.404-0.246 6.61-0.245 2.205-0.001 4.421 0 6.609 0.245 0.925 0.103 1.692 0.796 1.908 1.735 0.308 1.337 0.305 2.796 0.305 4.172s-0.001 2.836-0.308 4.172z"></path>
</symbol>
<symbol id="icon-arrow" viewBox="0 0 25 25">
<title>arrow</title>
<path class="path1" d="M25 12.5l-7.353-7.353v5h-17.647v4.412h17.647v5.294z"></path>
</symbol>
<symbol id="icon-arrow-up" viewBox="0 0 25 25">
<title>arrow-up</title>
<path class="path1" d="M0 18.75l12.5-12.5 12.5 12.5h-25zM8.416 18.75h7.5z"></path>
</symbol>
<symbol id="icon-calendar" viewBox="0 0 27 25">
<title>calendar</title>
<path class="path1" d="M20.455 1.705v-1.705h-1.137v1.705h-11.363v-1.705h-1.137v1.705h-6.818v23.295h27.273v-23.295h-6.818zM26.137 23.863h-25v-16.477h25v16.477zM26.137 6.25h-25v-3.409h5.682v1.705h1.137v-1.705h11.363v1.705h1.137v-1.705h5.682v3.409zM13.068 12.875l-2.273 0.762v-1.137l3.409-1.137v8.523h-1.137v-7.012z"></path>
</symbol>
<symbol id="icon-Capital" viewBox="0 0 25 25">
<title>Capital</title>
<path class="path1" d="M22.929 6.429c0.214 0.143 0.286 0.429 0.286 0.643v5.143c0 0.643-0.214 1.214-0.643 1.714l-0.786 0.929-0.714 9.571c0 0.357-0.286 0.571-0.643 0.571h-2.143c-0.357 0-0.643-0.214-0.643-0.571l-0.714-9.571-0.429-0.5c0.5-0.643 0.786-1.357 0.786-2.143v-5.143c0-0.5-0.214-0.929-0.571-1.214v0c0.429-0.286 0.929-0.571 1.357-0.786 0.071 0 0.071-0.071 0.071-0.071v-0.643c-0.143-0.214-0.214-0.5-0.286-0.786-0.286-0.071-0.357-0.286-0.357-0.571-0.143-0.571 0-0.643 0.143-0.643h0.071c-0.143-0.286-0.214-0.571-0.071-0.929 0.071-0.286 0.214-0.571 0.429-0.786 0.143-0.143 0.286-0.286 0.429-0.357s0.286-0.143 0.429-0.214v0c0.143-0.071 0.286-0.071 0.357-0.071h0.143c0.286 0 0.571 0.071 0.786 0.214 0.214 0.071 0.357 0.214 0.429 0.429 0 0 0.857 0.071 0.429 1.857 0.143 0.071 0.214 0.214 0.071 0.643 0 0.214-0.143 0.429-0.357 0.571 0 0-0.071 0-0.071-0.071 0 0.214-0.071 0.429-0.214 0.643v0.643c0 0 0 0.071 0.071 0.071 0.929 0.429 1.643 0.857 2.357 1.429zM7.357 24.429l0.714-9.571 0.429-0.5c-0.5-0.643-0.714-1.357-0.714-2.143v-5.143c0-0.5 0.214-0.929 0.571-1.214v0c-0.429-0.286-0.929-0.571-1.429-0.786 0 0 0-0.071 0-0.143v-0.643c0.071-0.214 0.143-0.429 0.214-0.643 0 0 0.071 0.071 0.071 0.071 0.214-0.143 0.286-0.357 0.357-0.571 0.143-0.429 0.071-0.643-0.071-0.643 0.357-1.786-0.5-1.857-0.5-1.857-0.143-0.143-0.286-0.286-0.429-0.429-0.286-0.143-0.571-0.143-0.786-0.143h-0.143c-0.143 0-0.286 0-0.357 0.071v0c-0.214 0-0.357 0.071-0.5 0.214-0.143 0.071-0.286 0.214-0.429 0.357-0.214 0.214-0.357 0.5-0.429 0.786s-0.071 0.643 0 0.929v0c-0.143 0-0.286 0.143-0.143 0.643 0 0.214 0.143 0.429 0.286 0.571 0.071 0.286 0.143 0.5 0.286 0.786v0.571c0 0 0 0.071-0.071 0.071-0.786 0.429-1.571 0.929-2.286 1.429-0.143 0.214-0.214 0.429-0.214 0.643v5.143c0 0.571 0.214 1.214 0.643 1.643l0.857 1 0.643 9.5c0 0.357 0.286 0.571 0.643 0.571h2.143c0.286 0 0.571-0.214 0.643-0.571 0 0 0 0 0 0zM11.143 4.929v-0.571c-0.143-0.214-0.214-0.5-0.286-0.786-0.214-0.143-0.286-0.357-0.286-0.571-0.143-0.571 0-0.643 0.143-0.643h0.071c-0.143-0.286-0.143-0.643-0.071-0.929s0.214-0.571 0.429-0.786c0.143-0.143 0.286-0.286 0.429-0.357s0.286-0.143 0.429-0.214v0c0.143-0.071 0.286-0.071 0.429-0.071h0.143c0.286 0 0.571 0.071 0.786 0.214 0.214 0.071 0.357 0.214 0.429 0.429 0 0 0.857 0.071 0.429 1.857 0.143 0.071 0.214 0.214 0.071 0.643-0.071 0.429-0.214 0.571-0.286 0.571 0 0-0.071 0-0.071-0.071 0 0.214-0.071 0.429-0.214 0.643v0.643c0 0 0 0.071 0.071 0.071 0.786 0.429 1.571 0.857 2.286 1.429 0.214 0.143 0.286 0.357 0.286 0.643v5.143c0 0.643-0.214 1.214-0.643 1.714l-0.786 0.929-0.714 9.571c0 0.357-0.286 0.571-0.643 0.571h-2.143c-0.357 0-0.643-0.214-0.643-0.571l-0.714-9.571-0.857-0.929c-0.429-0.429-0.643-1.071-0.643-1.643v-5.214c0-0.214 0.071-0.429 0.286-0.643 0.714-0.571 1.5-1.071 2.286-1.429 0 0 0-0.071 0-0.071v0zM12.286 6.786l-0.357 3.357 0.643 0.714 0.643-0.714-0.357-3.357c0.786-1.143-0.071-1.143-0.214-1.143v0c-0.286-0.071-1.143 0-0.357 1.143v0z"></path>
</symbol>
<symbol id="icon-chart" viewBox="0 0 25 25">
<title>chart</title>
<path class="path1" d="M12.5 24.885h0.459c6.88-0.23 12.27-5.963 12.041-12.844-0.23-6.537-5.505-11.812-12.041-12.041v0h-0.459c-6.88 0-12.5 5.505-12.615 12.385 0 6.88 5.505 12.5 12.385 12.5 0.115 0 0.115 0 0.23 0zM12.959 9.863c0.23 0 0.459-0.23 0.459-0.459s-0.23-0.459-0.459-0.459v0-2.523c0.23 0 0.459-0.23 0.459-0.459s-0.23-0.459-0.459-0.459v0-2.523c0.23 0 0.459-0.23 0.459-0.459s-0.23-0.459-0.459-0.459v0-1.147c0.459 0 0.917 0.115 1.262 0.115 0 0.23 0.23 0.344 0.459 0.344 0.115-0.115 0.23-0.115 0.23-0.23 5.275 1.147 9.174 5.848 9.174 11.353h-11.238v-2.637h0.115zM0.917 11.697c0-0.115 0-0.23 0-0.459 0-0.115 0-0.115 0-0.23s0-0.23 0-0.344c0-0.115 0-0.115 0-0.23s0-0.23 0.115-0.344c0-0.115 0-0.115 0-0.23s0-0.23 0.115-0.344c0-0.115 0-0.115 0.115-0.23 0-0.115 0-0.23 0.115-0.344s0-0.115 0.115-0.23 0.115-0.23 0.115-0.344c0-0.115 0.115-0.115 0.115-0.23s0.115-0.23 0.115-0.344c0-0.115 0.115-0.115 0.115-0.23s0.115-0.23 0.115-0.344c0-0.115 0.115-0.115 0.115-0.23h0.115c0-0.115 0-0.115 0.115-0.23 0-0.115 0.115-0.23 0.115-0.23s0.115-0.115 0.115-0.23 0.115-0.115 0.115-0.23l0.115-0.23c0.115-0.115 0.23-0.23 0.23-0.23 0-0.115 0.115-0.115 0.115-0.23 0.115-0.115 0.23-0.23 0.23-0.23s0.115-0.115 0.115-0.23 0.115-0.115 0.23-0.23c0 0 0.115-0.115 0.115-0.23s0.115-0.115 0.23-0.23c0 0 0.115-0.115 0.23-0.115l0.23-0.23c0.115 0 0.115-0.115 0.23-0.115s0.115-0.115 0.23-0.23 0.115-0.115 0.115-0.115 0.115-0.115 0.23-0.23 0.115-0.115 0.23-0.115 0.115-0.115 0.23-0.115 0.115-0.115 0.23-0.115 0.115-0.115 0.23-0.115c0.115 0 0.115-0.115 0.23-0.115 0.115-0.23 0.23-0.23 0.344-0.344 0 0 0.115-0.115 0.23-0.115s0.115-0.115 0.23-0.115c0.115 0 0.115-0.115 0.23-0.115s0.23-0.115 0.23-0.115l0.23-0.115c0.115 0 0.23-0.115 0.23-0.115 0.115 0 0.115 0 0.23-0.115 0.115 0 0.23-0.115 0.23-0.115 0.115 0 0.115 0 0.23-0.115 0.23 0 0.344-0.115 0.573-0.115h0.459c0.115 0 0.23 0 0.23 0s0.23 0 0.344 0c0.115 0 0.23 0 0.23 0 0.115 0 0.23 0 0.344 0s0.23 0 0.344 0c0.115 0 0.23 0 0.344 0s0.23 0 0.344 0h0.115v12.5h11.812c-0.115 0.917-0.23 1.835-0.573 2.638v0c-0.115 0.23-0.115 0.459-0.23 0.688 0 0 0 0 0 0 0 0.115-0.115 0.115-0.115 0.23 0 0 0 0 0 0-1.262 2.867-3.555 5.046-6.422 6.193 0 0 0 0 0 0-0.23 0.115-0.459 0.23-0.688 0.23v0c-0.803 0.23-1.72 0.459-2.638 0.573v0c-0.115 0-0.344 0-0.459 0v0 0h-0.344c-0.115 0-0.344 0-0.459 0h-0.115c-0.115 0-0.23 0-0.344 0s-0.23 0-0.344 0h-0.688c-0.115 0-0.23 0-0.23 0-0.115 0-0.23 0-0.344 0s-0.23 0-0.23 0l-0.459-0.23c-0.115 0-0.23 0-0.23-0.115-0.115 0-0.115 0-0.23-0.115s-0.23 0-0.23-0.115l-0.23-0.115-0.459-0.344-0.23-0.115c-0.115 0-0.23-0.115-0.23-0.115-0.115 0-0.115-0.115-0.23-0.115s-0.23-0.115-0.23-0.115c-0.115 0-0.115-0.115-0.23-0.115s-0.115-0.115-0.23-0.115c-0.115 0-0.115-0.115-0.23-0.115s-0.115-0.115-0.23-0.115-0.115-0.115-0.23-0.115l-0.23-0.115c-0.115 0-0.115-0.115-0.23-0.115-0.115-0.115-0.115-0.115-0.23-0.23s-0.115-0.115-0.23-0.115-0.115-0.115-0.23-0.23c-0.115 0-0.115-0.115-0.23-0.115l-0.23-0.23c0 0-0.115-0.115-0.23-0.23s-0.115-0.115-0.23-0.23c0 0-0.115-0.115-0.115-0.23-0.115-0.115-0.115-0.115-0.23-0.23 0 0-0.115-0.115-0.115-0.23-0.115-0.115-0.115-0.115-0.23-0.23l-0.115-0.23c-0.115-0.115-0.115-0.115-0.23-0.23l-0.115-0.23c0-0.115-0.115-0.115-0.115-0.23s-0.115-0.115-0.115-0.23c0-0.115-0.115-0.115-0.115-0.23s-0.115-0.23-0.115-0.23c0-0.115-0.115-0.23-0.115-0.23 0-0.115-0.115-0.115-0.115-0.23s-0.115-0.344-0.23-0.344-0.115-0.115-0.115-0.23-0.115-0.23-0.115-0.344l-0.115-0.23c0-0.115-0.115-0.23-0.115-0.344s0-0.115-0.115-0.23c0-0.115 0-0.23-0.115-0.344 0-0.115 0-0.115-0.115-0.23 0-0.115 0-0.23-0.115-0.344 0-0.115 0-0.115 0-0.23s0-0.23-0.115-0.344c0-0.115 0-0.115 0-0.23s0-0.23 0-0.344c0-0.115 0-0.115 0-0.23s0-0.23 0-0.344c0-0.115 0-0.115 0-0.23 0-0.23 0-0.344 0-0.573s0-0.459 0-0.573c0.115 0 0.115 0 0.115-0.115v0zM14.679 11.583c0.23 0 0.459-0.23 0.459-0.459s-0.23-0.344-0.573-0.344c-0.23 0-0.459 0.23-0.459 0.459 0.115 0.115 0.23 0.344 0.573 0.344zM14.679 8.142c0.23 0 0.459-0.23 0.459-0.459s-0.23-0.344-0.573-0.344c-0.23 0-0.459 0.23-0.459 0.459 0.115 0.115 0.23 0.344 0.573 0.344zM14.679 4.702c0.23 0 0.459-0.23 0.459-0.459s-0.23-0.344-0.573-0.344c-0.23 0-0.459 0.23-0.459 0.459 0.115 0.115 0.23 0.344 0.573 0.344zM16.399 9.863c0.23 0 0.459-0.23 0.459-0.459s-0.23-0.459-0.459-0.459c-0.23 0-0.459 0.23-0.459 0.459s0.115 0.459 0.459 0.459zM16.399 6.422c0.23 0 0.459-0.23 0.459-0.459s-0.23-0.459-0.459-0.459c-0.23 0-0.459 0.23-0.459 0.459s0.115 0.459 0.459 0.459zM16.399 2.982c0.23 0 0.459-0.23 0.459-0.459s-0.23-0.459-0.459-0.459c-0.23 0-0.459 0.23-0.459 0.459s0.115 0.459 0.459 0.459zM18.12 11.583c0.23 0 0.459-0.23 0.459-0.459s-0.23-0.344-0.573-0.344c-0.23 0-0.459 0.23-0.459 0.459 0.115 0.115 0.23 0.344 0.573 0.344zM18.12 8.142c0.23 0 0.459-0.23 0.459-0.459s-0.23-0.344-0.573-0.344c-0.23 0-0.459 0.23-0.459 0.459 0.115 0.115 0.23 0.344 0.573 0.344zM18.12 4.702c0.23 0 0.459-0.23 0.459-0.459s-0.23-0.344-0.573-0.344c-0.23 0-0.459 0.23-0.459 0.459 0.115 0.115 0.23 0.344 0.573 0.344zM19.84 9.863c0.23 0 0.459-0.23 0.459-0.459s-0.23-0.459-0.459-0.459c-0.23 0-0.459 0.23-0.459 0.459s0.115 0.459 0.459 0.459zM19.84 6.422c0.23 0 0.459-0.23 0.459-0.459s-0.23-0.459-0.459-0.459c-0.23 0-0.459 0.23-0.459 0.459s0.115 0.459 0.459 0.459zM21.559 11.583c0.23 0 0.459-0.23 0.459-0.459s-0.23-0.344-0.573-0.344c-0.23 0-0.459 0.23-0.459 0.459 0.115 0.115 0.23 0.344 0.573 0.344zM21.559 8.142c0.23 0 0.459-0.23 0.459-0.459s-0.23-0.344-0.573-0.344c-0.23 0-0.459 0.23-0.459 0.459 0.115 0.115 0.23 0.344 0.573 0.344zM23.28 9.863c0.23 0 0.459-0.23 0.459-0.459s-0.23-0.459-0.459-0.459c-0.23 0-0.459 0.23-0.459 0.459s0.115 0.459 0.459 0.459z"></path>
</symbol>
<symbol id="icon-download" viewBox="0 0 25 25">
<title>download</title>
<path class="path1" d="M21.234 15.933v5.711h-17.469v-5.711h-3.357v7.39c0 0.927 0.751 1.678 1.681 1.678h20.821c0.93 0 1.681-0.751 1.681-1.678v-7.39h-3.357z"></path>
<path class="path2" d="M12.192 15.366l-4.807-5.808c0 0-0.731-0.691 0.062-0.691s2.709 0 2.709 0 0-0.465 0-1.181c0-2.042 0-5.759 0-7.275 0 0-0.108-0.412 0.513-0.412 0.625 0 3.365 0 3.813 0s0.437 0.347 0.437 0.347c0 1.469 0 5.315 0 7.29 0 0.64 0 1.056 0 1.056s1.536 0 2.5 0c0.962 0 0.238 0.723 0.238 0.723s-4.090 5.429-4.66 5.999c-0.41 0.413-0.804-0.048-0.804-0.048z"></path>
</symbol>
<symbol id="icon-hub" viewBox="0 0 25 25">
<title>hub</title>
<path class="path1" d="M0 0v25h25v-25h-25zM17.42 22.473h-9.973v-1.197h9.973v1.197zM17.42 18.75h-9.973v-1.197h9.973v1.197zM17.42 14.894h-9.973v-1.197h9.973v1.197zM17.42 11.17h-9.973v-1.197h9.973v1.197zM22.473 22.473h-2.527v-15.027h-14.894v15.027h-2.527v-19.947h19.947v19.947z"></path>
</symbol>
<symbol id="icon-kfh-shape" viewBox="0 0 25 25">
<title>kfh-shape</title>
<path class="path1" fill="#f6f7f8" d="M12.5 0c-6.904 0-12.5 5.596-12.5 12.5s5.596 12.5 12.5 12.5c6.904 0 12.5-5.596 12.5-12.5-0.011-6.899-5.601-12.489-12.499-12.5zM12.5 15.959c-1.918 0-3.472-1.555-3.472-3.472s1.555-3.472 3.472-3.472c1.918 0 3.472 1.555 3.472 3.472 0 0.005 0 0.009 0 0.015 0-0.001 0-0.001 0-0.001 0 1.91-1.548 3.459-3.459 3.459-0.005 0-0.009 0-0.015 0zM1.791 12.5c0.006-5.657 4.395-10.287 9.952-10.679l0.034 5.665c-2.473 0.368-4.347 2.477-4.347 5.023 0 0.677 0.133 1.323 0.373 1.914l-4.915 2.799c-0.69-1.378-1.095-3.002-1.097-4.721zM12.5 23.209c-3.69-0.001-6.943-1.87-8.865-4.713l4.879-2.871c0.934 1.188 2.372 1.945 3.986 1.945s3.052-0.756 3.978-1.934l4.911 2.823c-1.946 2.88-5.199 4.749-8.889 4.75zM17.209 14.389c0.228-0.557 0.361-1.203 0.361-1.88 0-2.546-1.875-4.654-4.32-5.020l-0.028-5.67c5.595 0.388 9.986 5.022 9.986 10.681 0 1.72-0.405 3.344-1.126 4.784z"></path>
</symbol>
<symbol id="icon-live-stream" viewBox="0 0 20 25">
<title>live-stream</title>
<path class="path1" d="M18.645 16.001l0.014 0.084v-0.028l0.014 0.028 0.014-0.084h-0.042zM17.323 12.022c0.214-0.481 0.687-0.812 1.237-0.816 0.001 0 0.001 0 0.001 0 0.734 0 1.329 0.595 1.329 1.329s-0.595 1.329-1.329 1.329c0 0 0 0 0 0-0.002 0-0.005 0-0.008 0-0.107 0-0.211-0.016-0.309-0.045l0.008 0.002c-0.037-0.003-0.070-0.013-0.1-0.029-0.528-0.208-0.897-0.714-0.898-1.307-0.001-0.015-0.001-0.032-0.001-0.049 0-0.088 0.011-0.173 0.030-0.254 0.007-0.055 0.021-0.113 0.042-0.166zM18.687 16.001l-0.014 0.084-0.014 0.014v-0.014l-0.014-0.084h0.042zM13.456 17.323c-0.29-0.006-0.552-0.123-0.745-0.309-1.163-1.159-1.884-2.763-1.884-4.534s0.72-3.376 1.884-4.534c0.191-0.189 0.455-0.306 0.745-0.306s0.554 0.117 0.745 0.306c0.195 0.188 0.316 0.452 0.316 0.745s-0.121 0.556-0.316 0.745c-0.773 0.78-1.25 1.853-1.252 3.037 0 0.005 0 0.010 0 0.016 0 1.18 0.478 2.248 1.252 3.022 0.195 0.191 0.316 0.458 0.316 0.752s-0.121 0.561-0.316 0.752c-0.192 0.189-0.455 0.306-0.745 0.309zM9.336 20.726c-0.001 0-0.002 0-0.004 0-0.29 0-0.552-0.118-0.741-0.309-2.033-2.030-3.291-4.837-3.291-7.937s1.258-5.906 3.29-7.938c0.193-0.207 0.467-0.336 0.772-0.336 0.582 0 1.055 0.472 1.055 1.055 0 0.304-0.129 0.578-0.335 0.771-1.649 1.651-2.669 3.93-2.669 6.448s1.020 4.796 2.668 6.447c0.195 0.188 0.316 0.452 0.316 0.745s-0.121 0.556-0.316 0.745c-0.186 0.191-0.445 0.309-0.732 0.309-0.005 0-0.009 0-0.014 0zM5.765 24.986c-0.001 0-0.002 0-0.004 0-0.29 0-0.552-0.118-0.741-0.309-3.121-3.122-5.052-7.434-5.052-12.198s1.93-9.076 5.052-12.198c0.192-0.194 0.458-0.313 0.752-0.313 0.585 0 1.059 0.474 1.059 1.059 0 0.291-0.117 0.554-0.307 0.745-2.743 2.739-4.44 6.525-4.44 10.707s1.697 7.968 4.44 10.707c0.191 0.191 0.309 0.455 0.309 0.745 0 0.582-0.472 1.055-1.055 1.055-0.005 0-0.009 0-0.014 0z"></path>
</symbol>
<symbol id="icon-map" viewBox="0 0 25 25">
<title>map</title>
<path class="path1" d="M12.5 0c-6.9 0-12.5 5.6-12.5 12.5s5.6 12.5 12.5 12.5 12.5-5.6 12.5-12.5-5.6-12.5-12.5-12.5zM12.5 23.75c-6.225 0-11.25-5.050-11.25-11.25 0-6.225 5.025-11.25 11.25-11.25s11.25 5.025 11.25 11.25c0 6.2-5.050 11.25-11.25 11.25z"></path>
<path class="path2" d="M15.050 1.55v0 0z"></path>
<path class="path3" d="M20.25 20.65v0 0z"></path>
<path class="path4" d="M4.475 20.375v0 0z"></path>
<path class="path5" d="M23.35 15.45v0 0z"></path>
<path class="path6" d="M23.525 10.325v0 0z"></path>
<path class="path7" d="M23.4 9.75v0 0z"></path>
<path class="path8" d="M23.5 14.9v0c0 0 0 0 0 0s0 0 0 0z"></path>
<path class="path9" d="M4.35 4.75v0 0z"></path>
<path class="path10" d="M14.675 23.525v0 0z"></path>
<path class="path11" d="M10.1 1.5c0 0 0 0 0 0s0 0 0 0v0z"></path>
<path class="path12" d="M8.050 12.325c-0.55 0-0.975 0.45-0.975 0.975l0.975 1.5 0.975-1.5c0-0.55-0.45-0.975-0.975-0.975zM8.050 13.675c-0.25 0-0.45-0.2-0.45-0.45s0.2-0.45 0.45-0.45c0.25 0 0.45 0.2 0.45 0.45s-0.2 0.45-0.45 0.45z"></path>
<path class="path13" d="M13.525 1.3c0.15 0.025 0.275 0.025 0.425 0.050-0.15-0.025-0.275-0.050-0.425-0.050z"></path>
<path class="path14" d="M13.025 1.275c0.1 0 0.225 0.025 0.325 0.025-0.1-0.025-0.225-0.025-0.325-0.025z"></path>
<path class="path15" d="M11.3 1.325c0.175-0.025 0.35-0.025 0.525-0.050-0.175 0-0.35 0.025-0.525 0.050z"></path>
<path class="path16" d="M10.1 1.5c0.375-0.075 0.75-0.15 1.15-0.175-0.375 0.050-0.775 0.1-1.15 0.175z"></path>
<path class="path17" d="M11.9 1.275c0.2-0.025 0.4-0.025 0.6-0.025-0.2 0-0.4 0-0.6 0.025z"></path>
<path class="path18" d="M23.35 15.45c0.050-0.175 0.1-0.375 0.125-0.55-0.025 0.175-0.075 0.375-0.125 0.55z"></path>
<path class="path19" d="M15.050 1.55c-0.35-0.075-0.7-0.15-1.050-0.2 0.15 0.025 0.3 0.050 0.475 0.075 0.2 0.025 0.4 0.075 0.575 0.125z"></path>
<path class="path20" d="M23.4 9.75c0.050 0.2 0.1 0.375 0.125 0.575-0.025-0.2-0.075-0.4-0.125-0.575z"></path>
<path class="path21" d="M8.4 17.725l4.75 4.75c0.525-0.025 1.050-0.1 1.55-0.225l-5.4-5.425-0.9 0.9z"></path>
<path class="path22" d="M8.125 7.225l-2.225-2.225c-0.325 0.275-0.6 0.575-0.875 0.875l2.225 2.225 0.875-0.875z"></path>
<path class="path23" d="M17.125 17.25l-0.875-0.9 0.5-0.5-7.75-7.75-0.875 0.9 3.625 3.625 0.45-0.45 0.875 0.875-0.45 0.45 6.5 6.5c0.325-0.275 0.6-0.575 0.875-0.875l-2.375-2.375-0.5 0.5z"></path>
<path class="path24" d="M12.275 3.075l-0.55-0.55c-0.525 0.050-1.025 0.125-1.525 0.225l1.2 1.2 0.875-0.875z"></path>
<path class="path25" d="M12.262 4.855l0.884-0.884 7.744 7.743-0.884 0.884-7.744-7.743z"></path>
<path class="path26" d="M21.775 12.6l-0.875 0.875 1.325 1.325c0.125-0.5 0.2-1 0.225-1.525l-0.675-0.675z"></path>
<path class="path27" d="M8 17.3l0.875-0.875 0.4 0.4 3.35-3.325-0.875-0.875-6.625 6.625c0.275 0.3 0.575 0.6 0.9 0.875l2.4-2.4-0.425-0.425z"></path>
<path class="path28" d="M7.998 17.302l0.884-0.884 0.406 0.406-0.884 0.884-0.406-0.406z"></path>
<path class="path29" d="M11.755 12.62l0.442-0.442 0.884 0.884-0.442 0.442-0.884-0.884z"></path>
<path class="path30" d="M16.76 15.858l3.271-3.27 0.884 0.884-3.271 3.27-0.884-0.884z"></path>
<path class="path31" d="M21.775 12.6l0.7-0.7c-0.025-0.525-0.1-1.050-0.225-1.55l-1.375 1.375 0.9 0.875z"></path>
<path class="path32" d="M17.125 17.25l-0.875-0.9 0.525-0.525 0.85 0.925z"></path>
<path class="path33" d="M20.021 12.599l0.884-0.884 0.884 0.884-0.884 0.884-0.884-0.884z"></path>
<path class="path34" d="M3.175 12.175c0.25-0.25 0.65-0.25 0.875 0s0.25 0.65 0 0.875c-0.025 0.025-0.075 0.050-0.1 0.075v0l4.175-4.125-0.875-0.875-4.075 4.050z"></path>
<path class="path35" d="M3.1 12.275v0c0.025-0.025 0.050-0.050 0.1-0.1l-0.1 0.1z"></path>
<path class="path36" d="M8.136 7.233l3.27-3.27 0.884 0.884-3.27 3.27-0.884-0.884z"></path>
<path class="path37" d="M13.15 3.975l1.275-1.275c-0.525-0.1-1.050-0.15-1.575-0.175l-0.575 0.575 0.875 0.875z"></path>
<path class="path38" d="M7.244 8.123l0.884-0.884 0.884 0.884-0.884 0.884-0.884-0.884z"></path>
<path class="path39" d="M11.396 3.974l0.884-0.884 0.884 0.884-0.884 0.884-0.884-0.884z"></path>
<path class="path40" d="M3.175 13.050c0.225 0.225 0.55 0.25 0.775 0.075l-0.875-0.875c-0.125 0.275-0.1 0.6 0.1 0.8z"></path>
<path class="path41" d="M4.075 12.175c-0.25-0.25-0.65-0.25-0.875 0-0.025 0.025-0.050 0.075-0.075 0.1l0.875 0.875c0.025-0.025 0.075-0.050 0.1-0.075 0.2-0.25 0.2-0.65-0.025-0.9z"></path>
</symbol>
<symbol id="icon-menu" viewBox="0 0 25 25">
<title>menu</title>
<path class="path1" d="M1.563 4.688h21.875v4.688h-21.875zM1.563 10.938h21.875v4.688h-21.875zM1.563 17.188h21.875v4.688h-21.875z"></path>
</symbol>
<symbol id="icon-Office" viewBox="0 0 25 25">
<title>Office</title>
<path class="path1" d="M16.513 0.987l-2.829 3.421h-13.684v19.605h25v-23.027h-8.487z"></path>
</symbol>
<symbol id="icon-print" viewBox="0 0 25 25">
<title>print</title>
<path class="path1" d="M23.446 0h-21.875c-0.004 0-0.008 0-0.012 0-0.859 0-1.556 0.695-1.559 1.553v12.5c0 0.002 0 0.005 0 0.009 0 0.863 0.699 1.563 1.563 1.563 0.003 0 0.006 0 0.009 0h2.589v-5.214h16.679v5.214h2.607c0.859-0.003 1.554-0.7 1.554-1.559 0-0.005 0-0.009 0-0.013v-12.499c-0.001-0.858-0.696-1.552-1.553-1.554zM20.321 6.25c-0.002 0-0.005 0-0.009 0-0.863 0-1.563-0.699-1.563-1.563s0.699-1.563 1.563-1.563c0.86 0 1.557 0.695 1.563 1.553 0 0.003 0 0.006 0 0.009 0 0.86-0.695 1.558-1.553 1.563zM6.25 12.5h12.5v11.982c0 0.286-0.232 0.518-0.518 0.518h-11.464c-0.286 0-0.518-0.232-0.518-0.518v-11.982z"></path>
</symbol>
<symbol id="icon-Search" viewBox="0 0 25 25">
<title>Search</title>
<path class="path1" d="M25 23.905c0-0.183-0.183-0.548-0.365-0.73l-5.474-5.474c1.095-1.277 1.825-2.92 2.19-4.562v0c0.183-0.73 0.183-1.642 0.183-2.373 0-6.022-4.927-10.766-10.949-10.766-2.738 0-5.474 1.095-7.482 3.102s-3.102 4.927-3.102 7.664c0 6.022 4.927 10.766 10.766 10.766 0 0 0 0 0 0 2.555 0 4.927-0.912 6.934-2.555l5.474 5.474c0.183 0.183 0.365 0.365 0.73 0.365 0.183 0 0.548-0.183 0.73-0.365 0.183 0 0.365-0.183 0.365-0.548zM17.153 4.562c1.642 1.642 2.555 4.015 2.555 6.205 0 0.73 0 1.277-0.183 2.007-0.365 1.642-1.277 3.102-2.373 4.38v0c-1.642 1.642-3.832 2.555-6.205 2.555s-4.562-0.913-6.205-2.555c-1.825-1.642-2.737-4.015-2.737-6.387 0-4.927 3.832-8.759 8.759-8.941 0 0 0.183 0 0.183 0 2.19 0.183 4.562 1.095 6.205 2.737v0z"></path>
</symbol>
<symbol id="icon-Servers" viewBox="0 0 25 25">
<title>Servers</title>
<path class="path1" d="M0.070 0v6.945h18.889v-6.945h-18.889zM6.666 3.959h-3.334v-1.041h3.264l0.070 1.041zM14.791 4.236c-0.416 0-0.764-0.347-0.764-0.764s0.347-0.764 0.764-0.764c0.416 0 0.764 0.347 0.764 0.764 0 0 0 0 0 0 0.070 0.416-0.347 0.764-0.764 0.764v0zM18.75 14.653h-0.209c-0.625 0-1.111 0.416-1.111 1.041 0 0 0 0 0 0v1.389h2.361v-1.389c0-0.555-0.416-1.041-1.041-1.041 0 0 0 0 0 0v0zM18.611 12.014c-3.403 0.139-6.041 2.986-5.972 6.389 0.139 3.403 2.986 6.041 6.389 5.972 3.334-0.139 5.972-2.847 5.972-6.18-0.070-3.472-2.916-6.18-6.389-6.18v0zM22.014 21.875h-6.805v-4.791h1.111v-1.389c0-1.18 0.972-2.153 2.153-2.153h0.278c1.18 0 2.153 0.903 2.153 2.084 0 0 0 0 0 0v1.389h1.111v4.861zM11.111 18.264v-0.209h-11.111v6.945h15.764c-2.778-1.111-4.584-3.75-4.653-6.736v0zM6.597 22.014h-3.264v-1.041h3.264v1.041zM18.611 10.972h0.347v-2.014h-18.889v6.945h11.528c1.041-2.986 3.889-4.93 7.014-4.93v0zM3.334 12.986v-1.041h3.264v1.041h-3.264z"></path>
</symbol>
<symbol id="icon-share" viewBox="0 0 19 25">
<title>share</title>
<path class="path1" d="M14.866 17.188c-0.827 0.001-1.593 0.258-2.224 0.695l-5.070-4.009c0.16-0.408 0.254-0.88 0.254-1.373-0.002-0.513-0.1-1.003-0.277-1.452l5.015-3.991c0.637 0.469 1.437 0.749 2.302 0.749 2.16 0 3.912-1.752 3.912-3.912s-1.752-3.912-3.912-3.912c-2.16 0-3.912 1.752-3.912 3.912 0 0.001 0 0.002 0 0.002 0 0.003 0 0.006 0 0.009 0 0.452 0.077 0.885 0.22 1.287l-5.091 4.042c-0.611-0.413-1.364-0.659-2.175-0.659-2.164 0-3.918 1.754-3.918 3.918s1.754 3.918 3.918 3.918c0.828 0 1.596-0.257 2.229-0.695l5.068 4.009c-0.156 0.406-0.248 0.877-0.248 1.369 0 2.159 1.751 3.909 3.909 3.909s3.909-1.751 3.909-3.909c0-2.159-1.751-3.909-3.909-3.909-0.001 0-0.001 0-0.002 0z"></path>
</symbol>
<symbol id="icon-Trucks" viewBox="0 0 25 25">
<title>Trucks</title>
<path class="path1" d="M10.477 16.041v0.506c-0.148 0.744-0.834 1.28-1.607 1.309-0.179 0-0.327-0.030-0.506-0.089-0.148 0.059-0.327 0.089-0.506 0.089-0.268 0-0.536-0.059-0.773-0.209-0.238 0.148-0.506 0.209-0.773 0.209-0.179 0-0.327-0.030-0.506-0.089-0.119 0.059-0.268 0.089-0.446 0.089-0.298 0-0.566-0.089-0.804-0.238-0.387 0.238-0.863 0.298-1.28 0.148-0.179 0.059-0.357 0.089-0.506 0.089-0.923 0-1.637-0.744-1.637-1.666h-0.179c-0.209 0-0.952-0.119-0.952-0.863v-8.184h23.304l1.696 1.666v7.262h-14.523zM3.72 15.357c-0.446 0-0.834 0.357-0.834 0.804s0.357 0.834 0.804 0.834 0.834-0.357 0.834-0.804c0 0 0 0 0 0 0.030-0.446-0.357-0.834-0.804-0.834 0 0 0 0 0 0zM6.339 15.357c-0.446 0-0.834 0.357-0.834 0.804s0.357 0.834 0.804 0.834 0.834-0.327 0.834-0.773c0 0 0 0 0 0 0.030-0.477-0.357-0.863-0.804-0.863 0 0 0 0 0 0v0zM8.898 15.357c-0.446 0-0.834 0.357-0.834 0.804s0.357 0.834 0.804 0.834 0.834-0.357 0.834-0.804c0 0 0 0 0 0 0-0.446-0.357-0.834-0.804-0.834 0 0 0 0 0 0v0z"></path>
</symbol>
</defs>
</svg>
